{"glyphs":{"0":{"ha":867,"x_min":34,"x_max":833,"o":"m 433 5 q 261 43 336 5 q 137 145 187 81 q 60 292 86 209 q 34 464 34 374 q 45 583 34 523 q 79 699 56 643 q 135 805 101 755 q 213 890 168 854 q 313 948 257 927 q 435 969 368 969 q 557 948 502 969 q 657 891 613 928 q 735 806 702 855 q 790 702 768 758 q 823 585 812 646 q 833 466 833 525 q 822 349 833 406 q 788 240 810 291 q 731 145 765 189 q 653 71 697 102 q 553 22 608 40 q 433 5 498 5 m 435 311 q 499 329 473 311 q 542 373 525 346 q 566 432 558 399 q 573 496 573 465 q 566 559 573 526 q 544 622 559 593 q 504 669 529 650 q 444 688 479 688 q 378 668 405 688 q 335 616 351 647 q 311 548 318 585 q 303 480 303 511 q 311 421 303 451 q 335 366 319 391 q 376 327 351 342 q 435 311 401 311 z "},"1":{"ha":650,"x_min":34,"x_max":616,"o":"m 422 -5 q 374 0 401 -5 q 323 18 347 6 q 283 48 300 30 q 267 94 267 67 q 270 144 267 119 q 275 195 273 170 q 278 295 277 245 q 279 396 279 345 q 273 592 279 494 q 247 575 260 583 q 221 559 234 566 q 193 549 208 553 q 161 545 178 545 q 114 555 136 545 q 73 581 91 564 q 44 620 55 597 q 34 667 34 642 q 47 713 34 695 q 85 744 61 732 q 149 781 121 762 q 202 822 178 800 q 246 871 226 844 q 287 933 267 899 q 308 953 294 945 q 337 964 321 960 q 370 968 353 967 q 398 969 386 969 q 443 965 420 969 q 486 951 466 960 q 521 926 505 941 q 546 888 537 910 q 579 777 566 839 q 601 649 593 715 q 612 519 609 583 q 616 402 616 455 q 611 270 616 336 q 593 138 607 203 q 536 33 580 71 q 422 -5 492 -5 z "},"2":{"ha":839,"x_min":34,"x_max":805,"o":"m 435 -7 q 383 -6 416 -7 q 313 -2 351 -5 q 238 7 276 1 q 169 25 199 14 q 118 53 138 36 q 99 96 99 71 q 115 182 99 141 q 155 262 130 224 q 213 336 180 300 q 279 404 245 371 q 345 466 313 436 q 403 525 378 496 q 444 581 428 554 q 459 635 459 608 q 457 657 459 645 q 449 680 454 669 q 435 697 444 690 q 413 704 426 704 q 385 695 397 704 q 363 676 372 687 q 343 642 349 661 q 338 603 338 623 q 322 555 338 574 q 282 525 306 536 q 231 509 258 513 q 181 504 204 504 q 140 507 164 504 q 93 519 116 511 q 53 543 70 528 q 35 578 37 557 q 34 593 35 585 q 34 608 34 600 q 66 757 34 690 q 152 871 98 824 q 277 944 205 918 q 427 969 348 969 q 556 948 494 969 q 667 889 619 928 q 745 793 715 850 q 774 666 774 737 q 760 584 774 623 q 724 509 747 545 q 672 442 702 474 q 611 381 643 410 q 547 323 579 351 q 486 269 514 296 q 573 288 531 276 q 659 316 615 300 q 680 320 669 320 q 732 298 709 320 q 772 245 755 276 q 797 180 788 214 q 805 121 805 146 q 791 54 805 78 q 754 18 778 29 q 700 3 731 6 q 635 -1 669 0 q 535 -5 585 -3 q 435 -7 486 -7 z "},"3":{"ha":805,"x_min":34,"x_max":771,"o":"m 410 -5 q 335 0 376 -5 q 253 16 294 5 q 172 46 211 28 q 102 89 132 64 q 53 149 71 115 q 34 225 34 182 q 46 284 34 255 q 78 335 58 313 q 125 372 98 358 q 183 387 153 387 q 219 381 204 387 q 247 366 235 375 q 270 347 259 357 q 293 328 281 336 q 319 313 304 319 q 355 307 334 307 q 386 312 369 307 q 416 326 402 317 q 438 348 429 335 q 448 378 448 361 q 444 396 448 388 q 433 412 439 404 q 398 435 420 428 q 353 447 377 443 q 306 454 330 451 q 262 464 281 456 q 231 485 243 471 q 219 525 219 499 q 221 545 219 534 q 229 566 224 556 q 240 585 233 576 q 257 597 248 593 q 293 614 271 602 q 335 640 315 625 q 370 673 355 655 q 385 707 385 690 q 381 717 385 713 q 374 723 378 721 q 363 726 369 725 q 353 726 357 726 q 310 720 331 726 q 268 707 289 714 q 227 694 248 700 q 186 688 207 688 q 136 701 158 688 q 99 735 114 714 q 75 782 83 756 q 67 832 67 807 q 85 884 67 862 q 133 922 104 906 q 199 947 163 937 q 273 963 236 958 q 342 971 309 969 q 395 974 374 974 q 454 971 420 974 q 525 962 488 969 q 598 944 562 956 q 663 915 635 932 q 709 872 692 897 q 727 812 727 846 q 718 770 727 793 q 694 720 709 746 q 660 667 679 694 q 622 614 641 640 q 587 567 604 589 q 558 528 570 545 q 638 485 600 510 q 706 426 676 459 q 753 351 735 392 q 771 262 771 311 q 756 175 771 214 q 714 106 741 136 q 652 56 688 77 q 576 21 616 35 q 493 1 536 7 q 410 -5 450 -5 z "},"4":{"ha":847,"x_min":34,"x_max":813,"o":"m 623 -5 q 576 2 602 -5 q 527 22 550 9 q 488 54 504 35 q 473 98 473 73 l 473 105 q 484 215 479 160 q 494 325 490 270 q 401 321 447 323 q 308 319 355 319 q 257 320 286 319 q 197 323 228 320 q 138 333 167 326 q 85 354 109 340 q 48 390 62 368 q 34 442 34 411 q 43 509 34 465 q 67 605 52 552 q 103 713 83 657 q 144 818 123 769 q 188 902 166 867 q 229 949 210 937 q 290 966 258 966 q 351 952 322 966 q 400 917 379 939 q 433 865 421 895 q 446 804 446 836 q 443 772 446 788 q 434 741 439 756 q 399 627 415 684 q 372 511 384 570 q 502 513 437 513 l 502 559 q 492 781 502 671 q 491 794 491 788 q 490 807 490 800 q 502 870 490 840 q 534 922 513 899 q 583 957 555 944 q 646 970 612 970 q 720 947 686 970 q 756 899 741 932 q 782 825 772 867 q 799 735 793 783 q 808 642 805 687 q 812 557 811 596 q 813 494 813 519 q 806 313 813 404 q 778 134 798 222 q 758 80 771 105 q 725 35 745 54 q 680 6 706 16 q 623 -5 654 -5 z "},"5":{"ha":772,"x_min":34,"x_max":739,"o":"m 394 0 q 324 4 363 0 q 245 19 286 9 q 167 45 205 29 q 99 85 129 62 q 52 140 70 109 q 34 212 34 172 q 44 269 34 241 q 74 321 55 298 q 118 359 92 345 q 174 374 144 374 q 218 363 201 374 q 251 341 236 353 q 281 318 266 328 q 317 308 296 308 q 352 316 335 308 q 381 337 368 323 q 401 367 393 350 q 409 401 409 383 q 401 431 409 419 q 380 450 393 444 q 352 460 368 457 q 321 463 336 463 q 289 460 305 463 q 257 455 273 458 q 224 449 241 452 q 192 447 208 447 q 102 469 132 447 q 61 526 73 490 q 50 605 50 561 q 50 692 50 648 q 50 739 50 712 q 52 793 50 765 q 56 848 53 821 q 64 895 58 875 q 76 922 68 908 q 98 942 83 935 q 146 952 111 948 q 228 959 181 956 q 327 964 274 962 q 428 967 380 966 q 514 968 476 968 q 569 968 552 968 q 661 936 627 968 q 695 845 695 904 q 688 794 695 821 q 666 746 680 768 q 629 710 651 724 q 580 696 608 696 q 558 699 568 696 q 537 705 547 701 q 411 744 474 731 q 279 758 347 757 l 296 626 q 357 637 326 633 q 418 642 387 642 q 546 619 488 642 q 648 555 605 596 q 714 456 690 514 q 739 328 739 398 q 712 192 739 253 q 638 89 685 132 q 529 23 592 46 q 394 0 467 0 z "},"6":{"ha":814,"x_min":34,"x_max":781,"o":"m 425 -11 q 257 23 330 -11 q 135 116 184 58 q 59 254 85 175 q 34 422 34 332 q 48 558 34 491 q 91 687 63 626 q 159 799 119 747 q 253 889 200 851 q 370 948 306 926 q 509 969 435 969 q 650 924 599 969 q 701 786 701 879 q 697 743 701 762 q 682 709 692 723 q 653 687 671 695 q 610 680 636 680 q 570 683 589 680 q 530 687 550 687 q 454 673 487 687 q 399 633 422 659 q 363 574 376 608 q 348 499 351 539 q 438 548 390 528 q 538 568 486 568 q 639 544 594 568 q 716 481 684 520 q 764 392 747 442 q 781 290 781 342 q 750 161 781 218 q 669 67 719 105 q 555 9 618 29 q 425 -11 491 -11 m 467 278 q 501 285 484 278 q 530 303 517 292 q 551 331 543 315 q 559 365 559 347 q 541 412 559 393 q 495 431 524 431 q 457 422 475 431 q 426 398 440 413 q 401 366 412 384 q 383 332 391 349 q 418 294 397 309 q 467 278 438 278 z "},"7":{"ha":763,"x_min":34,"x_max":729,"o":"m 429 -1 q 357 4 394 -1 q 291 22 321 8 q 241 63 260 37 q 221 132 221 89 q 233 236 221 184 q 262 339 244 288 q 304 442 281 391 q 351 545 328 494 q 395 646 374 595 q 431 745 416 696 q 371 740 401 743 q 310 733 340 737 q 250 722 279 729 q 193 705 220 715 q 171 699 182 701 q 149 696 161 696 q 100 710 121 696 q 64 746 79 724 q 41 794 49 768 q 34 845 34 821 q 68 936 34 904 q 160 968 102 968 q 392 969 276 968 q 625 962 509 970 q 667 952 648 961 q 700 929 686 943 q 721 896 713 915 q 729 853 729 876 q 726 826 729 839 q 718 799 723 812 q 688 707 704 759 q 655 596 671 654 q 625 476 640 538 q 599 355 610 414 q 581 242 588 296 q 574 148 574 189 q 540 37 574 75 q 429 -1 506 -1 z "},"8":{"ha":806,"x_min":34,"x_max":772,"o":"m 403 0 q 314 8 359 0 q 229 31 270 16 q 152 71 188 47 q 90 127 117 95 q 49 201 64 160 q 34 292 34 242 q 43 368 34 331 q 72 437 53 405 q 118 494 90 469 q 182 536 146 520 q 136 567 155 547 q 103 612 116 587 q 83 666 90 637 q 77 721 77 694 q 106 834 77 787 q 183 912 136 882 q 288 957 230 943 q 403 972 346 972 q 517 957 459 972 q 623 912 576 943 q 700 834 670 882 q 730 722 730 787 q 723 666 730 694 q 704 613 717 638 q 670 568 690 588 q 624 536 650 547 q 688 495 661 520 q 735 437 716 469 q 763 368 753 405 q 772 292 772 331 q 740 162 772 217 q 654 71 707 107 q 535 18 601 35 q 403 0 469 0 m 408 625 q 435 628 421 625 q 460 638 449 631 q 479 655 472 644 q 486 682 486 666 q 478 710 486 699 q 457 729 470 722 q 429 740 444 736 q 400 743 414 743 q 371 740 386 743 q 344 729 356 736 q 323 711 332 722 q 315 683 315 699 q 325 656 315 667 q 349 638 335 645 q 379 628 363 631 q 408 625 395 625 m 403 319 q 437 322 419 319 q 472 334 456 326 q 498 355 488 342 q 509 389 509 369 q 497 418 509 406 q 469 438 486 430 q 434 451 452 446 q 403 458 416 456 q 372 451 390 456 q 337 438 354 446 q 309 418 321 430 q 298 389 298 406 q 308 355 298 368 q 334 334 318 342 q 368 322 350 326 q 403 319 387 319 z "},"9":{"ha":814,"x_min":34,"x_max":781,"o":"m 305 -11 q 230 2 266 -11 q 168 38 195 14 q 125 95 140 62 q 109 171 109 129 q 136 248 109 218 q 211 278 162 278 q 248 275 230 278 q 285 271 266 271 q 360 286 328 271 q 415 325 393 300 q 451 385 438 350 q 467 459 464 419 q 377 410 425 430 q 277 391 329 391 q 175 414 220 391 q 99 477 130 438 q 51 566 67 516 q 34 669 34 616 q 65 797 34 741 q 146 891 96 853 q 260 949 196 929 q 389 969 323 969 q 557 935 484 969 q 680 842 630 901 q 755 705 730 783 q 781 536 781 626 q 766 400 781 467 q 724 271 751 332 q 655 159 696 210 q 562 70 614 107 q 444 11 509 32 q 305 -11 380 -11 m 319 527 q 357 536 340 527 q 388 560 374 546 q 412 592 401 574 q 431 626 423 610 q 396 665 416 649 q 347 680 376 680 q 314 673 330 680 q 284 655 297 667 q 263 627 271 643 q 256 593 256 612 q 273 546 256 565 q 319 527 290 527 z "},"\u0000":{"ha":0,"x_min":0,"x_max":0,"o":""},"\r":{"ha":347,"x_min":0,"x_max":0,"o":""}," ":{"ha":345,"x_min":0,"x_max":0,"o":""}," ":{"ha":345,"x_min":0,"x_max":0,"o":""},"!":{"ha":385,"x_min":34,"x_max":351,"o":"m 184 0 q 135 7 158 0 q 93 29 111 15 q 65 64 75 43 q 54 113 54 85 q 70 152 54 136 q 107 177 85 168 q 154 191 130 186 q 196 195 178 195 q 236 191 214 195 q 277 179 258 188 q 309 155 296 170 q 321 117 321 140 q 310 67 321 90 q 278 31 298 45 q 234 8 259 16 q 184 0 210 0 m 176 257 q 138 261 157 257 q 103 275 119 266 q 76 299 87 284 q 61 335 65 314 q 44 464 50 399 q 36 595 39 529 q 34 726 34 661 q 34 857 34 792 q 48 908 34 887 q 85 943 62 930 q 135 963 107 957 q 188 969 162 969 q 242 962 214 969 q 295 941 271 956 q 335 905 319 927 q 351 852 351 883 q 347 727 351 789 q 336 602 342 665 q 325 477 330 539 q 320 352 320 414 q 305 309 320 327 q 269 279 290 291 q 222 262 247 268 q 176 257 197 257 z "},"\"":{"ha":456,"x_min":33,"x_max":422,"o":"m 323 566 q 282 576 301 566 q 258 610 262 587 q 245 729 248 669 q 241 849 241 789 q 243 899 241 877 q 252 937 244 921 q 278 961 260 952 q 330 969 296 969 q 361 965 345 969 q 391 954 378 962 q 413 933 404 946 q 422 903 422 921 q 419 832 422 867 q 413 761 416 796 q 407 690 410 726 q 404 620 404 655 q 396 595 404 606 q 375 579 387 585 q 349 569 363 572 q 323 566 334 566 m 115 566 q 73 576 92 566 q 49 610 54 587 q 36 732 39 670 q 33 854 33 793 q 35 902 33 880 q 45 938 37 923 q 71 961 54 953 q 121 969 89 969 q 152 965 136 969 q 182 954 168 962 q 205 933 196 945 q 214 903 214 920 q 211 832 214 867 q 204 761 208 796 q 198 691 201 726 q 195 620 195 656 q 187 596 195 606 q 167 579 179 586 q 140 569 155 572 q 115 566 126 566 z "},"#":{"ha":1000,"x_min":34,"x_max":966,"o":"m 682 3 q 615 22 644 3 q 581 81 587 41 q 571 168 574 123 q 567 256 569 212 l 452 254 q 449 175 451 214 q 448 97 448 136 q 436 56 448 73 q 405 26 424 38 q 365 8 387 14 q 322 3 342 3 q 256 22 284 3 q 221 81 227 41 q 212 165 214 123 q 208 250 210 208 l 100 250 q 70 260 82 250 q 49 288 57 271 q 37 322 41 304 q 34 355 34 340 q 42 408 34 389 q 63 438 50 428 q 96 452 77 449 q 138 455 115 455 q 169 454 153 455 q 202 454 185 454 l 201 532 l 108 532 q 73 541 87 532 q 51 564 59 549 q 38 596 42 578 q 34 631 34 614 q 37 665 34 646 q 49 699 41 683 q 70 726 57 715 q 100 737 82 737 l 200 736 l 200 857 q 212 906 200 885 q 242 942 223 928 q 286 962 261 956 q 335 969 310 969 q 387 962 361 969 q 433 940 412 954 q 466 903 453 925 q 478 852 478 881 q 477 792 478 821 q 475 732 476 763 q 517 731 496 732 q 560 731 538 731 l 559 857 q 571 906 559 885 q 601 941 582 927 q 644 962 620 956 q 694 969 669 969 q 746 962 721 969 q 792 940 772 954 q 825 903 812 925 q 838 852 838 881 q 837 789 838 820 q 834 726 836 758 q 885 725 861 725 q 927 716 909 724 q 955 691 945 709 q 966 637 966 673 q 955 578 966 597 q 925 552 944 559 q 881 545 906 545 q 826 545 855 545 l 821 442 q 881 441 854 441 q 927 434 908 441 q 956 408 945 427 q 966 349 966 389 q 953 292 966 311 q 920 267 941 274 q 871 261 899 260 q 812 260 843 261 q 809 179 810 220 q 807 97 807 138 q 795 56 807 73 q 765 26 783 38 q 724 8 746 14 q 682 3 702 3 m 562 448 l 561 538 l 466 536 l 462 450 l 562 448 z "},"$":{"ha":859,"x_min":34,"x_max":825,"o":"m 427 -134 q 369 -124 387 -134 q 343 -96 350 -114 q 339 -51 337 -77 q 340 8 340 -24 q 249 38 293 18 q 167 89 205 59 q 98 156 129 119 q 45 237 66 194 q 34 279 34 257 q 49 334 34 309 q 87 377 64 359 q 139 406 111 395 q 195 416 168 416 q 251 404 229 416 q 290 374 274 392 q 319 335 307 355 q 343 296 331 314 q 370 266 355 277 q 407 254 385 254 q 427 261 418 254 q 441 278 435 268 q 449 300 446 288 q 452 321 452 311 q 436 369 452 350 q 395 399 420 389 q 346 418 371 410 q 297 435 321 426 q 212 472 256 449 q 133 528 169 496 q 75 601 98 560 q 52 691 52 642 q 64 761 52 729 q 98 821 77 793 q 148 871 119 848 q 209 910 176 893 q 275 940 241 928 q 341 959 309 952 q 340 1005 340 983 q 340 1052 340 1028 q 349 1077 340 1067 q 371 1093 358 1087 q 399 1101 385 1099 q 427 1103 414 1103 q 454 1101 438 1103 q 485 1092 470 1098 q 509 1076 499 1086 q 519 1050 519 1065 q 518 1008 519 1029 q 513 966 516 987 q 611 943 565 960 q 697 899 658 926 q 767 833 736 871 q 818 745 798 794 q 823 729 821 737 q 825 711 825 720 q 807 661 825 682 q 763 628 789 640 q 707 609 736 615 q 653 604 677 604 q 601 609 621 604 q 570 623 582 614 q 553 644 559 632 q 540 669 547 656 q 525 696 534 682 q 498 722 516 709 q 471 739 486 732 q 440 745 456 745 q 399 731 415 745 q 384 691 384 717 q 398 641 384 661 q 437 609 413 622 q 493 587 461 595 q 561 569 526 578 q 632 549 596 560 q 701 520 668 538 q 761 475 734 502 q 804 409 787 449 q 816 369 811 389 q 821 328 821 349 q 795 209 821 262 q 726 115 769 155 q 628 47 683 74 q 513 9 572 20 q 518 -35 516 -13 q 519 -80 519 -58 q 509 -106 519 -96 q 485 -122 499 -116 q 454 -131 470 -128 q 427 -134 438 -134 z "},"%":{"ha":1048,"x_min":34,"x_max":1014,"o":"m 345 0 q 310 7 330 0 q 274 25 291 14 q 244 52 256 37 q 233 85 233 68 q 243 113 233 89 q 271 175 253 137 q 313 264 289 214 q 364 372 336 315 q 420 489 391 429 q 478 608 450 549 q 534 720 507 667 q 582 817 560 774 q 619 891 604 861 q 641 932 634 921 q 666 961 652 952 q 703 970 681 970 q 745 962 722 970 q 786 940 767 954 q 819 907 806 926 q 832 867 832 888 q 827 846 832 857 q 767 728 799 786 q 705 610 735 669 q 604 418 654 513 q 503 227 554 323 q 453 127 477 178 q 398 30 428 77 q 376 7 389 14 q 345 0 363 0 m 794 0 q 707 15 747 0 q 638 59 667 31 q 593 126 609 87 q 576 212 576 165 q 592 303 576 261 q 637 376 608 345 q 708 425 667 407 q 798 442 749 442 q 888 425 848 442 q 956 376 928 407 q 999 303 984 345 q 1014 214 1014 262 q 997 126 1014 166 q 951 59 981 87 q 882 16 922 31 q 794 0 842 0 m 802 134 q 824 143 815 134 q 837 164 832 152 q 843 191 842 177 q 845 214 845 205 q 843 240 845 224 q 837 271 842 256 q 823 297 832 286 q 801 308 814 308 q 778 297 787 308 q 764 271 769 286 q 757 240 759 256 q 755 214 755 224 q 758 190 755 203 q 765 163 760 176 q 779 142 770 151 q 802 134 788 134 m 252 529 q 165 544 205 529 q 96 587 125 559 q 51 654 67 615 q 34 741 34 693 q 50 831 34 789 q 95 904 66 873 q 166 953 125 935 q 256 971 207 971 q 346 954 307 971 q 414 905 386 936 q 457 832 442 874 q 472 743 472 791 q 455 655 472 695 q 409 588 439 616 q 340 545 380 560 q 252 529 300 529 m 260 663 q 282 672 273 663 q 295 693 290 681 q 301 720 300 706 q 303 743 303 734 q 301 769 303 753 q 295 800 300 785 q 281 826 290 815 q 259 837 273 837 q 236 826 245 837 q 222 800 227 815 q 215 769 217 785 q 214 743 214 753 q 216 719 214 732 q 223 692 218 705 q 237 671 228 680 q 260 663 246 663 z "},"&":{"ha":843,"x_min":34,"x_max":809,"o":"m 214 0 q 141 10 174 0 q 84 40 108 20 q 47 91 60 60 q 34 163 34 121 q 43 234 34 199 q 68 302 52 269 q 106 366 84 336 q 153 418 128 395 q 107 478 128 447 q 70 542 85 509 q 45 612 54 576 q 36 687 36 648 q 50 771 36 732 q 87 841 63 810 q 143 896 111 872 q 213 937 176 920 q 291 961 250 953 q 374 969 332 969 q 467 957 424 969 q 543 920 511 945 q 593 856 575 895 q 612 762 612 817 q 598 668 612 715 q 563 579 585 622 q 512 497 541 536 q 450 425 483 458 q 491 382 470 401 q 538 345 511 363 q 562 365 549 355 q 583 387 575 375 q 600 419 593 403 q 617 449 608 435 q 641 471 627 462 q 678 479 655 479 q 718 471 699 479 q 752 447 737 462 q 777 414 768 433 q 786 374 786 395 q 774 335 786 355 q 744 296 762 315 q 708 261 727 277 q 676 233 689 245 q 692 219 684 226 q 708 206 700 212 q 741 185 723 194 q 773 165 758 176 q 799 139 789 154 q 809 99 809 123 q 801 61 809 79 q 779 30 793 43 q 747 8 765 16 q 709 1 729 1 q 662 14 686 1 q 614 45 637 26 q 568 82 590 63 q 526 115 545 102 q 454 71 491 92 q 378 34 417 50 q 297 9 338 18 q 214 0 256 0 m 313 196 q 350 204 330 196 q 386 221 370 213 q 348 253 366 237 q 311 285 330 269 q 292 255 301 272 q 283 222 283 239 q 292 203 283 210 q 313 196 300 196 m 326 582 q 351 611 337 595 q 376 647 364 628 q 395 685 387 665 q 403 722 403 704 q 389 758 403 745 q 353 770 376 770 q 322 764 336 770 q 297 747 308 758 q 281 721 287 736 q 275 690 275 707 q 291 632 275 660 q 326 582 307 604 z "},"'":{"ha":248,"x_min":33,"x_max":214,"o":"m 115 566 q 74 576 93 566 q 50 610 54 587 q 37 729 40 669 q 33 849 33 789 q 35 899 33 877 q 44 937 36 921 q 70 961 52 952 q 121 969 88 969 q 153 965 137 969 q 183 954 170 962 q 205 933 196 946 q 214 903 214 921 q 211 832 214 867 q 205 761 208 796 q 199 690 201 726 q 196 620 196 655 q 188 595 196 606 q 167 579 179 585 q 140 569 155 572 q 115 566 126 566 z "},"(":{"ha":728,"x_min":34,"x_max":694,"o":"m 564 -186 q 551 -185 557 -186 q 538 -184 545 -185 q 385 -144 454 -175 q 259 -65 315 -113 q 161 44 203 -18 q 91 175 119 105 q 48 322 62 245 q 34 476 34 398 q 48 634 34 555 q 92 785 63 713 q 164 920 121 857 q 265 1031 208 983 q 394 1112 322 1080 q 551 1154 465 1144 q 564 1155 557 1154 q 577 1155 570 1155 q 623 1148 602 1155 q 660 1129 644 1142 q 685 1097 675 1116 q 694 1051 694 1078 q 686 1006 694 1027 q 664 969 678 985 q 631 942 650 953 q 588 926 612 930 q 523 900 549 919 q 474 850 496 882 q 431 765 448 812 q 402 668 413 718 q 387 567 392 617 q 382 471 382 516 q 387 381 382 429 q 400 286 391 334 q 427 194 410 238 q 468 115 444 150 q 513 67 488 84 q 574 43 538 50 q 617 28 598 39 q 651 0 637 17 q 672 -37 665 -16 q 680 -83 680 -58 q 671 -128 680 -109 q 646 -160 662 -147 q 609 -179 631 -173 q 564 -186 588 -186 z "},")":{"ha":728,"x_min":34,"x_max":694,"o":"m 163 -186 q 119 -179 140 -186 q 82 -160 98 -173 q 57 -128 66 -147 q 47 -83 47 -109 q 55 -37 47 -58 q 77 0 63 -16 q 110 28 91 17 q 153 43 130 39 q 224 76 194 51 q 275 138 254 102 q 310 219 296 175 q 331 308 323 263 q 342 396 339 353 q 345 471 345 438 q 341 567 345 516 q 326 668 336 618 q 297 765 315 718 q 254 850 279 812 q 205 900 231 882 q 140 926 178 919 q 97 942 117 930 q 63 969 77 953 q 42 1006 50 985 q 34 1051 34 1027 q 43 1097 34 1078 q 68 1129 52 1116 q 105 1148 84 1142 q 151 1155 126 1155 q 164 1155 157 1155 q 177 1154 170 1154 q 334 1112 262 1144 q 463 1031 405 1080 q 563 920 520 983 q 635 784 606 857 q 679 634 665 712 q 694 476 694 555 q 680 322 694 399 q 637 175 665 245 q 567 44 609 105 q 469 -65 525 -18 q 343 -144 413 -113 q 190 -184 273 -175 q 177 -185 183 -185 q 163 -186 170 -186 z "},"*":{"ha":378,"x_min":34,"x_max":344,"o":"m 92 610 q 72 615 81 610 q 55 628 62 620 q 43 645 47 635 q 38 665 38 654 q 46 689 38 676 q 64 713 54 701 q 86 736 75 726 q 106 753 98 747 q 86 769 98 760 q 62 786 74 777 q 42 806 50 795 q 34 827 34 817 q 37 847 34 837 q 46 867 40 858 q 60 881 52 876 q 79 886 68 886 q 95 883 87 886 q 112 875 104 880 q 128 865 121 871 q 142 856 136 860 l 140 936 q 145 952 140 945 q 157 962 150 958 q 174 967 165 966 q 190 969 182 969 q 207 967 197 969 q 224 961 216 965 q 238 950 233 957 q 243 934 243 943 q 242 897 243 916 q 239 861 240 879 q 264 877 250 868 q 292 886 277 886 q 311 882 302 886 q 328 870 321 878 q 339 854 335 863 q 344 834 344 844 q 335 809 344 821 q 313 786 326 797 q 288 767 300 775 q 267 752 275 758 q 286 735 275 744 q 306 716 296 726 q 321 694 315 706 q 328 670 328 683 q 325 651 328 661 q 316 633 321 641 q 302 620 310 625 q 283 615 294 615 q 259 624 273 615 q 231 644 245 633 q 205 668 217 656 q 186 686 193 680 q 167 668 180 681 q 138 643 153 656 q 110 620 123 630 q 92 610 97 610 z "},"+":{"ha":661,"x_min":34,"x_max":627,"o":"m 332 189 q 290 198 307 189 q 261 223 272 208 q 243 259 250 239 q 234 301 237 279 q 230 345 231 323 q 228 385 229 367 q 166 382 197 385 q 105 379 136 379 q 74 390 87 379 q 52 416 61 401 q 38 450 43 432 q 34 483 34 468 q 43 525 34 508 q 68 554 52 543 q 103 571 83 565 q 144 580 123 577 q 188 584 166 583 q 227 587 209 585 q 232 652 229 618 q 247 715 235 686 q 281 763 258 744 q 347 781 304 781 q 413 754 390 781 q 436 686 436 727 q 435 637 436 661 q 432 588 433 612 q 497 583 463 586 q 561 569 532 580 q 608 534 589 557 q 627 469 627 511 q 600 402 627 425 q 531 379 572 379 q 480 381 505 379 q 430 383 456 382 q 433 321 431 353 q 436 260 436 290 q 426 229 436 242 q 399 207 415 216 q 365 193 383 197 q 332 189 347 189 z "},",":{"ha":292,"x_min":34,"x_max":258,"o":"m 146 -151 q 123 -148 136 -151 q 98 -138 110 -144 q 79 -122 87 -132 q 71 -102 71 -113 q 80 -83 71 -98 q 99 -53 88 -69 q 119 -21 109 -37 q 133 0 130 -6 q 92 11 110 2 q 60 34 73 20 q 41 68 47 49 q 34 111 34 88 q 46 147 34 132 q 76 173 58 163 q 114 188 94 183 q 153 193 135 193 q 229 167 200 193 q 258 92 258 141 q 252 37 258 66 q 236 -19 245 9 q 214 -74 226 -47 q 191 -125 202 -101 q 173 -145 185 -140 q 146 -151 161 -151 z "},"-":{"ha":661,"x_min":34,"x_max":627,"o":"m 531 345 q 416 349 473 345 q 300 352 359 352 q 203 349 252 352 q 105 345 154 345 q 74 356 87 345 q 52 382 61 367 q 38 416 43 398 q 34 449 34 434 q 50 503 34 479 q 79 526 59 517 q 126 541 100 535 q 183 550 153 547 q 243 555 214 553 q 297 556 272 556 q 336 557 321 557 q 438 554 387 557 q 540 543 490 552 q 575 529 559 538 q 603 505 591 519 q 621 472 614 490 q 627 435 627 454 q 600 368 627 391 q 531 345 572 345 z "},"­":{"ha":661,"x_min":34,"x_max":627,"o":"m 531 345 q 416 349 473 345 q 300 352 359 352 q 203 349 252 352 q 105 345 154 345 q 74 356 87 345 q 52 382 61 367 q 38 416 43 398 q 34 449 34 434 q 50 503 34 479 q 79 526 59 517 q 126 541 100 535 q 183 550 153 547 q 243 555 214 553 q 297 556 272 556 q 336 557 321 557 q 438 554 387 557 q 540 543 490 552 q 575 529 559 538 q 603 505 591 519 q 621 472 614 490 q 627 435 627 454 q 600 368 627 391 q 531 345 572 345 z "},".":{"ha":290,"x_min":34,"x_max":256,"o":"m 142 0 q 97 8 117 0 q 63 32 77 17 q 41 66 49 46 q 34 111 34 87 q 46 148 34 133 q 75 173 58 163 q 114 188 93 183 q 152 192 134 192 q 188 188 170 192 q 221 175 206 184 q 246 151 237 165 q 256 116 256 137 q 248 70 256 91 q 224 33 239 49 q 188 9 209 18 q 142 0 168 0 z "},"/":{"ha":480,"x_min":34,"x_max":446,"o":"m 142 0 q 110 5 129 0 q 75 18 92 9 q 46 40 58 27 q 34 69 34 53 q 38 95 34 75 q 47 139 41 114 q 61 194 54 165 q 75 250 68 223 q 86 296 81 276 q 94 324 92 316 q 193 723 142 524 q 218 821 206 772 q 245 918 229 871 q 273 957 254 945 q 321 969 293 969 q 359 963 338 969 q 400 947 381 958 q 433 921 420 937 q 446 884 446 905 q 440 858 446 882 q 424 795 434 834 q 399 706 414 757 q 369 598 385 655 q 336 480 353 541 q 302 361 319 419 q 270 249 286 302 q 242 153 254 195 q 220 81 229 110 q 208 42 212 52 q 182 10 199 20 q 142 0 166 0 z "},":":{"ha":358,"x_min":68,"x_max":290,"o":"m 176 0 q 131 8 151 0 q 97 32 111 17 q 75 66 83 46 q 68 111 68 87 q 80 148 68 133 q 110 173 92 163 q 148 188 127 183 q 186 192 169 192 q 222 188 204 192 q 256 175 241 184 q 281 151 271 165 q 290 116 290 137 q 281 71 290 92 q 257 34 273 50 q 221 9 242 18 q 176 0 200 0 m 176 530 q 131 539 151 530 q 97 562 111 547 q 75 597 83 577 q 68 642 68 618 q 80 679 68 664 q 110 704 92 694 q 148 718 127 713 q 186 722 169 722 q 223 718 204 722 q 256 705 241 714 q 281 682 271 696 q 290 646 290 667 q 282 601 290 622 q 258 564 273 579 q 222 539 243 548 q 176 530 201 530 z "},";":{"ha":360,"x_min":68,"x_max":292,"o":"m 180 -151 q 157 -148 170 -151 q 133 -138 144 -144 q 113 -123 121 -132 q 105 -101 105 -113 q 114 -83 105 -97 q 133 -53 122 -69 q 154 -21 144 -36 q 168 0 164 -6 q 126 11 144 2 q 94 35 107 20 q 75 69 81 50 q 68 112 68 89 q 80 148 68 132 q 111 173 92 163 q 150 188 129 183 q 187 193 170 193 q 263 167 234 193 q 292 93 292 141 q 286 39 292 68 q 270 -19 279 10 q 248 -75 260 -47 q 226 -125 236 -102 q 207 -145 219 -140 q 180 -151 195 -151 m 176 530 q 131 539 151 530 q 97 563 111 547 q 75 598 83 578 q 68 643 68 618 q 80 680 68 665 q 110 704 92 694 q 149 718 127 713 q 186 722 170 722 q 223 718 204 722 q 256 705 241 714 q 281 682 271 696 q 290 646 290 667 q 282 600 290 621 q 258 564 273 579 q 222 539 243 548 q 176 530 201 530 z "},"<":{"ha":697,"x_min":34,"x_max":663,"o":"m 553 163 q 521 169 536 163 q 492 184 505 175 q 372 260 431 222 q 249 334 312 298 q 158 382 204 359 q 66 430 112 406 q 41 457 49 439 q 34 495 34 475 q 42 539 34 517 q 68 577 50 562 q 105 605 81 589 q 161 641 130 621 q 230 681 193 660 q 306 721 267 701 q 382 759 345 741 q 454 790 420 777 q 513 811 487 804 q 556 819 540 819 q 596 811 576 819 q 630 788 615 802 q 654 755 645 774 q 663 715 663 736 q 644 663 663 683 q 598 630 625 642 q 347 511 471 573 q 413 475 379 494 q 481 435 448 456 q 546 393 514 415 q 606 346 578 370 q 644 267 644 314 q 637 229 644 248 q 619 195 631 210 q 591 172 608 180 q 553 163 574 163 z "},"=":{"ha":661,"x_min":34,"x_max":627,"o":"m 531 503 q 415 506 473 503 q 299 509 357 509 q 202 506 250 509 q 105 503 154 503 q 75 512 88 503 q 53 537 62 522 q 39 568 43 551 q 34 600 34 585 q 50 650 34 627 q 79 671 59 663 q 127 685 100 680 q 184 694 154 691 q 244 699 215 697 q 298 700 273 700 q 338 701 323 701 q 439 699 387 701 q 540 688 491 697 q 574 675 558 684 q 602 653 590 666 q 620 623 614 640 q 627 587 627 606 q 619 550 627 566 q 598 523 612 534 q 568 508 585 513 q 531 503 551 503 m 531 282 q 417 285 473 282 q 304 288 361 288 q 204 285 254 288 q 105 282 155 282 q 75 292 88 282 q 53 316 62 302 q 39 348 43 331 q 34 380 34 366 q 50 430 34 408 q 79 451 59 442 q 124 465 98 459 q 179 474 150 471 q 237 478 209 477 q 290 480 265 479 q 331 480 315 480 q 436 478 383 480 q 540 467 488 477 q 574 455 558 464 q 602 433 590 446 q 620 403 614 420 q 627 366 627 386 q 619 329 627 345 q 598 303 612 313 q 568 287 585 292 q 531 282 551 282 z "},">":{"ha":697,"x_min":34,"x_max":663,"o":"m 144 163 q 106 172 123 163 q 78 195 90 180 q 60 229 66 210 q 54 267 54 248 q 91 346 54 314 q 151 393 119 370 q 216 435 183 415 q 284 475 250 456 q 351 511 318 494 q 99 630 227 573 q 53 663 73 642 q 34 715 34 684 q 43 755 34 736 q 67 788 52 774 q 101 811 82 802 q 141 819 121 819 q 184 811 157 819 q 243 790 210 804 q 315 759 277 777 q 391 721 353 741 q 467 681 430 701 q 536 641 504 660 q 592 605 568 621 q 629 577 616 589 q 655 539 647 562 q 663 495 663 517 q 656 457 663 475 q 631 430 648 439 q 539 382 585 406 q 448 334 493 359 q 326 260 385 298 q 205 184 267 222 q 176 169 192 175 q 144 163 160 163 z "},"?":{"ha":788,"x_min":34,"x_max":754,"o":"m 368 0 q 318 7 342 0 q 277 29 295 15 q 248 64 259 43 q 237 113 237 85 q 253 152 237 136 q 291 177 269 168 q 338 191 313 186 q 380 195 362 195 q 419 191 397 195 q 460 179 441 188 q 492 156 479 171 q 505 118 505 141 q 493 67 505 90 q 462 31 481 45 q 418 8 443 16 q 368 0 394 0 m 341 248 q 304 251 324 248 q 268 261 285 254 q 240 283 251 269 q 229 318 229 297 q 249 378 229 347 q 298 441 269 410 q 363 504 328 473 q 429 562 399 534 q 478 614 458 590 q 498 656 498 638 q 492 692 498 675 q 475 721 486 709 q 447 741 463 734 q 412 749 431 749 q 369 740 389 749 q 336 715 350 730 q 314 680 321 700 q 306 637 306 659 q 297 575 306 604 q 271 523 289 545 q 228 486 254 500 q 165 473 201 473 q 107 484 132 473 q 66 514 82 494 q 42 561 50 534 q 34 618 34 587 q 65 769 34 703 q 150 879 96 834 q 274 948 203 924 q 425 971 345 971 q 499 965 460 971 q 574 946 538 959 q 644 914 611 934 q 701 868 676 895 q 740 807 726 841 q 754 730 754 772 q 743 659 754 690 q 712 601 731 627 q 669 553 693 575 q 622 509 646 530 q 576 464 598 487 q 538 414 554 441 q 527 380 530 398 q 522 346 524 363 q 513 314 519 329 q 494 288 508 298 q 460 270 479 277 q 420 257 441 262 q 379 250 400 252 q 341 248 359 248 z "},"@":{"ha":1016,"x_min":34,"x_max":982,"o":"m 435 -11 q 265 25 340 -11 q 139 121 190 60 q 61 263 87 182 q 34 435 34 345 q 69 635 34 543 q 168 797 104 728 q 322 904 232 865 q 522 943 412 943 q 703 912 619 943 q 849 825 787 882 q 946 687 911 768 q 982 507 982 606 q 960 371 982 435 q 898 258 939 307 q 797 182 857 210 q 662 154 738 154 q 601 172 621 154 q 577 231 581 189 q 517 208 549 216 q 454 199 486 199 q 378 212 414 199 q 313 247 341 224 q 268 303 285 270 q 251 378 251 336 q 267 446 251 417 q 310 495 283 475 q 371 524 337 514 q 439 534 405 534 q 578 507 510 534 q 571 537 575 520 q 559 570 566 555 q 540 596 551 585 q 511 606 528 606 q 474 598 492 606 q 440 580 457 590 q 405 562 422 570 q 366 553 387 553 q 331 559 347 553 q 303 577 315 566 q 285 604 292 588 q 278 637 278 619 q 289 677 278 660 q 318 708 300 694 q 360 731 336 722 q 407 747 383 741 q 453 755 431 753 q 492 758 475 758 q 600 740 555 758 q 676 691 645 722 q 726 618 707 660 q 754 529 745 576 q 767 431 764 481 q 767 330 769 380 q 819 406 802 363 q 835 496 835 450 q 824 581 835 539 q 792 661 812 623 q 743 731 772 699 q 680 787 715 763 q 604 824 644 810 q 519 838 563 838 q 380 803 439 838 q 280 713 320 768 q 220 587 240 657 q 200 446 200 517 q 213 336 200 391 q 255 237 227 281 q 329 165 283 193 q 437 137 374 137 q 465 140 451 137 q 491 145 478 142 q 518 151 505 149 q 545 153 532 153 q 574 147 560 153 q 598 131 587 141 q 615 107 609 121 q 621 77 621 93 q 611 43 621 58 q 586 19 602 28 q 550 3 570 9 q 509 -6 530 -3 q 469 -10 488 -9 q 435 -11 450 -11 m 509 336 q 546 339 528 336 q 583 345 564 342 q 585 373 584 359 q 585 401 585 387 q 541 419 565 412 q 494 427 517 427 q 459 416 471 427 q 446 381 446 405 q 452 358 446 367 q 466 344 457 349 q 485 337 474 339 q 509 336 496 336 z "},"A":{"ha":925,"x_min":18,"x_max":897,"o":"m 688 7 q 630 15 657 7 q 583 39 603 23 q 550 80 562 56 q 538 137 538 104 q 538 228 538 183 q 539 319 538 273 q 469 320 504 320 q 398 321 433 321 l 396 134 q 376 76 395 100 q 329 37 357 52 q 268 15 300 22 q 207 7 235 7 q 136 16 170 7 q 76 43 102 24 q 34 90 50 61 q 18 159 18 119 q 23 248 18 203 q 34 339 27 294 q 51 429 41 385 q 71 516 60 474 q 103 621 85 568 q 148 725 122 675 q 206 820 173 776 q 281 897 239 864 q 374 950 323 930 q 487 969 425 969 q 596 946 547 969 q 686 882 646 922 q 758 788 726 842 q 812 673 789 734 q 851 547 836 612 q 878 418 867 481 q 892 298 888 355 q 897 195 897 241 q 879 118 897 153 q 833 58 862 83 q 766 20 804 33 q 688 7 728 7 m 541 510 q 541 539 541 519 q 538 585 541 559 q 533 639 536 611 q 523 689 529 667 q 507 727 516 712 q 484 742 497 742 q 459 728 470 742 q 439 691 448 713 q 425 641 431 668 q 414 588 418 614 q 408 542 410 563 q 405 511 406 521 q 473 511 439 511 q 541 510 507 511 z "},"B":{"ha":911,"x_min":43,"x_max":901,"o":"m 354 553 q 397 574 374 560 q 439 608 420 589 q 471 649 458 627 q 484 694 484 671 q 474 724 484 712 q 450 741 465 735 q 418 749 435 747 q 387 751 401 751 q 372 751 380 751 q 356 750 363 751 q 354 604 354 677 l 354 553 m 404 253 q 444 256 420 253 q 490 268 468 259 q 528 291 512 276 q 543 328 543 305 q 531 360 543 347 q 502 380 519 373 q 465 391 485 388 q 431 394 446 394 q 396 392 413 394 q 361 386 378 389 q 366 320 363 353 q 374 254 369 287 q 389 253 382 254 q 404 253 396 253 m 338 0 q 294 1 319 0 q 244 6 270 3 q 194 17 219 10 q 148 36 169 24 q 111 64 126 47 q 88 103 95 81 q 64 220 73 155 q 51 353 55 286 q 45 487 46 421 q 43 608 43 553 q 43 679 43 642 q 43 753 43 715 q 46 827 44 790 q 54 897 49 863 q 72 929 56 916 q 110 953 87 943 q 159 968 132 962 q 213 977 186 974 q 263 982 240 981 q 301 983 286 983 q 394 977 343 983 q 497 959 445 972 q 598 926 549 947 q 686 874 648 905 q 747 803 724 844 q 770 707 770 762 q 750 621 770 660 q 694 551 730 581 q 772 520 734 540 q 838 472 809 500 q 884 408 867 444 q 901 326 901 371 q 892 265 901 294 q 868 210 884 236 q 807 135 844 168 q 726 80 770 103 q 633 41 682 56 q 533 17 583 26 q 432 4 482 7 q 338 0 382 0 z "},"C":{"ha":805,"x_min":16,"x_max":802,"o":"m 428 -10 q 255 22 332 -10 q 125 112 178 54 q 44 249 72 170 q 16 422 16 328 q 33 567 16 497 q 82 697 50 636 q 160 808 114 758 q 263 894 205 858 q 389 949 321 930 q 533 969 456 969 q 616 959 578 969 q 683 927 655 949 q 727 871 711 905 q 743 787 743 836 q 720 707 743 735 q 643 680 696 680 q 600 683 621 680 q 556 687 578 687 q 472 671 509 687 q 409 628 435 656 q 371 561 384 600 q 357 476 357 522 q 365 413 357 448 q 388 347 372 378 q 429 295 404 316 q 489 274 454 274 q 542 288 519 274 q 584 319 564 302 q 626 350 604 336 q 679 363 648 363 q 730 350 707 363 q 769 316 753 337 q 793 269 785 295 q 802 217 802 243 q 784 138 802 172 q 736 79 766 104 q 667 36 706 54 q 587 9 628 19 q 504 -6 545 -1 q 428 -10 463 -10 z "},"D":{"ha":846,"x_min":43,"x_max":812,"o":"m 370 289 q 433 327 405 304 q 480 380 460 350 q 510 445 500 410 q 521 517 521 479 q 510 592 521 557 q 477 656 498 627 q 426 704 456 684 q 356 732 395 724 q 354 607 354 669 q 358 448 354 527 q 370 289 361 369 m 337 0 q 270 3 309 0 q 194 18 231 7 q 127 49 157 28 q 89 103 98 69 q 64 224 73 160 q 50 355 55 289 q 44 486 45 420 q 43 610 43 551 q 44 753 43 680 q 54 897 44 827 q 72 933 57 919 q 110 957 87 948 q 159 970 132 966 q 213 975 186 974 q 264 976 239 977 q 304 976 288 976 q 504 946 411 976 q 665 859 596 917 q 773 714 734 800 q 812 515 812 628 q 797 382 812 447 q 752 260 781 317 q 681 155 723 203 q 586 73 639 107 q 471 19 534 39 q 337 0 408 0 z "},"E":{"ha":783,"x_min":43,"x_max":782,"o":"m 326 -10 q 253 -7 292 -10 q 177 8 213 -3 q 112 42 140 20 q 73 104 84 65 q 61 165 66 130 q 52 243 56 201 q 47 329 49 284 q 44 415 45 373 q 43 495 43 457 q 43 561 43 532 q 43 607 43 576 q 45 677 43 638 q 50 759 47 716 q 59 839 53 802 q 75 903 65 876 q 98 939 84 930 q 135 952 111 947 q 189 962 159 958 q 250 969 218 966 q 312 972 282 971 q 368 974 342 973 q 409 974 393 974 q 509 972 460 974 q 609 969 559 971 q 709 930 677 966 q 740 826 740 895 q 735 782 740 807 q 720 733 730 756 q 693 695 710 711 q 652 680 676 680 q 636 682 644 680 q 621 687 629 684 q 518 722 568 709 q 410 734 468 734 q 375 733 393 734 q 340 730 357 732 l 339 654 l 340 575 q 387 585 359 578 q 444 599 415 592 q 497 612 472 606 q 536 618 522 618 q 577 610 558 618 q 612 589 597 602 q 635 556 627 575 q 644 515 644 538 q 631 470 644 488 q 598 440 618 452 q 554 425 578 429 q 508 420 530 420 q 425 428 465 420 q 344 444 385 435 q 350 349 347 396 q 359 254 354 302 q 490 287 429 265 q 614 339 551 309 q 627 344 621 342 q 641 346 633 346 q 697 324 671 346 q 742 270 723 302 q 771 203 761 238 q 782 142 782 168 q 755 64 782 92 q 680 29 728 37 q 504 3 592 16 q 326 -10 415 -10 z "},"F":{"ha":755,"x_min":37,"x_max":755,"o":"m 244 -4 q 173 9 206 -4 q 116 52 140 23 q 85 110 98 72 q 64 195 73 148 q 50 295 55 243 q 41 398 44 348 q 38 491 39 448 q 37 562 37 534 q 42 720 37 654 q 63 831 47 786 q 107 905 79 877 q 181 947 136 932 q 291 967 227 962 q 445 972 356 972 q 544 971 494 972 q 644 968 594 971 q 696 952 675 966 q 731 916 718 938 q 750 868 744 895 q 755 814 755 842 q 751 767 755 795 q 736 715 747 740 q 709 672 726 690 q 667 654 692 654 q 651 657 659 654 q 637 663 644 659 q 534 701 585 688 q 426 714 484 714 q 380 712 404 714 q 374 553 374 633 q 448 567 411 561 q 524 574 485 574 q 570 569 546 574 q 614 554 594 565 q 647 525 634 543 q 660 479 660 507 q 651 438 660 456 q 627 406 642 419 q 593 384 612 392 q 552 376 574 376 q 513 381 536 376 q 467 392 491 386 q 419 406 442 399 q 377 416 395 412 q 388 259 380 336 q 405 102 395 181 l 406 96 q 388 52 406 71 q 345 20 370 33 q 292 2 320 8 q 244 -4 264 -4 z "},"G":{"ha":857,"x_min":11,"x_max":830,"o":"m 441 0 q 315 20 374 0 q 209 74 256 39 q 124 155 161 108 q 62 258 87 202 q 24 375 37 313 q 11 498 11 436 q 48 698 11 610 q 151 846 85 785 q 308 938 217 906 q 507 970 399 970 q 591 961 547 970 q 670 930 634 951 q 728 876 705 909 q 751 792 751 842 q 746 755 751 774 q 730 721 741 736 q 705 696 720 706 q 669 686 690 686 q 630 692 652 686 q 583 704 608 697 q 532 715 558 710 q 483 721 507 721 q 414 704 442 721 q 368 660 385 688 q 342 598 350 633 q 334 528 334 564 q 338 479 334 507 q 351 422 342 451 q 371 366 359 393 q 401 316 384 338 q 441 282 418 295 q 491 269 463 269 q 536 278 517 269 q 569 305 555 288 q 589 343 582 321 q 596 388 595 365 q 556 374 577 382 q 515 366 535 366 q 473 378 490 366 q 445 410 456 391 q 429 451 434 429 q 424 494 424 474 q 427 526 424 509 q 436 557 429 543 q 454 584 443 572 q 483 597 466 595 q 554 606 517 604 q 625 609 590 609 q 711 601 673 609 q 776 574 749 593 q 816 520 802 554 q 830 433 830 486 q 806 264 830 343 q 732 126 781 185 q 611 34 684 68 q 441 0 538 0 z "},"H":{"ha":905,"x_min":37,"x_max":853,"o":"m 662 -5 q 615 2 641 -5 q 566 22 589 9 q 528 54 543 35 q 512 98 512 73 l 513 105 q 524 214 519 160 q 533 323 530 268 q 457 322 495 323 q 382 319 420 321 q 392 212 386 265 q 404 105 397 159 l 404 98 q 387 53 404 73 q 345 21 370 34 q 292 2 320 8 q 243 -5 264 -5 q 173 9 205 -5 q 115 53 140 24 q 86 105 99 72 q 65 179 74 138 q 52 266 57 220 q 43 353 46 311 q 38 434 39 396 q 37 496 37 471 q 39 591 37 543 q 47 688 41 640 q 61 783 52 736 q 85 875 71 831 q 135 945 100 920 q 218 970 170 970 q 283 958 253 970 q 336 923 313 945 q 373 871 359 901 q 386 807 386 842 q 384 781 386 795 q 375 675 377 728 q 372 568 372 622 l 373 510 q 457 512 416 511 q 541 513 498 513 l 542 572 q 539 676 542 625 q 531 781 536 728 q 530 794 530 788 q 530 807 530 800 q 541 870 530 840 q 573 922 553 899 q 623 957 594 944 q 685 970 651 970 q 760 947 725 970 q 797 900 781 932 q 822 825 812 867 q 839 736 833 783 q 848 643 845 688 q 852 559 851 597 q 853 496 853 520 q 852 433 853 471 q 848 353 851 396 q 840 266 845 311 q 827 180 835 220 q 808 106 819 139 q 781 53 796 73 q 729 10 759 24 q 662 -5 699 -5 z "},"I":{"ha":535,"x_min":8,"x_max":532,"o":"m 84 21 q 36 53 52 29 q 20 109 20 77 q 24 140 20 122 q 37 174 28 158 q 57 201 45 190 q 87 212 70 212 q 109 211 98 212 q 130 209 119 210 q 113 345 119 277 q 103 483 106 414 q 100 621 100 552 q 99 759 99 690 q 87 758 93 758 q 75 758 81 758 q 45 768 58 758 q 24 795 33 779 q 12 829 16 811 q 8 861 8 847 q 12 889 8 875 q 23 915 16 903 q 49 937 31 928 q 90 952 66 946 q 140 961 113 958 q 192 967 167 965 q 240 969 218 968 q 277 969 262 969 q 325 969 298 969 q 378 967 351 969 q 431 958 406 964 q 476 939 456 951 q 508 905 496 926 q 519 853 519 884 q 494 789 519 812 q 429 766 469 766 q 418 588 421 677 q 415 411 415 500 q 418 307 415 359 q 417 203 421 254 l 442 203 q 507 180 482 203 q 532 117 532 157 q 511 52 532 75 q 457 17 490 28 q 388 3 425 5 q 317 0 350 0 q 200 3 258 0 q 84 21 142 5 z "},"J":{"ha":730,"x_min":16,"x_max":690,"o":"m 280 -6 q 225 -2 255 -6 q 167 9 196 1 q 111 31 138 18 q 62 63 83 44 q 29 106 41 81 q 16 163 16 132 q 21 206 16 182 q 37 253 26 231 q 64 290 47 275 q 105 305 81 305 q 135 301 119 305 q 168 291 151 296 q 203 281 185 286 q 240 277 222 277 q 298 291 276 277 q 331 328 319 305 q 346 380 342 351 q 350 437 350 408 q 337 589 350 513 q 309 739 324 665 q 267 728 294 736 q 213 713 241 721 q 160 700 184 706 q 125 694 136 694 q 82 707 101 694 q 51 739 64 720 q 32 781 39 758 q 26 825 26 804 q 40 885 26 861 q 77 925 54 909 q 131 950 100 941 q 193 963 161 959 q 257 968 225 967 q 315 969 289 969 q 417 965 366 969 q 513 944 469 961 q 591 895 557 928 q 640 802 625 861 q 677 621 664 714 q 690 437 690 528 q 663 262 690 343 q 583 121 635 181 q 455 28 531 62 q 280 -6 378 -6 z "},"K":{"ha":817,"x_min":43,"x_max":817,"o":"m 208 -1 q 141 12 171 -1 q 89 55 111 25 q 70 102 77 71 q 57 171 62 132 q 48 251 52 209 q 44 333 45 294 q 43 406 43 372 q 43 458 43 439 q 47 667 43 561 q 70 875 52 773 q 87 916 74 899 q 118 945 100 934 q 158 963 136 957 q 202 968 180 968 q 259 959 233 968 q 305 933 286 950 q 336 891 325 916 q 347 835 347 867 q 344 762 347 798 q 340 689 340 726 l 341 646 q 393 712 369 677 q 438 783 416 747 q 480 855 460 819 q 522 928 500 892 q 595 970 546 970 q 647 959 622 970 q 693 930 673 948 q 725 887 713 911 q 738 836 738 863 q 727 791 738 816 q 697 738 715 766 q 656 683 679 711 q 611 631 633 656 q 567 585 588 606 q 532 551 546 564 q 606 515 570 538 q 674 461 642 492 q 732 395 705 431 q 777 318 758 358 q 806 237 795 279 q 817 155 817 195 q 803 87 817 116 q 766 39 789 58 q 711 10 743 20 q 643 1 680 1 q 600 5 626 1 q 550 18 574 9 q 508 42 526 27 q 491 79 491 57 q 493 134 491 106 q 494 188 494 161 q 494 223 494 201 q 493 271 494 245 q 487 323 491 296 q 474 371 482 349 q 453 406 466 393 q 420 420 439 420 q 387 416 403 420 q 355 408 370 413 q 370 262 361 334 q 387 118 378 191 l 387 111 q 378 78 387 94 q 354 50 369 62 q 319 28 338 37 q 280 12 300 18 q 241 2 260 5 q 208 -1 222 -1 z "},"L":{"ha":710,"x_min":40,"x_max":718,"o":"m 354 -9 q 311 -7 336 -9 q 258 -2 286 -6 q 202 8 231 1 q 151 25 174 14 q 110 51 127 36 q 87 87 93 66 q 64 210 73 142 q 50 350 55 278 q 42 491 44 421 q 40 617 40 560 q 42 722 40 669 q 50 827 43 774 q 100 933 58 897 q 214 968 143 968 q 270 962 237 968 q 333 941 302 955 q 384 906 363 928 q 406 856 406 885 q 399 778 406 818 q 390 701 393 739 q 378 534 382 616 q 374 367 374 451 q 375 328 374 347 q 376 289 375 309 q 465 321 422 302 q 551 362 507 340 q 563 368 557 366 q 577 370 570 370 q 618 358 600 370 q 653 327 637 346 q 681 282 669 307 q 701 232 692 258 q 713 183 709 207 q 718 141 718 159 q 696 87 718 111 q 642 48 675 64 q 568 20 609 31 q 486 3 527 9 q 411 -6 446 -3 q 354 -9 376 -9 z "},"M":{"ha":1123,"x_min":31,"x_max":1086,"o":"m 209 -7 q 118 14 153 -7 q 63 68 83 35 q 37 146 44 102 q 31 236 31 191 q 40 391 31 307 q 67 562 50 476 q 110 729 85 648 q 168 873 136 810 q 228 936 189 914 q 312 958 266 958 q 390 939 353 958 q 446 882 426 920 q 479 811 464 848 q 507 736 494 774 q 531 659 520 698 q 553 584 543 621 q 604 739 575 661 q 673 886 633 817 q 728 940 693 922 q 804 958 764 958 q 889 936 850 958 q 948 873 927 914 q 1006 729 981 810 q 1049 562 1031 648 q 1076 391 1067 476 q 1086 236 1086 307 q 1084 179 1086 207 q 1076 126 1083 151 q 1054 78 1069 100 q 1014 37 1040 56 q 956 6 987 18 q 890 -5 924 -5 q 839 3 863 -5 q 796 26 814 11 q 766 63 778 41 q 753 114 755 85 q 740 291 745 203 q 725 469 734 380 q 690 312 709 391 q 671 228 681 269 q 653 143 662 186 q 646 103 649 123 q 637 62 643 82 q 625 40 633 49 q 604 25 616 31 q 578 18 592 20 q 553 16 565 16 q 525 18 540 16 q 496 26 510 20 q 472 41 482 32 q 457 65 461 51 q 445 125 450 94 q 435 185 440 155 q 410 311 423 248 q 384 436 397 373 q 369 274 374 354 q 357 111 364 193 q 341 60 354 82 q 308 23 328 38 q 262 0 288 8 q 209 -7 237 -7 z "},"N":{"ha":905,"x_min":43,"x_max":847,"o":"m 208 -1 q 141 12 171 -1 q 89 55 111 24 q 70 101 77 71 q 57 168 62 131 q 48 248 52 205 q 44 329 45 290 q 43 402 43 368 q 43 456 43 435 q 47 666 43 559 q 70 875 52 773 q 86 916 74 899 q 116 945 98 933 q 154 962 133 956 q 198 967 176 967 q 270 952 236 967 q 328 906 304 937 q 386 824 359 867 q 439 737 414 781 q 488 647 465 692 q 535 558 512 602 q 520 704 528 632 q 503 850 512 777 l 503 857 q 523 905 503 884 q 571 940 543 926 q 630 962 599 954 q 682 969 661 969 q 749 956 719 969 q 801 913 779 943 q 820 867 812 897 q 833 798 828 836 q 841 717 838 760 q 845 635 844 675 q 847 563 846 596 q 847 511 847 530 q 842 301 847 408 q 819 93 837 195 q 802 52 815 69 q 772 23 789 35 q 732 6 754 12 q 688 0 711 0 q 625 12 656 0 q 572 50 593 24 q 512 139 543 87 q 453 248 481 191 q 398 360 424 304 q 350 460 372 416 q 367 289 357 373 q 387 118 376 204 l 387 111 q 367 63 387 84 q 319 28 347 42 q 260 6 291 14 q 208 -1 229 -1 z "},"O":{"ha":892,"x_min":16,"x_max":859,"o":"m 436 5 q 259 41 337 5 q 127 140 181 78 q 44 287 73 203 q 16 464 16 370 q 28 587 16 526 q 65 704 41 648 q 125 809 90 760 q 208 893 161 857 q 313 949 255 928 q 438 969 370 969 q 565 949 507 969 q 669 894 623 929 q 751 811 716 859 q 811 707 787 763 q 847 589 835 651 q 859 465 859 528 q 830 287 859 371 q 747 141 801 203 q 614 41 692 78 q 436 5 535 5 m 439 311 q 504 328 477 311 q 549 371 532 345 q 575 431 567 397 q 584 496 584 464 q 576 561 584 527 q 553 623 569 595 q 511 670 536 652 q 448 688 485 688 q 379 668 408 688 q 333 617 351 648 q 307 550 315 587 q 299 480 299 513 q 308 419 299 449 q 334 365 317 389 q 377 326 351 340 q 439 311 404 311 z "},"P":{"ha":770,"x_min":43,"x_max":756,"o":"m 207 -1 q 140 12 170 -1 q 88 55 110 25 q 69 101 77 71 q 56 169 61 131 q 48 249 51 207 q 44 330 45 291 q 43 401 43 369 q 43 453 43 434 q 47 665 43 557 q 70 875 52 772 q 96 929 76 910 q 143 957 116 948 q 202 967 171 966 q 262 968 234 968 q 363 963 309 968 q 473 944 418 958 q 578 909 528 931 q 669 855 629 888 q 732 777 709 822 q 756 672 756 732 q 738 584 756 625 q 689 509 720 543 q 617 447 658 475 q 533 398 577 419 q 445 361 490 376 q 361 338 400 347 q 373 228 366 283 q 387 118 380 173 l 387 112 q 367 64 387 85 q 319 28 347 43 q 259 6 290 14 q 207 -1 229 -1 m 345 534 q 390 554 366 541 q 434 584 414 566 q 469 623 455 601 q 482 669 482 644 q 470 704 482 690 q 441 725 458 718 q 404 735 424 732 q 367 737 383 737 l 341 736 l 340 685 q 342 610 340 647 q 345 534 343 572 z "},"Q":{"ha":895,"x_min":16,"x_max":859,"o":"m 722 -77 q 676 -67 701 -77 q 628 -42 652 -57 q 583 -11 604 -28 q 545 19 561 5 q 436 5 492 5 q 260 41 338 5 q 128 140 182 78 q 44 286 73 203 q 16 462 16 369 q 28 585 16 524 q 64 703 40 647 q 125 808 89 760 q 208 892 161 857 q 312 949 254 928 q 439 969 370 969 q 565 949 507 969 q 669 894 623 929 q 751 811 715 859 q 811 708 787 764 q 847 591 835 652 q 859 467 859 530 q 834 294 859 378 q 749 143 808 211 q 773 115 759 130 q 800 84 787 100 q 822 52 812 68 q 831 19 831 35 q 821 -20 831 -3 q 796 -50 812 -37 q 761 -70 781 -63 q 722 -77 741 -77 m 439 311 q 505 328 477 311 q 550 371 532 345 q 576 431 568 397 q 585 496 585 464 q 577 562 585 528 q 554 624 570 595 q 512 670 538 652 q 448 688 486 688 q 380 668 408 688 q 334 617 352 648 q 308 550 316 587 q 300 480 300 513 q 309 419 300 449 q 335 365 317 389 q 378 326 352 340 q 439 311 404 311 z "},"R":{"ha":839,"x_min":43,"x_max":819,"o":"m 346 527 q 400 544 370 532 q 457 574 431 556 q 503 617 484 593 q 521 670 521 641 q 509 705 521 692 q 480 726 498 718 q 443 735 463 733 q 407 738 423 738 q 374 736 391 738 q 342 732 358 735 l 341 680 q 342 604 341 642 q 346 527 344 566 m 208 -1 q 141 12 171 -1 q 89 55 111 25 q 70 102 77 71 q 57 170 62 132 q 48 250 52 208 q 44 332 45 292 q 43 404 43 371 q 43 456 43 437 q 47 666 43 559 q 71 875 52 773 q 87 914 75 898 q 118 940 100 930 q 157 956 136 950 q 201 964 179 961 q 246 967 224 966 q 286 967 268 967 q 388 962 332 967 q 501 944 444 957 q 611 910 557 932 q 705 856 664 889 q 771 778 746 823 q 795 671 795 732 q 780 589 795 627 q 738 519 764 551 q 679 462 712 488 q 609 416 645 436 q 683 372 646 397 q 751 313 720 346 q 800 241 781 280 q 819 157 819 201 q 801 88 819 117 q 754 40 783 59 q 690 11 726 20 q 621 1 655 1 q 590 3 607 1 q 557 11 573 5 q 530 27 542 17 q 514 54 518 37 q 498 128 505 90 q 482 203 492 166 q 459 276 473 241 q 423 343 446 312 q 362 331 393 335 q 368 280 364 311 q 377 218 372 250 q 384 158 381 186 q 387 111 387 129 q 378 78 387 94 q 354 50 369 62 q 319 28 338 37 q 280 12 300 18 q 241 2 260 5 q 208 -1 222 -1 z "},"S":{"ha":836,"x_min":14,"x_max":806,"o":"m 401 0 q 286 17 342 0 q 180 66 229 35 q 92 141 132 97 q 25 237 52 184 q 14 279 14 257 q 29 334 14 309 q 67 377 44 359 q 119 406 91 395 q 175 416 148 416 q 232 404 209 416 q 271 374 254 392 q 299 335 287 355 q 323 296 311 314 q 351 266 336 277 q 387 254 366 254 q 407 261 399 254 q 421 278 416 268 q 430 300 427 288 q 433 321 433 312 q 416 370 433 350 q 375 400 399 389 q 327 418 351 410 q 277 435 302 426 q 193 472 236 449 q 114 528 149 496 q 55 601 78 560 q 32 691 32 642 q 51 779 32 739 q 100 849 69 818 q 173 902 132 880 q 258 940 214 925 q 348 962 302 955 q 433 969 393 969 q 548 956 492 969 q 652 915 604 942 q 738 845 700 887 q 798 745 776 803 q 804 729 802 737 q 806 711 806 720 q 788 661 806 682 q 743 628 770 641 q 687 609 717 615 q 634 604 658 604 q 582 609 602 604 q 552 623 563 614 q 534 644 541 632 q 521 668 528 655 q 506 695 515 682 q 479 722 496 709 q 451 739 466 732 q 420 745 437 745 q 380 731 395 745 q 364 691 364 717 q 378 641 364 661 q 417 609 393 622 q 474 587 441 595 q 541 569 506 578 q 612 549 576 560 q 681 520 648 538 q 741 475 714 502 q 785 408 768 448 q 797 367 792 388 q 802 326 802 347 q 785 230 802 274 q 739 150 768 186 q 670 85 709 113 q 587 39 631 58 q 494 10 542 20 q 401 0 447 0 z "},"T":{"ha":827,"x_min":-18,"x_max":840,"o":"m 431 -1 q 365 12 395 -1 q 313 55 334 25 q 293 101 301 71 q 280 171 286 132 q 273 251 275 209 q 269 333 270 294 q 267 406 267 373 q 267 458 267 439 q 269 576 267 518 q 275 694 271 634 q 188 686 232 691 q 102 680 144 680 q 53 689 75 680 q 15 715 31 699 q -9 754 -1 731 q -18 803 -18 777 q 9 888 -18 851 q 81 941 35 926 q 153 957 110 951 q 242 965 196 962 q 331 969 288 968 q 406 970 375 970 q 517 968 462 970 q 629 962 573 966 q 703 955 665 960 q 770 937 740 951 q 820 895 801 922 q 840 819 840 868 q 832 773 840 796 q 812 731 825 750 q 779 700 798 712 q 733 688 759 688 q 725 689 729 688 q 718 690 722 689 q 641 697 679 695 q 565 701 604 699 l 565 681 q 579 399 565 540 q 610 118 593 258 l 611 111 q 602 78 611 94 q 577 50 593 62 q 543 28 562 37 q 504 12 524 18 q 465 2 484 5 q 431 -1 446 -1 z "},"U":{"ha":868,"x_min":27,"x_max":825,"o":"m 415 -1 q 281 28 339 -1 q 179 106 222 58 q 107 219 136 155 q 60 352 78 283 q 35 490 43 420 q 27 619 27 559 q 29 698 27 657 q 37 777 31 739 q 57 851 43 816 q 93 912 70 886 q 151 954 116 939 q 235 969 186 969 q 285 964 257 969 q 337 946 313 958 q 379 915 362 934 q 396 869 396 896 q 391 822 396 846 q 381 775 385 797 q 357 634 367 704 q 347 491 347 564 q 349 436 347 467 q 361 378 351 406 q 389 332 370 351 q 440 313 408 313 q 475 330 463 313 q 493 370 488 347 q 500 417 499 393 q 502 456 502 441 q 494 585 502 522 q 477 713 486 649 q 468 772 472 742 q 463 832 463 802 q 481 891 463 866 q 527 934 500 917 q 587 960 555 951 q 649 969 620 969 q 692 964 671 969 q 730 949 713 960 q 761 923 748 939 q 781 885 774 907 q 814 726 804 808 q 825 564 825 644 q 816 433 825 500 q 787 303 807 366 q 736 185 768 240 q 659 88 704 130 q 553 23 613 47 q 415 -1 492 -1 z "},"V":{"ha":868,"x_min":19,"x_max":841,"o":"m 434 7 q 317 32 369 7 q 223 98 264 56 q 151 197 182 140 q 97 318 119 254 q 59 451 74 382 q 35 586 44 519 q 23 712 26 652 q 19 821 19 772 q 35 886 19 859 q 76 932 50 914 q 134 960 101 951 q 201 969 167 969 q 260 962 229 969 q 316 940 290 955 q 357 900 341 924 q 374 843 374 876 q 371 698 374 770 q 369 553 369 626 q 369 515 369 542 q 371 455 370 488 q 377 385 373 421 q 388 318 381 349 q 406 269 395 288 q 433 250 417 250 q 446 255 440 250 q 457 267 452 260 q 466 282 462 274 q 471 296 469 290 q 489 364 483 323 q 499 455 496 406 q 503 558 502 505 q 504 664 504 612 q 505 761 505 715 q 507 840 505 806 q 520 895 509 870 q 550 936 531 919 q 595 961 570 952 q 651 970 621 970 q 725 957 690 970 q 785 919 760 943 q 826 862 811 895 q 841 788 841 828 q 836 689 841 745 q 820 569 831 632 q 791 440 808 507 q 750 312 774 374 q 695 194 726 250 q 624 97 663 138 q 538 32 585 56 q 434 7 490 7 z "},"W":{"ha":1240,"x_min":25,"x_max":1202,"o":"m 814 7 q 700 37 749 7 q 614 119 650 66 q 528 37 577 66 q 413 7 478 7 q 301 30 351 7 q 212 90 251 52 q 144 179 173 128 q 94 289 115 231 q 60 411 74 348 q 39 535 47 474 q 29 653 32 597 q 26 756 26 710 q 25 787 26 772 q 26 817 25 802 q 44 881 28 853 q 85 929 60 909 q 142 958 111 948 q 208 968 174 968 q 273 959 242 968 q 327 930 304 949 q 363 883 350 911 q 377 819 377 854 q 375 782 377 800 q 370 745 372 764 q 356 629 361 687 q 351 511 351 571 q 351 486 351 502 q 353 451 351 470 q 358 414 355 433 q 368 379 361 395 q 385 354 374 364 q 410 345 395 345 q 440 363 428 345 q 461 411 453 382 q 474 475 469 439 q 480 543 478 510 q 483 603 482 576 q 483 642 483 630 q 481 720 483 682 q 475 798 479 759 q 474 807 475 802 q 473 817 473 812 q 487 862 473 842 q 522 894 501 881 q 567 914 543 907 q 614 921 592 921 q 660 914 635 921 q 706 894 685 907 q 740 862 726 881 q 754 817 754 842 q 753 808 754 813 q 752 800 753 804 q 747 726 748 763 q 745 652 745 689 q 746 613 745 642 q 748 549 746 585 q 754 474 750 513 q 767 403 759 435 q 788 349 775 370 q 821 328 802 328 q 845 338 835 328 q 861 362 854 347 q 871 396 867 378 q 877 434 875 415 q 879 469 878 452 q 879 494 879 485 q 873 619 879 557 q 859 743 868 681 q 853 781 856 762 q 850 819 850 800 q 864 883 850 854 q 901 930 878 911 q 955 959 924 949 q 1019 968 985 968 q 1085 958 1053 968 q 1142 929 1117 948 q 1183 881 1167 909 q 1201 817 1199 853 q 1202 787 1202 802 q 1202 756 1202 772 q 1199 653 1202 710 q 1188 535 1196 597 q 1167 411 1181 474 q 1133 289 1154 348 q 1084 179 1113 231 q 1016 90 1055 128 q 927 30 977 52 q 814 7 877 7 z "},"X":{"ha":864,"x_min":5,"x_max":852,"o":"m 222 1 q 156 13 189 1 q 97 46 123 25 q 53 97 70 68 q 37 161 37 127 q 48 212 37 183 q 77 274 59 241 q 118 341 96 307 q 163 406 140 374 q 206 464 186 437 q 240 508 227 490 q 150 614 195 562 q 54 714 104 665 q 19 760 32 735 q 5 816 5 785 q 17 870 5 843 q 47 919 28 897 q 92 954 66 941 q 146 968 117 968 q 176 962 161 968 q 203 947 191 957 q 316 846 262 903 q 421 734 370 789 q 511 841 465 786 q 606 941 556 895 q 636 960 620 953 q 672 967 653 967 q 732 953 703 967 q 785 917 762 939 q 823 865 808 895 q 838 806 838 836 q 828 759 838 780 q 802 718 818 737 q 713 613 756 666 q 627 506 669 561 q 664 464 642 489 q 711 408 686 438 q 761 345 736 378 q 806 280 786 312 q 839 220 827 249 q 852 169 852 191 q 835 105 852 135 q 791 52 818 75 q 732 16 765 29 q 667 3 699 3 q 634 8 650 3 q 608 28 619 14 q 579 66 593 45 q 553 106 566 86 q 496 182 524 144 q 439 257 468 219 q 365 146 400 202 q 292 33 329 91 q 262 7 280 14 q 222 1 243 1 z "},"Y":{"ha":818,"x_min":2,"x_max":799,"o":"m 412 -1 q 323 21 354 -1 q 277 78 292 43 q 261 156 263 113 q 258 243 258 200 q 260 327 258 286 q 263 411 261 369 q 154 458 202 427 q 72 533 105 490 q 20 632 38 577 q 2 751 2 687 q 11 841 2 801 q 42 910 20 882 q 101 953 64 938 q 193 968 138 968 q 243 963 214 968 q 298 947 272 958 q 342 917 323 936 q 360 871 360 899 q 354 830 360 851 q 339 785 347 808 q 325 738 332 762 q 319 686 319 713 q 323 648 319 668 q 338 610 328 627 q 363 582 348 593 q 400 570 378 570 q 434 580 420 570 q 457 605 448 590 q 470 639 466 621 q 473 673 473 657 q 468 727 473 700 q 456 782 463 755 q 444 834 449 809 q 438 881 438 859 q 448 911 438 898 q 475 934 458 924 q 512 950 492 944 q 553 961 532 957 q 592 967 574 966 q 623 969 611 969 q 660 967 640 969 q 698 959 680 965 q 732 942 717 953 q 755 915 748 932 q 787 818 776 870 q 799 717 799 766 q 784 613 799 660 q 739 530 768 567 q 669 467 710 494 q 574 424 627 441 q 580 263 576 343 q 585 102 585 182 q 565 57 585 76 q 519 25 546 37 q 462 6 492 12 q 412 -1 433 -1 z "},"Z":{"ha":831,"x_min":18,"x_max":818,"o":"m 387 -2 q 318 1 356 -2 q 241 12 280 4 q 164 34 201 20 q 99 70 127 48 q 52 122 70 92 q 35 193 35 153 q 55 280 35 233 q 109 376 76 327 q 184 473 142 425 q 269 566 227 522 q 350 647 311 610 q 416 709 389 684 q 300 666 356 690 q 186 616 243 642 q 170 611 178 613 q 153 608 161 608 q 96 629 121 608 q 53 680 71 650 q 27 744 36 709 q 18 804 18 778 q 42 869 18 842 q 102 915 65 896 q 186 945 140 934 q 279 963 233 957 q 366 972 325 970 q 433 974 407 974 q 526 971 479 974 q 616 958 572 969 q 698 924 660 947 q 765 860 736 901 q 787 817 779 840 q 795 769 795 793 q 784 718 795 741 q 751 676 772 695 q 582 501 661 591 q 427 313 503 411 q 526 343 479 326 q 622 383 573 361 q 637 389 629 387 q 653 391 644 391 q 699 379 677 391 q 739 350 721 368 q 772 307 758 331 q 797 258 787 283 q 812 208 807 233 q 818 162 818 183 q 792 106 818 131 q 726 64 766 82 q 635 33 685 45 q 538 13 586 20 q 449 1 490 5 q 387 -2 409 -2 z "},"[":{"ha":649,"x_min":34,"x_max":615,"o":"m 326 -184 q 207 -172 256 -184 q 126 -129 158 -159 q 77 -52 94 -100 q 53 66 60 -4 q 38 276 43 171 q 34 486 34 380 q 38 695 34 591 q 53 905 43 800 q 77 1023 60 975 q 126 1100 94 1071 q 207 1143 158 1130 q 326 1156 256 1156 q 364 1155 345 1156 q 402 1154 383 1155 q 450 1154 425 1154 q 498 1151 475 1154 q 544 1143 522 1149 q 581 1123 565 1137 q 606 1088 597 1110 q 615 1034 615 1067 q 608 986 615 1012 q 588 939 602 961 q 555 902 574 917 q 509 888 535 888 l 477 888 q 410 888 443 888 q 343 888 377 887 q 338 687 340 787 q 336 486 336 587 q 338 285 336 385 q 343 84 340 185 l 382 85 q 446 84 414 85 q 509 84 477 83 q 554 70 534 85 q 587 33 574 55 q 608 -15 601 11 q 615 -62 615 -41 q 606 -117 615 -96 q 581 -152 597 -139 q 544 -172 565 -165 q 498 -180 522 -178 q 450 -182 475 -182 q 402 -183 425 -182 q 364 -184 383 -184 q 326 -184 345 -184 z "},"\\":{"ha":480,"x_min":34,"x_max":446,"o":"m 338 0 q 298 10 314 0 q 273 42 281 20 q 260 81 269 52 q 238 153 251 110 q 210 249 226 195 q 178 361 195 302 q 144 480 161 419 q 111 598 127 541 q 81 706 95 655 q 56 795 66 757 q 40 858 46 834 q 34 884 34 882 q 47 921 34 905 q 80 947 60 937 q 121 963 99 958 q 159 969 142 969 q 207 958 188 969 q 235 918 227 946 q 262 821 251 870 q 287 723 274 772 q 387 324 338 524 q 394 296 389 316 q 406 249 399 275 q 419 194 412 223 q 433 140 427 165 q 443 95 439 115 q 446 69 446 76 q 434 40 446 53 q 406 18 422 27 q 370 5 389 9 q 338 0 351 0 z "},"]":{"ha":649,"x_min":34,"x_max":615,"o":"m 322 -184 q 284 -184 303 -184 q 247 -183 266 -184 q 199 -182 224 -182 q 150 -180 174 -182 q 105 -172 126 -178 q 68 -153 84 -165 q 43 -118 52 -140 q 34 -62 34 -96 q 41 -16 34 -41 q 61 33 47 10 q 94 70 75 55 q 140 84 114 85 q 158 83 149 84 q 176 83 167 83 q 241 84 209 83 q 305 84 273 85 q 310 285 309 185 q 312 486 312 385 q 310 687 312 587 q 305 888 309 787 l 257 887 q 198 887 227 887 q 140 888 170 888 q 94 902 114 888 q 61 939 74 917 q 41 986 47 960 q 34 1034 34 1012 q 43 1089 34 1067 q 68 1124 52 1111 q 105 1143 84 1137 q 150 1151 126 1149 q 199 1154 174 1154 q 247 1154 224 1154 q 284 1155 266 1155 q 322 1156 303 1156 q 441 1143 393 1156 q 522 1100 490 1130 q 571 1023 554 1071 q 595 905 589 975 q 610 696 606 800 q 615 486 615 591 q 610 275 615 380 q 595 66 606 171 q 571 -52 589 -4 q 522 -129 554 -100 q 441 -172 490 -159 q 322 -184 393 -184 z "},"^":{"ha":578,"x_min":34,"x_max":544,"o":"m 438 464 q 417 466 428 464 q 395 471 406 467 q 376 483 385 475 q 363 500 368 490 q 328 590 345 545 q 289 679 310 634 q 251 590 268 634 q 215 500 233 545 q 202 483 211 490 q 183 471 194 475 q 162 466 173 467 q 140 464 151 464 q 103 469 122 464 q 69 483 85 473 q 44 508 54 493 q 34 544 34 523 q 42 596 34 565 q 65 665 51 628 q 96 740 79 701 q 131 814 113 779 q 166 879 149 849 q 195 926 183 908 q 236 959 211 948 q 289 970 262 970 q 341 959 316 970 q 383 926 367 948 q 413 879 396 908 q 447 813 429 849 q 483 739 465 778 q 513 664 500 701 q 535 596 527 627 q 544 543 544 564 q 534 508 544 523 q 509 483 524 492 q 475 469 494 473 q 438 464 456 464 z "},"_":{"ha":661,"x_min":34,"x_max":627,"o":"m 531 -157 q 412 -154 471 -157 q 294 -151 353 -151 q 199 -154 246 -151 q 105 -157 152 -157 q 76 -148 89 -157 q 53 -126 62 -139 q 39 -97 44 -113 q 34 -66 34 -81 q 50 -20 34 -41 q 80 0 59 -9 q 127 13 100 8 q 184 21 154 18 q 244 26 215 24 q 297 27 273 27 q 336 28 321 28 q 438 26 387 28 q 539 15 490 24 q 573 4 557 12 q 601 -16 589 -4 q 620 -44 612 -28 q 627 -79 627 -60 q 618 -115 627 -100 q 597 -139 610 -130 q 567 -153 584 -149 q 531 -157 549 -157 z "},"`":{"ha":360,"x_min":34,"x_max":326,"o":"m 253 970 q 209 977 233 970 q 161 998 185 985 q 114 1029 136 1011 q 73 1066 91 1046 q 45 1108 56 1086 q 34 1151 34 1130 q 39 1180 34 1166 q 55 1205 45 1194 q 78 1221 64 1215 q 107 1227 92 1227 q 156 1212 135 1227 q 193 1176 177 1196 q 311 1041 248 1106 q 321 1027 317 1035 q 326 1010 326 1020 q 318 990 326 998 q 299 978 310 983 q 275 971 288 973 q 253 970 262 970 z "},"a":{"ha":872,"x_min":20,"x_max":840,"o":"m 656 -1 q 623 1 641 -1 q 589 9 606 3 q 559 25 573 15 q 538 50 545 35 q 443 13 492 26 q 342 0 393 0 q 221 19 279 0 q 119 74 163 37 q 47 162 74 110 q 20 281 20 214 q 46 389 20 342 q 113 466 71 435 q 207 514 154 498 q 315 530 260 530 q 428 518 372 530 q 538 486 484 506 q 526 535 532 507 q 508 587 519 562 q 479 628 497 611 q 431 645 460 645 q 373 632 400 645 q 320 603 347 618 q 264 574 293 587 q 201 561 235 561 q 148 571 172 561 q 104 598 123 581 q 75 639 85 615 q 64 692 64 663 q 81 756 64 728 q 127 805 99 784 q 193 842 156 827 q 267 866 229 857 q 340 881 304 876 q 403 885 376 885 q 559 861 492 885 q 675 795 627 838 q 755 696 724 753 q 806 572 787 639 q 832 431 825 505 q 840 283 840 357 q 839 190 840 237 q 831 97 838 142 q 808 51 827 70 q 763 21 789 33 q 708 4 736 9 q 656 -1 679 -1 m 429 215 q 488 219 458 215 q 546 229 517 224 q 549 274 547 252 q 551 319 550 297 q 481 348 519 336 q 407 359 443 359 q 350 342 370 359 q 330 287 330 325 q 338 251 330 265 q 361 229 347 237 q 393 218 375 221 q 429 215 411 215 z "},"b":{"ha":859,"x_min":41,"x_max":844,"o":"m 422 274 q 463 279 442 274 q 501 294 484 283 q 529 321 518 304 q 540 361 540 338 q 532 395 540 380 q 511 419 524 410 q 482 433 498 429 q 448 438 465 438 q 415 435 431 438 q 384 426 399 431 q 386 351 385 388 q 391 276 388 314 q 422 274 407 274 m 272 -2 q 205 7 236 -2 q 150 43 174 16 q 113 106 129 66 q 85 196 97 146 q 64 300 73 245 q 51 408 56 355 q 44 506 46 460 q 41 583 41 551 q 46 713 41 646 q 66 843 50 781 q 94 899 74 875 q 140 938 113 922 q 199 961 168 954 q 260 968 230 968 q 315 962 288 968 q 365 941 342 956 q 401 905 387 927 q 415 852 415 883 q 414 838 415 844 q 412 824 414 831 q 397 719 403 771 q 387 612 391 666 q 469 632 428 625 q 553 640 510 640 q 668 617 615 640 q 761 557 722 595 q 822 465 800 518 q 844 349 844 412 q 825 224 844 286 q 767 112 805 161 q 675 31 730 62 q 551 0 621 0 q 472 12 511 0 q 397 44 433 24 q 373 21 387 30 q 341 6 358 12 q 306 0 324 1 q 272 -2 288 -2 z "},"c":{"ha":814,"x_min":20,"x_max":817,"o":"m 494 0 q 313 27 399 0 q 161 107 227 54 q 58 239 96 161 q 20 420 20 318 q 60 614 20 528 q 170 761 101 700 q 331 854 239 821 q 524 887 422 887 q 572 886 546 887 q 625 880 598 884 q 678 866 652 875 q 724 843 704 858 q 756 808 744 829 q 768 758 768 787 q 758 708 768 735 q 731 658 748 682 q 692 618 714 634 q 645 602 669 602 q 622 606 635 602 q 595 615 610 610 q 566 624 581 620 q 534 628 551 628 q 464 611 495 628 q 412 566 433 594 q 380 504 391 538 q 369 432 369 469 q 376 376 369 403 q 399 329 384 349 q 438 296 415 308 q 494 283 462 283 q 544 291 519 283 q 592 307 568 298 q 640 323 616 316 q 691 331 665 331 q 744 321 720 331 q 783 295 767 312 q 808 254 800 277 q 817 201 817 230 q 806 141 817 170 q 777 87 795 113 q 720 40 754 57 q 648 14 686 22 q 569 2 609 5 q 494 0 529 0 z "},"d":{"ha":899,"x_min":20,"x_max":847,"o":"m 688 -1 q 644 4 665 -1 q 604 21 622 9 q 571 48 585 32 q 549 87 557 64 q 450 23 503 47 q 334 0 396 0 q 206 30 264 0 q 106 108 148 59 q 42 219 65 157 q 20 349 20 282 q 42 466 20 413 q 103 558 64 519 q 196 618 142 597 q 313 640 250 640 q 426 626 371 640 q 533 590 481 612 q 519 720 526 656 q 503 850 511 784 l 503 856 q 523 904 503 883 q 571 940 543 925 q 630 962 600 954 q 683 969 661 969 q 749 956 720 969 q 802 913 779 943 q 821 867 813 897 q 834 799 829 837 q 842 719 839 761 q 845 637 844 676 q 847 566 846 598 q 847 514 847 533 q 846 410 847 464 q 843 302 846 357 q 834 195 840 248 q 820 93 829 142 q 803 52 815 69 q 772 22 790 34 q 732 4 754 10 q 688 -1 710 -1 m 458 279 q 504 282 481 279 q 549 290 527 285 q 549 343 549 316 q 547 396 548 370 q 486 424 517 412 q 420 435 454 435 q 386 431 404 435 q 353 417 368 427 q 329 394 338 408 q 319 361 319 380 q 334 321 319 336 q 371 296 349 305 q 416 283 392 287 q 458 279 440 279 z "},"e":{"ha":795,"x_min":21,"x_max":799,"o":"m 393 533 q 436 536 412 533 q 479 547 459 538 q 514 570 500 555 q 528 610 528 585 q 511 644 528 633 q 473 654 494 654 q 423 644 447 654 q 377 618 399 634 q 338 582 356 602 q 307 542 320 562 q 393 533 349 533 m 460 0 q 280 36 361 0 q 141 133 199 71 q 53 279 84 195 q 21 460 21 363 q 50 630 21 552 q 132 765 79 708 q 260 854 184 822 q 429 886 335 886 q 542 870 487 886 q 640 821 597 854 q 709 740 683 789 q 734 627 734 692 q 707 510 734 560 q 636 425 680 459 q 534 374 591 391 q 416 357 477 357 q 356 361 386 357 q 298 370 327 364 q 327 301 304 328 q 397 275 351 275 q 472 289 437 275 q 541 319 508 302 q 605 350 574 336 q 667 363 636 363 q 722 351 697 363 q 763 319 746 339 q 790 273 781 299 q 799 218 799 246 q 783 142 799 175 q 741 86 768 110 q 680 45 715 62 q 608 19 646 28 q 532 4 570 9 q 460 0 494 0 z "},"f":{"ha":795,"x_min":0,"x_max":793,"o":"m 304 -2 q 271 0 288 -2 q 239 8 254 3 q 182 53 205 20 q 146 129 160 87 q 124 215 132 172 q 113 290 117 258 q 65 293 86 290 q 30 307 45 297 q 8 336 16 317 q 0 385 0 355 q 6 432 0 410 q 25 471 12 454 q 57 497 37 488 q 103 507 76 507 q 105 581 103 543 q 114 655 108 618 q 132 727 121 692 q 162 795 144 762 q 284 923 209 877 q 456 969 360 969 q 586 951 524 969 q 693 898 647 934 q 766 807 739 862 q 793 678 793 753 q 780 631 793 652 q 746 596 767 610 q 700 574 726 581 q 651 566 675 566 q 610 574 625 566 q 587 594 595 582 q 575 623 579 607 q 569 657 572 640 q 561 691 566 674 q 545 722 556 708 q 524 741 536 733 q 496 749 511 749 q 459 738 475 749 q 432 709 444 727 q 414 667 421 690 q 402 621 406 644 q 396 576 398 597 q 395 540 395 555 l 395 511 q 446 512 416 511 q 510 512 477 513 q 577 506 543 511 q 637 489 610 500 q 680 457 663 477 q 696 405 696 437 q 675 352 696 372 q 622 329 653 333 q 516 317 569 321 q 410 307 463 312 q 423 208 415 257 q 441 111 431 159 q 443 94 443 102 q 429 51 443 68 q 394 21 415 33 q 350 4 374 9 q 304 -2 326 -2 z "},"g":{"ha":825,"x_min":12,"x_max":790,"o":"m 433 -41 q 344 -32 391 -41 q 254 -2 297 -22 q 174 46 210 17 q 115 115 137 76 q 107 140 107 126 q 125 184 107 163 q 169 221 143 205 q 223 245 195 236 q 272 254 252 254 q 312 244 299 254 q 333 222 324 234 q 351 200 341 210 q 383 190 361 190 q 427 206 408 190 q 461 245 447 222 q 483 294 475 268 q 490 341 490 321 q 488 366 490 353 q 399 343 444 351 q 307 334 353 334 q 196 352 249 334 q 101 403 142 370 q 36 484 60 436 q 12 594 12 532 q 38 716 12 662 q 108 809 64 770 q 211 867 153 847 q 334 888 269 888 q 416 879 376 888 q 495 853 456 869 q 535 878 513 869 q 581 888 557 888 q 651 862 621 888 q 706 793 682 836 q 745 700 729 751 q 771 596 761 648 q 786 499 781 545 q 790 425 790 454 q 782 311 790 368 q 756 202 774 254 q 711 106 739 151 q 644 29 684 62 q 552 -23 604 -4 q 433 -41 500 -41 m 409 515 q 445 518 427 515 q 479 528 463 522 q 472 594 476 561 q 462 660 467 627 q 447 661 454 661 q 433 661 440 661 q 395 657 415 661 q 358 645 375 654 q 329 621 340 635 q 317 584 317 606 q 326 552 317 566 q 348 531 334 539 q 377 519 361 523 q 409 515 393 515 z "},"h":{"ha":857,"x_min":42,"x_max":847,"o":"m 273 -2 q 206 7 237 -2 q 151 43 175 16 q 114 107 130 66 q 85 197 98 147 q 65 301 73 246 q 52 408 57 356 q 44 506 47 460 q 42 583 42 552 q 46 714 42 647 q 66 843 51 781 q 94 898 74 875 q 141 937 114 922 q 199 961 168 953 q 260 968 230 968 q 315 962 288 968 q 365 942 342 956 q 401 906 387 928 q 415 852 415 884 q 414 838 415 845 q 412 824 414 831 q 397 717 403 770 q 387 609 391 664 q 424 646 404 629 q 465 676 443 663 q 512 697 487 690 q 563 705 536 705 q 643 685 608 705 q 707 633 679 666 q 757 556 736 600 q 794 463 779 512 q 820 362 810 414 q 836 261 830 310 q 845 170 842 212 q 847 96 847 127 q 829 50 847 68 q 785 21 810 32 q 730 6 759 11 q 680 2 701 2 q 638 5 662 2 q 593 18 614 9 q 557 42 572 26 q 543 81 542 58 q 544 127 543 104 q 545 173 545 150 q 545 208 545 184 q 542 259 544 231 q 534 317 539 288 q 522 372 530 347 q 501 412 513 396 q 472 427 489 427 q 446 417 457 427 q 427 390 435 406 q 414 353 419 373 q 405 312 408 332 q 401 275 402 292 q 399 247 399 257 q 402 209 399 228 q 407 171 404 190 q 413 134 410 153 q 415 97 415 115 q 402 45 415 65 q 370 15 390 26 q 325 1 350 5 q 273 -2 299 -2 z "},"i":{"ha":422,"x_min":44,"x_max":376,"o":"m 199 774 q 145 781 173 774 q 96 801 118 787 q 59 836 73 814 q 44 888 44 857 q 64 928 44 912 q 111 952 83 943 q 167 965 138 962 q 214 969 196 969 q 257 966 231 969 q 306 955 282 963 q 345 932 329 947 q 361 892 361 917 q 346 839 361 861 q 307 802 331 817 q 254 781 283 788 q 199 774 225 774 m 191 -7 q 149 -2 170 -7 q 111 18 127 3 q 84 75 95 33 q 66 174 73 117 q 55 297 59 231 q 50 424 52 362 q 49 537 49 486 q 49 619 49 589 q 63 671 49 650 q 100 706 78 692 q 150 726 123 720 q 203 732 178 732 q 260 726 231 732 q 312 706 288 720 q 350 669 335 692 q 366 615 366 647 q 373 366 370 490 q 376 117 376 242 q 358 55 376 79 q 314 17 341 31 q 255 -2 288 3 q 191 -7 222 -7 z "},"j":{"ha":719,"x_min":-17,"x_max":687,"o":"m 311 -36 q 220 -26 267 -36 q 130 2 174 -17 q 50 51 87 22 q -9 119 14 80 q -17 144 -17 131 q 1 189 -17 168 q 45 225 19 210 q 99 250 71 241 q 147 259 127 259 q 176 254 165 259 q 194 242 187 250 q 207 227 201 235 q 219 212 212 219 q 235 200 225 205 q 260 195 244 195 q 305 210 286 195 q 336 247 323 224 q 355 299 348 271 q 366 358 362 328 q 370 414 369 387 q 371 459 371 441 q 369 526 371 492 q 364 592 368 559 q 355 642 361 615 q 349 690 349 668 q 368 724 349 710 q 414 746 387 738 q 467 759 440 755 q 509 763 494 763 q 541 761 525 763 q 572 753 557 759 q 600 738 587 747 q 621 714 613 728 q 651 646 639 683 q 672 571 664 610 q 683 494 680 532 q 687 420 687 455 q 677 304 687 361 q 648 196 668 247 q 597 103 628 146 q 525 30 567 60 q 430 -19 484 -1 q 311 -36 376 -36 m 443 774 q 390 781 417 774 q 340 801 362 787 q 303 836 317 814 q 289 888 289 857 q 309 928 289 912 q 356 952 328 943 q 412 965 383 962 q 458 969 441 969 q 502 966 476 969 q 550 955 527 963 q 590 932 574 947 q 606 892 606 917 q 591 839 606 861 q 551 802 575 817 q 498 781 527 788 q 443 774 469 774 z "},"k":{"ha":820,"x_min":52,"x_max":825,"o":"m 216 -1 q 150 12 180 -1 q 98 55 119 25 q 78 101 86 71 q 65 169 71 132 q 58 249 60 207 q 54 330 55 291 q 52 401 52 368 q 52 453 52 434 q 57 665 52 558 q 79 875 62 772 q 96 916 83 899 q 127 945 109 934 q 168 963 146 957 q 212 968 189 968 q 269 959 242 968 q 315 933 295 950 q 346 891 334 916 q 357 835 357 867 q 353 761 357 798 q 350 687 350 724 l 351 643 q 392 689 374 665 q 428 739 411 713 q 460 791 445 764 q 492 844 475 817 q 566 886 516 886 q 617 875 592 886 q 663 846 643 865 q 695 804 683 828 q 708 753 708 780 q 692 693 708 723 q 653 636 677 663 q 604 586 630 609 q 555 546 577 563 q 659 483 610 525 q 745 388 708 441 q 804 274 782 335 q 825 155 825 214 q 812 87 825 116 q 775 39 799 58 q 721 10 752 20 q 652 1 689 1 q 610 5 635 1 q 559 18 584 9 q 518 42 535 27 q 500 79 500 57 q 505 159 500 120 q 510 239 510 199 q 507 297 510 266 q 493 353 504 328 q 463 396 483 379 q 408 414 442 414 q 385 412 396 414 q 363 408 374 410 q 379 262 370 334 q 396 118 387 191 l 397 111 q 377 63 397 84 q 328 28 357 42 q 269 6 300 14 q 216 -1 238 -1 z "},"l":{"ha":452,"x_min":42,"x_max":415,"o":"m 273 -2 q 206 7 237 -2 q 151 43 175 16 q 114 106 130 66 q 85 196 98 146 q 65 300 73 245 q 52 408 57 355 q 44 506 47 460 q 42 583 42 551 q 46 713 42 646 q 66 843 51 781 q 94 898 75 875 q 141 937 114 922 q 199 961 168 953 q 260 968 230 968 q 315 962 288 968 q 365 942 342 956 q 401 906 387 928 q 415 852 415 884 q 414 838 415 845 q 412 824 414 831 q 384 473 384 649 q 390 306 384 389 q 410 140 396 223 q 413 121 412 131 q 414 102 414 112 q 402 51 414 71 q 371 19 391 31 q 325 2 351 7 q 273 -2 300 -2 z "},"m":{"ha":1345,"x_min":43,"x_max":1317,"o":"m 256 -5 q 190 1 223 -5 q 130 26 157 7 q 97 67 111 41 q 73 128 83 94 q 57 200 63 162 q 48 276 52 239 q 44 345 45 313 q 43 400 43 378 q 45 494 43 444 q 55 595 48 545 q 72 695 62 646 q 98 785 83 744 q 124 830 107 811 q 162 862 140 849 q 208 881 183 875 q 260 888 233 888 q 310 881 285 888 q 354 862 334 875 q 387 829 374 849 q 404 781 401 809 q 464 801 433 794 q 527 808 494 808 q 651 775 597 808 q 734 680 705 743 q 772 752 749 715 q 827 819 795 789 q 895 868 858 849 q 974 888 932 888 q 1083 865 1036 888 q 1165 805 1131 843 q 1224 719 1200 768 q 1264 615 1249 669 q 1288 507 1280 562 q 1301 404 1297 452 q 1313 255 1309 330 q 1317 106 1317 180 q 1300 58 1317 77 q 1259 26 1284 38 q 1207 10 1235 15 q 1156 5 1179 5 q 1106 9 1133 5 q 1056 26 1079 14 q 1016 56 1032 37 q 996 102 999 75 q 992 168 994 130 q 990 249 991 206 q 988 336 989 292 q 984 420 987 380 q 978 496 982 461 q 966 553 973 530 q 956 576 963 564 q 934 588 949 588 q 908 571 920 588 q 888 527 897 555 q 873 464 880 500 q 863 389 867 428 q 856 312 859 351 q 851 239 852 273 q 848 180 849 205 q 846 142 846 155 q 830 95 844 115 q 797 62 817 75 q 752 43 777 50 q 702 37 727 37 q 646 44 675 37 q 595 66 618 52 q 558 104 572 81 q 543 159 543 127 q 542 239 543 193 q 537 334 541 286 q 524 427 532 382 q 499 502 515 472 q 492 514 496 507 q 483 527 488 521 q 472 536 478 532 q 458 540 465 540 q 425 520 439 540 q 401 470 411 500 q 386 402 392 439 q 377 330 380 366 q 373 267 374 295 q 372 225 372 238 q 374 163 372 194 q 376 100 376 132 q 368 51 376 71 q 343 18 359 31 q 305 1 327 6 q 256 -5 283 -5 z "},"n":{"ha":998,"x_min":41,"x_max":965,"o":"m 224 0 q 174 5 199 0 q 129 26 149 11 q 95 67 109 40 q 71 128 81 94 q 55 201 61 162 q 46 276 50 239 q 42 346 43 313 q 41 400 41 378 q 44 495 41 445 q 53 596 47 545 q 70 695 60 646 q 96 785 81 743 q 122 829 106 810 q 161 861 139 848 q 208 881 182 874 q 258 887 233 887 q 310 880 284 887 q 356 860 336 873 q 390 824 377 846 q 403 774 403 803 q 401 758 403 766 q 399 743 399 751 q 447 800 421 773 q 502 846 472 826 q 565 877 531 865 q 638 888 600 888 q 761 857 709 888 q 849 775 813 826 q 908 659 886 724 q 943 525 930 593 q 960 390 956 456 q 964 271 964 324 q 965 208 964 242 q 960 139 965 173 q 941 77 955 106 q 899 32 927 49 q 844 9 873 16 q 785 2 815 2 q 720 10 754 2 q 658 36 686 18 q 611 79 629 53 q 593 142 593 105 q 593 187 593 164 q 594 232 594 210 q 593 282 594 248 q 589 358 592 316 q 579 444 585 399 q 561 524 572 488 q 533 583 549 560 q 492 606 516 606 q 475 602 483 606 q 459 591 467 597 q 447 577 452 585 q 437 562 441 569 q 397 461 410 517 q 379 347 384 406 q 376 229 375 288 q 377 121 377 170 q 364 64 377 87 q 330 27 351 41 q 281 6 309 13 q 224 0 254 0 z "},"o":{"ha":937,"x_min":20,"x_max":909,"o":"m 460 -1 q 282 35 363 -1 q 142 132 201 71 q 52 277 84 194 q 20 456 20 361 q 54 637 20 557 q 150 772 89 717 q 293 858 210 828 q 473 888 376 888 q 650 852 570 888 q 788 753 730 816 q 877 608 846 691 q 909 430 909 525 q 875 251 909 330 q 782 115 842 171 q 640 29 722 59 q 460 -1 557 -1 m 484 313 q 542 330 519 313 q 578 374 564 347 q 597 431 591 400 q 603 490 603 463 q 597 552 603 517 q 578 618 592 587 q 541 669 565 648 q 481 690 517 690 q 422 672 447 690 q 380 626 397 654 q 356 566 364 599 q 348 505 348 534 q 356 441 348 475 q 380 379 363 408 q 422 332 397 351 q 484 313 448 313 z "},"p":{"ha":867,"x_min":44,"x_max":846,"o":"m 274 -83 q 207 -74 238 -83 q 152 -38 176 -65 q 115 25 131 -15 q 87 115 99 65 q 66 219 75 164 q 53 326 58 274 q 46 424 48 378 q 44 500 44 469 q 48 632 44 565 q 68 762 53 699 q 96 818 77 794 q 143 857 116 841 q 200 880 170 872 q 262 888 231 888 q 321 880 292 888 q 374 855 349 872 q 463 880 418 871 q 555 888 509 888 q 671 867 618 888 q 763 806 724 845 q 824 715 802 768 q 846 600 846 662 q 823 469 846 530 q 756 365 799 409 q 654 295 713 321 q 524 270 595 270 q 454 277 489 270 q 387 298 420 284 q 395 178 389 237 q 412 60 401 119 q 415 41 414 50 q 416 22 416 32 q 404 -30 416 -9 q 372 -62 392 -50 q 327 -78 352 -74 q 274 -83 301 -83 m 423 522 q 464 527 443 522 q 502 542 485 532 q 530 569 519 553 q 541 610 541 586 q 534 643 541 629 q 514 668 526 658 q 485 683 501 677 q 451 688 469 688 q 404 680 428 688 q 394 603 398 642 q 389 525 391 564 q 423 522 404 522 z "},"q":{"ha":856,"x_min":13,"x_max":816,"o":"m 435 523 q 453 524 445 523 q 471 526 462 524 q 467 603 470 564 q 458 680 464 641 q 409 687 433 687 q 375 682 392 687 q 346 667 359 677 q 326 643 334 658 q 318 610 318 629 q 329 569 318 586 q 357 543 340 553 q 395 528 374 532 q 435 523 416 523 m 597 -83 q 543 -76 570 -83 q 493 -56 515 -70 q 456 -20 471 -42 q 442 34 442 3 q 443 48 442 41 q 445 62 444 54 q 462 179 455 121 q 471 297 469 237 q 405 277 439 284 q 335 270 370 270 q 206 295 265 270 q 104 364 147 320 q 37 468 61 408 q 13 597 13 528 q 35 713 13 660 q 96 806 57 767 q 188 866 135 844 q 304 888 241 888 q 391 881 349 888 q 475 859 434 873 q 528 882 499 876 q 585 888 557 888 q 652 879 621 888 q 708 843 683 870 q 745 780 729 820 q 773 690 761 739 q 793 585 785 640 q 806 478 801 530 q 813 380 811 426 q 816 303 816 334 q 811 172 816 239 q 791 43 807 105 q 764 -13 783 11 q 717 -52 744 -36 q 659 -75 690 -67 q 597 -83 628 -83 z "},"r":{"ha":860,"x_min":50,"x_max":854,"o":"m 224 -1 q 155 10 189 -1 q 98 50 122 22 q 78 93 86 65 q 64 155 69 121 q 56 229 58 190 q 52 303 53 267 q 50 369 50 339 q 50 418 50 399 q 50 513 50 465 q 54 610 51 562 q 63 707 57 659 q 78 802 68 755 q 98 841 83 825 q 132 868 113 857 q 175 883 152 878 q 219 888 198 888 q 274 881 246 888 q 324 859 302 873 q 361 822 347 844 q 375 768 375 799 q 373 735 375 751 q 370 702 371 718 q 421 775 393 741 q 484 834 449 809 q 559 873 518 859 q 648 888 600 888 q 727 873 690 888 q 793 833 765 859 q 838 772 821 808 q 854 692 854 736 q 840 621 854 652 q 801 569 825 590 q 743 537 776 548 q 672 526 709 526 q 620 529 646 526 q 568 531 594 531 q 484 521 519 531 q 424 490 448 511 q 390 433 401 468 q 378 349 378 399 q 385 286 378 317 q 398 223 391 254 q 411 162 405 193 q 417 99 417 131 q 407 68 417 82 q 379 43 396 54 q 340 23 361 32 q 297 9 319 15 q 257 1 276 4 q 224 -1 237 -1 z "},"s":{"ha":851,"x_min":18,"x_max":824,"o":"m 425 5 q 338 11 384 5 q 247 31 292 18 q 160 66 201 45 q 87 119 119 88 q 37 189 56 149 q 18 279 18 229 q 31 330 18 308 q 65 367 44 352 q 112 389 86 381 q 164 396 138 396 q 228 386 202 396 q 272 361 254 376 q 304 329 291 347 q 329 296 317 311 q 354 272 341 281 q 385 262 367 262 q 421 275 405 262 q 437 311 437 289 q 435 325 437 318 q 428 339 432 332 q 410 358 421 351 q 386 372 399 366 q 359 381 372 378 q 334 388 345 385 q 274 406 306 395 q 211 434 242 418 q 150 470 179 450 q 99 516 121 491 q 63 570 77 541 q 50 633 50 600 q 69 715 50 679 q 120 780 88 752 q 192 829 151 808 q 276 862 233 849 q 363 881 320 875 q 444 887 407 887 q 556 876 499 887 q 662 839 612 864 q 752 776 712 814 q 816 682 793 737 q 822 665 819 674 q 824 647 824 656 q 807 599 824 619 q 766 567 790 579 q 713 548 741 554 q 663 542 685 542 q 606 551 628 542 q 568 572 583 559 q 544 601 553 585 q 524 629 534 616 q 500 651 513 642 q 465 660 487 660 q 426 644 443 660 q 409 605 409 628 q 422 570 409 583 q 459 547 436 556 q 511 532 481 538 q 574 518 541 526 q 642 500 608 511 q 706 474 675 490 q 763 433 737 457 q 806 372 789 408 q 819 336 814 355 q 823 297 823 317 q 806 202 823 244 q 760 127 789 159 q 691 72 730 95 q 607 34 652 48 q 516 12 563 19 q 425 5 469 5 z "},"t":{"ha":699,"x_min":4,"x_max":696,"o":"m 395 -2 q 329 7 360 -2 q 273 43 298 16 q 237 106 253 66 q 209 195 220 146 q 188 298 197 244 q 175 404 180 353 q 167 500 170 456 q 165 576 165 545 q 122 574 143 575 q 80 573 102 573 q 45 587 60 573 q 22 620 31 600 q 8 660 13 639 q 4 698 4 682 q 20 761 4 741 q 61 788 36 781 q 118 793 87 795 q 180 792 149 792 q 184 818 182 805 q 189 843 186 830 q 217 898 197 875 q 263 937 237 922 q 321 961 290 953 q 383 968 353 968 q 438 962 410 968 q 488 942 465 956 q 524 906 510 928 q 538 852 538 884 q 534 815 538 834 q 528 779 530 797 q 581 777 552 777 q 636 770 610 777 q 679 747 662 764 q 696 695 696 730 q 677 636 696 657 q 630 603 659 614 q 569 589 602 592 q 509 585 536 586 q 507 529 507 557 q 506 474 506 502 q 512 306 506 389 q 533 140 518 223 q 536 121 534 131 q 537 102 537 112 q 525 51 537 71 q 493 19 513 31 q 448 2 473 7 q 395 -2 422 -2 z "},"u":{"ha":929,"x_min":33,"x_max":886,"o":"m 669 -5 q 620 1 644 -5 q 576 20 596 7 q 543 51 557 32 q 525 96 529 70 q 452 27 494 54 q 356 0 411 0 q 250 24 297 0 q 167 90 203 49 q 105 183 131 131 q 64 293 80 236 q 40 406 47 349 q 33 509 33 462 q 35 596 33 552 q 47 683 38 641 q 72 761 56 724 q 115 825 88 798 q 181 868 142 852 q 274 884 220 884 q 325 877 301 884 q 367 856 349 870 q 396 820 385 842 q 406 769 406 798 q 406 758 406 764 q 405 747 406 752 q 388 598 395 672 q 380 449 380 524 q 380 424 380 441 q 382 385 380 406 q 387 341 383 363 q 396 299 390 318 q 410 269 401 281 q 432 257 419 257 q 450 263 441 257 q 465 279 458 270 q 477 298 471 288 q 486 315 482 308 q 523 420 509 363 q 543 539 536 478 q 551 661 549 600 q 552 773 552 721 q 583 861 552 835 q 673 888 614 888 q 733 883 702 888 q 789 864 764 878 q 827 825 811 852 q 853 763 842 798 q 870 689 863 728 q 880 611 877 649 q 885 539 884 572 q 886 482 886 505 q 883 388 886 438 q 873 287 880 338 q 856 187 867 236 q 830 97 846 138 q 804 53 821 72 q 766 21 787 34 q 720 2 745 8 q 669 -5 694 -5 z "},"v":{"ha":867,"x_min":22,"x_max":844,"o":"m 437 7 q 322 29 374 7 q 230 88 271 50 q 157 176 189 125 q 103 284 126 226 q 64 404 80 342 q 40 528 49 467 q 26 647 31 589 q 22 752 22 704 q 39 814 22 789 q 82 856 56 840 q 140 880 108 872 q 203 887 172 887 q 260 881 229 887 q 316 862 290 876 q 360 826 342 848 q 376 772 377 804 q 374 643 375 707 q 372 514 372 579 q 373 478 372 503 q 375 420 373 452 q 380 355 376 389 q 391 293 384 321 q 409 247 398 264 q 436 229 420 229 q 464 249 452 229 q 484 302 476 269 q 497 380 492 336 q 504 471 502 424 q 508 565 507 518 q 509 653 509 612 q 509 724 509 693 q 510 768 509 755 q 524 821 512 798 q 556 858 536 843 q 601 880 576 873 q 654 888 627 888 q 725 876 691 888 q 786 843 760 865 q 828 791 812 822 q 844 722 844 760 q 839 625 844 679 q 822 513 833 572 q 793 395 810 455 q 750 279 775 335 q 694 173 726 222 q 624 87 663 123 q 538 29 585 50 q 437 7 492 7 z "},"w":{"ha":1246,"x_min":35,"x_max":1207,"o":"m 873 -2 q 796 11 833 -2 q 728 45 760 24 q 670 96 696 67 q 621 157 643 125 q 571 95 598 124 q 513 45 545 66 q 445 11 481 23 q 368 -2 408 -2 q 251 25 301 -2 q 163 96 200 52 q 101 198 126 140 q 62 317 77 255 q 41 439 47 378 q 35 552 35 500 q 41 681 35 614 q 69 808 48 748 q 95 846 77 831 q 134 870 112 861 q 180 884 156 880 q 226 888 204 888 q 275 883 247 888 q 330 868 304 879 q 374 839 356 857 q 393 793 393 821 q 392 784 393 789 q 390 775 391 780 q 359 634 372 705 q 347 489 347 563 q 347 466 347 481 q 350 433 348 451 q 355 395 351 414 q 365 361 359 376 q 378 335 370 345 q 398 325 387 325 q 410 329 405 325 q 420 338 416 332 q 428 349 425 343 q 435 360 432 355 q 456 426 448 387 q 469 508 465 465 q 475 592 473 551 q 476 663 476 633 q 488 716 476 694 q 520 755 500 739 q 567 778 541 770 q 621 786 593 786 q 676 778 650 786 q 722 755 702 770 q 754 716 742 739 q 766 663 766 694 q 767 592 766 634 q 772 505 768 549 q 784 421 776 461 q 804 355 791 380 q 810 344 806 350 q 817 332 813 338 q 827 323 821 327 q 838 319 832 319 q 859 331 850 319 q 873 359 867 342 q 883 398 879 377 q 888 439 886 419 q 891 476 890 460 q 892 500 892 492 q 881 639 892 571 q 852 775 869 707 q 850 784 850 780 q 849 793 849 789 q 867 839 849 821 q 912 868 886 857 q 966 883 938 879 q 1016 888 995 888 q 1062 884 1038 888 q 1108 870 1086 880 q 1147 846 1130 861 q 1173 808 1164 831 q 1200 681 1194 748 q 1207 552 1207 614 q 1201 439 1207 500 q 1180 316 1195 378 q 1140 197 1165 255 q 1078 96 1115 140 q 990 25 1041 52 q 873 -2 940 -2 z "},"x":{"ha":854,"x_min":9,"x_max":851,"o":"m 221 1 q 158 12 191 1 q 98 41 125 22 q 54 87 71 60 q 36 148 36 114 q 47 194 36 167 q 76 252 58 221 q 117 315 94 283 q 161 377 139 347 q 202 432 183 407 q 234 473 222 457 q 146 566 191 521 q 53 654 102 612 q 21 692 33 671 q 9 739 9 712 q 25 795 9 768 q 64 843 40 822 q 117 876 87 863 q 174 888 146 888 q 233 869 205 888 q 329 788 283 833 q 418 699 375 743 q 492 784 454 741 q 572 863 530 828 q 642 887 602 887 q 705 875 671 887 q 767 841 739 863 q 815 791 796 820 q 834 730 834 763 q 824 691 834 709 q 801 658 814 673 q 715 565 758 611 q 631 469 672 518 q 727 359 679 414 q 818 243 776 303 q 841 201 831 224 q 851 155 851 179 q 833 95 851 123 q 789 46 816 66 q 729 14 762 26 q 667 3 696 3 q 635 8 650 3 q 608 26 619 13 q 581 59 593 41 q 555 94 568 77 q 497 165 526 130 q 439 236 469 201 q 363 134 399 185 q 292 31 328 83 q 260 7 279 13 q 221 1 241 1 z "},"y":{"ha":829,"x_min":19,"x_max":792,"o":"m 368 -28 q 293 -22 330 -28 q 222 -4 256 -17 q 158 31 188 9 q 105 83 129 52 q 91 105 96 95 q 86 132 86 116 q 99 182 86 157 q 132 225 111 206 q 177 257 152 245 q 227 269 202 269 q 268 259 251 269 q 299 238 284 250 q 329 216 313 226 q 368 207 345 207 q 405 219 389 207 q 433 249 422 231 q 450 287 444 267 q 456 326 456 308 q 455 337 456 332 q 454 347 455 342 q 397 315 429 326 q 330 304 365 304 q 193 332 252 304 q 96 406 134 359 q 38 518 57 454 q 19 655 19 582 q 29 745 19 703 q 62 820 39 787 q 122 871 85 852 q 213 890 159 890 q 259 885 231 890 q 313 869 287 880 q 358 841 339 858 q 376 800 376 824 l 376 793 q 362 701 369 746 q 355 609 355 656 q 356 588 355 602 q 358 560 356 575 q 363 528 359 545 q 372 499 366 512 q 386 478 377 486 q 406 470 394 470 q 430 480 420 470 q 449 507 441 491 q 461 544 456 524 q 469 584 466 564 q 473 621 472 604 q 474 647 474 637 q 467 728 474 689 q 452 808 460 768 l 452 814 q 471 849 452 835 q 517 871 491 863 q 571 884 544 880 q 613 888 598 888 q 647 885 630 888 q 680 877 664 882 q 720 843 703 868 q 749 784 737 818 q 770 709 762 749 q 783 630 779 669 q 790 558 788 592 q 792 504 792 525 q 783 366 792 433 q 753 240 774 299 q 701 132 733 181 q 621 47 668 83 q 511 -8 574 12 q 368 -28 448 -28 z "},"z":{"ha":817,"x_min":17,"x_max":804,"o":"m 382 1 q 320 4 355 1 q 246 13 284 6 q 172 32 208 20 q 106 62 135 43 q 60 109 77 81 q 42 172 42 136 q 63 254 42 211 q 119 342 85 298 q 198 431 154 387 q 286 514 241 475 q 371 587 330 553 q 440 642 412 620 q 315 592 376 619 q 191 538 254 564 q 165 532 178 532 q 109 550 136 532 q 62 594 82 568 q 29 652 41 621 q 17 711 17 684 q 39 782 17 753 q 95 831 60 811 q 174 862 130 850 q 263 879 218 873 q 349 886 308 885 q 420 888 391 888 q 503 885 457 888 q 594 871 549 882 q 679 843 639 861 q 745 793 719 824 q 779 741 766 770 q 792 680 792 712 q 781 632 792 654 q 751 593 770 611 q 590 447 668 520 q 439 291 511 374 q 466 299 448 293 q 506 313 484 305 q 551 329 528 320 q 594 344 574 337 q 628 355 614 351 q 644 359 642 359 q 685 350 665 359 q 723 325 705 340 q 756 288 741 309 q 781 245 770 267 q 798 200 792 222 q 804 159 804 178 q 779 103 804 127 q 714 62 753 79 q 627 33 675 44 q 532 14 578 21 q 445 4 485 7 q 382 1 405 1 z "},"{":{"ha":661,"x_min":34,"x_max":627,"o":"m 554 -184 q 463 -181 509 -184 q 372 -169 416 -178 q 289 -142 328 -159 q 220 -97 250 -125 q 174 -28 191 -68 q 157 68 157 13 q 161 121 157 95 q 168 172 164 146 q 176 224 172 198 q 179 275 179 250 q 176 306 179 292 q 166 330 174 319 q 148 346 159 340 q 117 352 136 352 q 78 364 94 352 q 53 395 62 376 q 38 435 43 414 q 34 476 34 457 q 41 531 34 511 q 58 563 47 551 q 82 579 68 574 q 111 586 96 584 q 139 592 125 589 q 164 603 153 595 q 181 626 174 610 q 188 669 188 642 q 183 727 188 698 q 173 785 178 756 q 162 844 167 814 q 157 903 157 873 q 174 999 157 959 q 220 1068 191 1040 q 289 1113 250 1096 q 372 1140 328 1131 q 463 1153 416 1149 q 554 1156 509 1156 q 609 1134 591 1156 q 627 1076 627 1112 q 623 1045 627 1064 q 612 1008 619 1026 q 594 977 605 991 q 568 962 583 964 q 530 957 553 960 q 484 949 506 955 q 446 930 462 943 q 430 896 430 918 q 433 839 430 867 q 441 783 437 811 q 449 727 446 755 q 452 671 452 699 q 441 596 452 628 q 408 539 429 564 q 357 496 387 515 q 291 463 328 478 q 411 396 373 445 q 448 262 448 347 q 446 215 448 238 q 439 168 443 191 q 433 121 435 144 q 430 75 430 98 q 446 41 430 53 q 484 22 462 28 q 530 14 507 16 q 568 9 553 12 q 594 -6 583 7 q 612 -37 605 -20 q 623 -74 619 -55 q 627 -105 627 -93 q 609 -163 627 -141 q 554 -184 591 -184 z "},"|":{"ha":762,"x_min":304,"x_max":456,"o":"m 382 -182 q 339 -166 354 -182 q 317 -125 323 -151 q 311 -73 313 -106 q 309 -3 309 -39 q 308 68 308 34 q 309 124 309 102 q 306 340 307 233 q 305 556 305 447 q 305 596 305 568 q 305 663 305 625 q 304 748 304 702 q 305 840 304 793 q 306 932 305 887 q 307 1014 306 977 q 310 1076 308 1050 q 313 1110 311 1102 q 342 1145 321 1135 q 387 1156 363 1156 q 436 1140 416 1156 q 456 1094 456 1124 q 454 752 456 922 q 452 411 452 583 q 454 141 452 275 q 456 -128 456 7 q 449 -151 456 -141 q 431 -168 441 -161 q 407 -178 420 -175 q 382 -182 394 -182 z "},"}":{"ha":661,"x_min":34,"x_max":627,"o":"m 106 -184 q 52 -163 69 -184 q 34 -105 34 -141 q 38 -74 34 -93 q 48 -37 41 -55 q 66 -6 56 -20 q 92 9 77 7 q 131 14 107 12 q 176 22 154 16 q 215 41 199 28 q 231 75 231 53 q 228 121 231 98 q 221 168 225 144 q 215 215 218 191 q 212 262 212 238 q 250 396 212 347 q 370 463 288 445 q 303 496 333 478 q 252 539 273 515 q 220 596 231 564 q 208 671 208 628 q 212 727 208 699 q 219 783 215 755 q 227 839 224 811 q 231 896 231 867 q 215 930 231 918 q 177 949 199 943 q 131 957 155 955 q 92 962 108 960 q 66 977 77 964 q 48 1008 56 991 q 38 1045 41 1026 q 34 1076 34 1064 q 52 1134 34 1112 q 106 1156 69 1156 q 198 1153 151 1156 q 289 1140 245 1149 q 372 1113 333 1131 q 440 1068 411 1096 q 486 999 469 1040 q 503 903 503 958 q 498 844 503 873 q 488 785 494 814 q 477 727 482 756 q 473 669 473 698 q 479 626 473 642 q 497 603 486 610 q 521 592 507 595 q 550 586 535 589 q 578 579 564 584 q 603 563 592 574 q 620 531 613 551 q 627 476 627 511 q 622 435 627 457 q 608 395 618 414 q 582 364 598 376 q 543 352 566 352 q 513 346 525 352 q 494 330 501 340 q 484 306 487 319 q 481 275 481 292 q 485 224 481 250 q 492 172 488 198 q 500 121 496 146 q 503 68 503 95 q 486 -28 503 13 q 440 -97 469 -68 q 372 -142 411 -125 q 289 -169 333 -159 q 198 -181 245 -178 q 106 -184 151 -184 z "},"~":{"ha":557,"x_min":34,"x_max":523,"o":"m 127 368 q 94 374 111 368 q 64 390 78 380 q 42 416 51 401 q 34 448 34 431 q 48 492 34 468 q 83 538 62 517 q 128 575 104 560 q 174 589 153 589 q 218 581 197 589 q 258 561 239 572 q 294 542 277 551 q 330 533 312 533 q 358 544 349 533 q 376 567 368 555 q 395 591 384 580 q 430 602 407 602 q 463 595 446 602 q 493 576 479 588 q 514 550 506 565 q 523 517 523 534 q 510 472 523 497 q 476 424 496 446 q 432 386 456 401 q 387 371 408 371 q 342 381 363 371 q 301 402 321 391 q 264 424 282 414 q 229 434 246 434 q 201 424 210 434 q 183 401 192 413 q 163 378 175 389 q 127 368 151 368 z "},"¡":{"ha":385,"x_min":34,"x_max":351,"o":"m 189 455 q 149 458 171 455 q 109 471 127 462 q 77 494 90 479 q 64 532 64 509 q 76 582 64 560 q 107 619 87 604 q 151 642 126 634 q 201 650 176 650 q 251 642 227 650 q 292 621 274 635 q 320 585 310 606 q 331 536 331 564 q 315 498 331 513 q 278 473 300 482 q 231 459 256 463 q 189 455 207 455 m 197 -319 q 143 -313 172 -319 q 90 -292 114 -306 q 50 -255 66 -277 q 34 -202 34 -233 q 39 -77 34 -140 q 50 48 43 -15 q 60 173 56 111 q 65 298 65 235 q 80 341 65 323 q 117 370 95 359 q 164 387 139 382 q 209 393 189 393 q 248 389 229 393 q 282 375 267 385 q 309 351 298 366 q 324 315 320 336 q 341 186 336 252 q 349 55 347 121 q 351 -77 351 -11 q 351 -207 351 -142 q 337 -259 351 -237 q 300 -294 323 -280 q 251 -313 278 -307 q 197 -319 223 -319 z "},"¢":{"ha":865,"x_min":34,"x_max":831,"o":"m 427 -172 q 394 -170 412 -172 q 362 -160 377 -167 q 337 -141 347 -153 q 328 -111 328 -129 q 333 -45 328 -79 q 344 20 339 -11 q 217 78 274 41 q 119 166 159 115 q 56 282 78 218 q 34 420 34 347 q 64 587 34 510 q 148 724 94 664 q 274 823 201 783 q 433 879 347 863 q 438 948 435 913 q 445 1017 440 982 q 454 1038 447 1029 q 473 1051 462 1046 q 496 1058 484 1056 q 519 1060 509 1060 q 550 1057 532 1060 q 584 1047 568 1054 q 612 1028 600 1040 q 623 1000 623 1017 q 616 942 623 972 q 603 884 609 913 q 663 875 631 882 q 721 854 694 868 q 765 817 747 840 q 782 758 782 793 q 772 708 782 735 q 745 658 762 682 q 705 618 728 634 q 659 602 683 602 q 636 606 648 602 q 610 615 624 610 q 580 624 595 620 q 548 628 564 628 q 478 611 509 628 q 426 566 447 594 q 393 503 404 538 q 382 432 382 468 q 390 376 382 403 q 413 329 397 349 q 452 296 429 308 q 507 283 475 283 q 557 291 533 283 q 606 307 582 298 q 654 323 629 316 q 705 331 678 331 q 757 321 734 331 q 797 295 781 312 q 823 254 814 278 q 831 201 831 230 q 820 141 831 170 q 791 87 809 113 q 734 40 768 57 q 662 14 701 22 q 584 2 624 5 q 509 0 544 0 q 510 -64 509 -31 q 506 -127 511 -97 q 495 -150 504 -141 q 475 -163 487 -158 q 451 -170 464 -168 q 427 -172 438 -172 z "},"£":{"ha":821,"x_min":34,"x_max":787,"o":"m 458 2 q 410 3 442 2 q 338 6 378 3 q 258 15 299 9 q 182 32 216 21 q 127 60 149 43 q 105 101 105 77 q 117 144 105 126 q 146 176 129 161 q 185 203 164 191 q 223 230 205 216 q 253 261 241 244 q 264 302 264 279 q 261 327 264 315 q 252 350 258 338 q 172 348 212 349 q 91 346 132 346 q 68 351 79 346 q 51 366 58 357 q 38 386 43 375 q 34 409 34 397 q 51 445 34 433 q 90 463 67 457 q 138 469 113 468 q 179 471 163 470 q 137 573 153 519 q 122 682 122 626 q 146 808 122 753 q 212 899 170 862 q 311 954 254 935 q 436 972 368 972 q 537 964 488 972 q 627 935 585 956 q 702 881 669 915 q 758 795 735 847 q 769 763 764 780 q 773 728 773 746 q 762 677 773 701 q 733 636 751 654 q 690 609 714 619 q 638 600 665 600 q 597 608 615 600 q 565 629 580 616 q 536 657 550 642 q 508 685 523 672 q 477 706 494 698 q 437 715 460 715 q 409 707 420 715 q 390 686 397 699 q 379 658 382 673 q 376 628 376 642 q 381 591 376 611 q 394 550 387 570 q 411 509 402 529 q 427 474 420 490 q 516 474 469 473 q 603 466 562 474 q 623 457 614 464 q 638 441 632 450 q 648 421 644 432 q 651 399 651 410 q 635 359 651 372 q 593 346 619 346 q 532 347 563 346 q 471 349 501 349 q 475 300 475 325 q 460 224 475 262 q 486 231 467 226 q 529 243 505 237 q 579 258 553 250 q 628 272 606 266 q 664 283 650 279 q 679 287 678 287 q 725 270 705 287 q 759 227 745 252 q 780 174 773 201 q 787 124 787 146 q 769 70 787 92 q 722 35 751 48 q 656 14 692 21 q 583 5 619 7 q 513 2 547 2 q 458 2 480 2 z "},"¤":{"ha":559,"x_min":34,"x_max":525,"o":"m 467 258 q 432 271 448 258 q 404 297 416 284 q 344 269 376 279 q 279 259 313 259 q 214 269 245 259 q 154 296 182 279 q 126 271 141 284 q 92 258 112 258 q 68 264 79 258 q 50 280 58 271 q 38 302 43 290 q 34 327 34 315 q 38 347 34 338 q 50 365 43 357 q 64 381 56 373 q 79 395 73 389 q 70 433 73 414 q 67 472 67 452 q 88 578 67 526 q 70 593 79 586 q 52 608 60 600 q 39 627 44 616 q 34 650 34 637 q 38 672 34 661 q 48 692 41 683 q 65 706 55 701 q 87 711 75 711 q 107 707 97 711 q 127 698 117 703 q 146 686 137 692 q 162 673 155 679 q 217 701 188 692 q 279 710 247 710 q 341 702 311 710 q 397 673 372 693 q 414 686 405 680 q 432 698 422 692 q 452 707 441 703 q 472 711 462 711 q 494 706 484 711 q 511 692 504 701 q 521 672 517 683 q 525 650 525 661 q 520 627 525 637 q 507 609 515 617 q 490 594 499 601 q 471 579 480 587 q 492 477 492 530 q 489 436 492 456 q 479 396 486 416 q 494 381 486 389 q 509 365 503 374 q 520 347 516 357 q 525 327 525 338 q 520 302 525 315 q 509 280 516 290 q 490 264 501 271 q 467 258 479 258 m 281 402 q 313 409 299 402 q 335 429 326 416 q 349 456 345 441 q 353 488 353 472 q 349 520 353 504 q 337 549 345 536 q 316 570 329 562 q 285 578 303 578 q 251 570 265 578 q 228 547 237 561 q 215 516 219 533 q 210 481 210 498 q 215 451 210 466 q 229 426 220 437 q 251 409 237 415 q 281 402 264 402 z "},"¥":{"ha":865,"x_min":34,"x_max":831,"o":"m 444 0 q 380 11 408 0 q 333 42 352 22 q 304 91 314 62 q 292 155 294 120 q 236 153 264 155 q 180 152 209 152 q 158 158 168 152 q 140 173 147 163 q 128 193 132 182 q 123 216 123 204 q 133 243 123 233 q 156 261 142 254 q 190 271 171 268 q 227 276 208 275 q 262 277 245 277 q 290 277 279 277 l 291 303 q 236 301 263 302 q 180 300 208 300 q 158 306 168 300 q 140 320 147 311 q 128 341 132 330 q 123 363 123 352 q 138 398 123 386 q 174 416 153 410 q 217 422 195 421 q 256 424 240 423 q 161 475 202 443 q 91 551 119 508 q 48 645 63 593 q 34 751 34 696 q 44 843 34 802 q 76 911 54 883 q 135 954 98 939 q 224 968 171 968 q 275 964 246 968 q 330 948 304 959 q 374 918 355 937 q 392 871 392 899 q 386 831 392 852 q 371 786 379 810 q 357 738 363 763 q 351 686 351 713 q 355 648 351 669 q 370 611 360 628 q 395 582 380 593 q 432 571 410 571 q 466 581 452 571 q 489 606 480 591 q 502 640 498 621 q 505 674 505 658 q 500 728 505 701 q 488 782 494 755 q 475 834 481 809 q 470 882 470 860 q 480 912 470 899 q 507 935 490 925 q 544 951 524 945 q 585 962 564 958 q 624 968 606 966 q 655 970 642 970 q 691 968 671 970 q 730 960 711 966 q 764 943 749 954 q 787 916 780 932 q 819 819 808 870 q 831 718 831 767 q 772 533 831 606 q 610 426 714 460 q 654 425 631 425 q 696 418 677 425 q 728 398 715 412 q 741 354 741 383 q 735 326 741 336 q 718 309 728 315 q 694 301 707 303 q 666 299 680 299 q 635 300 650 299 q 608 302 621 301 l 609 278 q 653 277 629 277 q 696 271 676 277 q 728 250 715 264 q 741 206 741 235 q 735 178 741 189 q 719 161 729 167 q 696 153 709 155 q 669 151 683 151 q 640 152 654 151 q 614 154 625 153 q 615 129 614 142 q 616 104 616 117 q 597 58 616 78 q 551 26 578 39 q 495 6 524 13 q 444 0 465 0 z "},"¦":{"ha":219,"x_min":34,"x_max":185,"o":"m 111 460 q 94 461 104 460 q 75 464 84 462 q 58 471 66 467 q 46 484 50 476 q 41 511 43 490 q 38 561 39 532 q 36 623 37 589 q 35 687 35 656 q 34 742 34 718 q 34 777 34 766 q 34 802 34 783 q 34 846 34 821 q 35 899 35 871 q 36 951 35 927 q 39 994 37 976 q 42 1015 40 1011 q 55 1026 45 1022 q 75 1031 64 1029 q 98 1034 87 1034 q 116 1035 109 1035 q 134 1034 122 1035 q 157 1031 146 1034 q 177 1023 168 1028 q 185 1008 185 1017 q 183 862 185 935 q 181 715 181 789 q 183 599 181 656 q 185 483 185 541 q 176 472 185 476 q 153 465 166 467 q 129 461 140 462 q 111 460 117 460 m 111 -284 q 94 -283 104 -284 q 75 -280 84 -282 q 58 -273 66 -277 q 46 -260 50 -268 q 41 -233 43 -254 q 38 -183 39 -212 q 36 -121 37 -155 q 35 -57 35 -87 q 34 -2 34 -26 q 34 33 34 22 q 34 58 34 39 q 34 102 34 77 q 35 155 35 127 q 36 208 35 183 q 39 250 37 232 q 42 271 40 267 q 55 282 45 278 q 75 288 64 286 q 98 290 87 290 q 116 291 109 291 q 134 290 122 291 q 157 287 146 290 q 177 279 168 284 q 185 264 185 273 q 183 118 185 191 q 181 -29 181 45 q 183 -145 181 -87 q 185 -261 185 -203 q 176 -272 185 -268 q 153 -279 166 -277 q 129 -283 140 -282 q 111 -284 117 -284 z "},"§":{"ha":875,"x_min":34,"x_max":841,"o":"m 404 -313 q 292 -297 347 -313 q 191 -250 238 -280 q 106 -177 144 -220 q 43 -84 68 -135 q 34 -44 34 -65 q 49 9 34 -16 q 87 52 64 34 q 139 80 111 70 q 193 90 167 90 q 248 79 226 90 q 285 50 270 67 q 312 12 300 32 q 334 -26 323 -9 q 360 -56 346 -44 q 395 -67 374 -67 q 415 -60 407 -67 q 429 -43 424 -53 q 438 -21 435 -33 q 441 0 441 -9 q 425 46 441 28 q 386 75 410 64 q 358 86 372 81 q 330 96 345 91 q 239 132 287 110 q 151 185 191 154 q 85 259 111 217 q 59 354 59 300 q 67 409 59 383 q 90 459 76 435 q 124 503 104 482 q 165 540 143 523 q 111 610 132 571 q 90 695 90 648 q 108 781 90 742 q 157 850 126 819 q 229 903 189 880 q 313 940 269 925 q 401 962 357 955 q 484 969 446 969 q 595 956 541 969 q 696 917 649 943 q 779 849 743 890 q 835 752 815 808 q 839 736 838 745 q 841 720 841 728 q 823 671 841 692 q 780 638 806 651 q 724 620 753 626 q 672 614 695 614 q 622 620 640 614 q 592 633 603 625 q 576 653 581 642 q 564 677 570 665 q 550 704 558 690 q 524 729 541 717 q 497 745 511 739 q 467 751 483 751 q 428 737 443 751 q 412 698 412 723 q 426 649 412 668 q 463 618 439 631 q 517 597 486 606 q 581 581 547 589 q 649 562 614 572 q 714 534 683 551 q 771 492 745 517 q 812 427 797 466 q 824 389 820 408 q 829 349 829 369 q 807 240 829 293 q 741 150 785 186 q 783 84 768 121 q 799 7 799 47 q 782 -87 799 -43 q 736 -166 766 -130 q 669 -229 707 -201 q 586 -275 630 -256 q 496 -303 543 -294 q 404 -313 449 -313 m 433 275 q 449 285 442 278 q 461 302 456 292 q 468 322 466 311 q 471 341 471 332 q 460 381 471 363 q 430 410 450 398 q 395 393 408 407 q 382 357 382 379 q 397 310 382 331 q 433 275 412 289 z "},"¨":{"ha":477,"x_min":34,"x_max":444,"o":"m 129 969 q 90 977 107 969 q 60 997 72 984 q 41 1028 47 1010 q 34 1067 34 1046 q 44 1099 34 1086 q 71 1121 55 1112 q 104 1133 86 1129 q 138 1137 123 1137 q 170 1134 153 1137 q 199 1123 186 1131 q 220 1102 212 1115 q 229 1071 229 1089 q 221 1030 229 1049 q 201 998 214 1012 q 170 977 188 985 q 129 969 151 969 m 344 969 q 305 977 322 969 q 275 997 288 984 q 256 1028 263 1010 q 250 1067 250 1046 q 260 1099 250 1086 q 286 1121 271 1113 q 320 1134 302 1130 q 353 1137 338 1137 q 385 1134 369 1137 q 414 1122 401 1131 q 435 1102 427 1114 q 444 1071 444 1089 q 436 1030 444 1049 q 416 998 429 1012 q 385 977 403 985 q 344 969 366 969 z "},"©":{"ha":1000,"x_min":34,"x_max":966,"o":"m 491 163 q 377 184 427 163 q 292 243 327 205 q 239 333 257 281 q 220 447 220 385 q 245 585 220 520 q 315 700 270 650 q 422 778 360 749 q 560 806 485 806 q 615 800 590 806 q 659 779 640 793 q 687 742 677 764 q 697 686 697 719 q 683 634 697 652 q 632 616 668 616 q 604 618 618 616 q 575 621 589 621 q 519 610 544 621 q 478 582 495 600 q 453 538 462 564 q 445 482 445 513 q 450 441 445 464 q 465 397 454 418 q 492 363 475 377 q 531 349 508 349 q 565 358 550 349 q 593 379 579 368 q 621 399 606 390 q 655 408 636 408 q 689 400 674 408 q 714 377 704 391 q 731 347 725 363 q 736 312 736 330 q 725 260 736 283 q 693 221 713 237 q 648 194 673 205 q 595 176 623 182 q 541 166 568 169 q 491 163 514 163 m 500 3 q 316 42 401 3 q 169 147 231 81 q 70 300 106 213 q 34 485 34 387 q 50 611 34 550 q 96 726 66 672 q 168 823 126 779 q 262 899 210 867 q 374 949 314 931 q 500 966 435 966 q 627 949 567 966 q 739 899 687 931 q 833 823 791 867 q 904 725 875 779 q 950 611 934 671 q 966 485 966 550 q 950 359 966 420 q 904 245 934 298 q 832 147 874 191 q 739 71 790 102 q 627 21 687 39 q 500 3 566 3 m 500 102 q 600 116 553 102 q 689 156 648 130 q 763 217 730 181 q 819 295 795 252 q 855 386 842 338 q 868 485 868 434 q 840 631 868 562 q 763 753 812 701 q 646 838 713 806 q 500 869 579 869 q 354 838 422 869 q 238 753 287 806 q 160 631 189 701 q 132 485 132 562 q 145 386 132 434 q 181 295 158 337 q 238 217 205 252 q 312 156 271 181 q 400 116 353 130 q 500 102 448 102 z "},"ª":{"ha":609,"x_min":34,"x_max":575,"o":"m 453 503 q 432 505 444 503 q 410 509 420 506 q 390 518 399 513 q 376 534 381 524 q 313 512 345 519 q 246 504 280 504 q 171 514 209 504 q 103 546 134 525 q 53 599 73 567 q 34 673 34 631 q 52 740 34 711 q 98 786 70 768 q 160 813 126 804 q 228 822 195 822 q 303 815 266 822 q 376 795 340 808 q 367 826 372 810 q 355 857 363 843 q 336 881 348 871 q 305 890 323 890 q 267 883 285 890 q 231 865 249 875 q 194 848 213 856 q 153 840 175 840 q 120 846 136 840 q 91 861 103 851 q 70 886 78 871 q 62 920 62 901 q 75 958 62 941 q 106 988 87 975 q 150 1010 125 1001 q 200 1024 175 1019 q 247 1033 224 1030 q 286 1035 270 1035 q 427 1006 371 1035 q 515 928 482 977 q 562 812 548 878 q 575 673 575 747 q 574 603 575 635 q 563 550 573 572 q 527 515 552 528 q 453 503 502 503 m 304 633 q 381 642 342 633 q 383 669 382 655 q 384 696 383 682 q 338 713 361 706 q 289 720 314 720 q 253 710 267 720 q 238 676 238 700 q 244 654 238 662 q 260 641 250 646 q 281 635 269 636 q 304 633 293 633 m 405 250 q 346 254 375 250 q 286 257 317 257 q 268 257 282 257 q 237 255 253 256 q 207 253 220 254 q 192 251 193 252 q 175 262 182 251 q 163 289 168 273 q 158 319 159 304 q 156 342 156 334 q 169 395 156 376 q 204 423 182 414 q 253 434 226 432 q 307 435 280 435 q 366 433 339 435 q 411 420 392 431 q 441 389 431 410 q 452 329 452 368 q 450 304 452 318 q 443 278 448 290 q 428 258 437 267 q 405 250 419 250 z "},"«":{"ha":781,"x_min":34,"x_max":747,"o":"m 287 229 q 246 241 264 229 q 212 268 227 252 q 145 336 180 303 q 79 405 111 370 q 47 447 61 424 q 34 496 34 470 q 50 539 34 514 q 90 590 65 564 q 144 644 114 617 q 205 692 175 671 q 263 727 236 713 q 307 740 290 740 q 345 733 326 740 q 379 713 364 726 q 404 682 395 700 q 413 644 413 665 q 399 601 413 623 q 365 558 385 578 q 322 521 345 538 q 284 490 300 503 q 315 458 298 476 q 347 419 332 439 q 373 377 362 399 q 383 336 383 356 q 376 298 383 317 q 356 263 369 279 q 326 239 343 248 q 287 229 308 229 m 621 229 q 579 241 598 229 q 546 268 561 252 q 479 336 513 303 q 412 405 445 370 q 381 447 395 424 q 368 496 368 470 q 383 538 368 513 q 423 590 399 563 q 478 644 448 616 q 539 692 509 671 q 596 727 570 713 q 640 740 623 740 q 679 733 660 740 q 713 713 698 726 q 738 682 728 700 q 747 644 747 665 q 733 601 747 623 q 699 559 719 579 q 656 521 678 538 q 618 490 633 503 q 648 458 631 476 q 681 419 665 439 q 706 377 696 399 q 717 336 717 356 q 710 298 717 317 q 690 263 703 279 q 659 239 677 248 q 621 229 642 229 z "},"¬":{"ha":597,"x_min":34,"x_max":564,"o":"m 447 275 q 413 280 431 275 q 379 294 395 285 q 353 317 363 303 q 343 350 343 332 q 347 407 343 378 q 350 465 350 436 l 349 488 q 310 489 330 488 q 271 489 291 489 q 189 486 230 489 q 106 482 147 482 q 75 493 88 482 q 53 519 62 504 q 39 553 43 535 q 34 586 34 571 q 50 640 34 616 q 80 663 59 654 q 128 678 100 672 q 188 687 156 684 q 250 692 220 690 q 306 694 280 694 q 347 694 332 694 q 433 689 393 694 q 501 666 472 684 q 547 616 530 649 q 564 530 564 584 q 560 474 564 509 q 549 401 556 438 q 529 333 541 363 q 500 291 517 302 q 447 275 475 275 z "},"®":{"ha":1000,"x_min":34,"x_max":966,"o":"m 446 513 q 481 524 462 516 q 517 543 500 531 q 545 569 534 554 q 557 603 557 585 q 549 625 557 616 q 531 637 542 633 q 508 644 520 642 q 485 645 495 645 q 464 644 475 645 q 444 642 454 643 l 443 609 q 444 561 443 585 q 446 513 445 536 m 500 3 q 316 42 401 3 q 169 147 231 81 q 70 300 106 213 q 34 485 34 387 q 50 611 34 550 q 96 726 66 672 q 168 823 126 779 q 262 899 210 867 q 374 949 314 931 q 500 966 435 966 q 627 949 567 966 q 739 899 687 931 q 833 823 791 867 q 904 725 875 779 q 950 611 934 671 q 966 485 966 550 q 950 359 966 420 q 904 245 934 298 q 832 147 874 191 q 739 71 790 102 q 627 21 687 39 q 500 3 566 3 m 500 102 q 600 116 553 102 q 689 156 648 130 q 763 217 730 181 q 819 295 795 252 q 855 386 842 338 q 868 485 868 434 q 840 631 868 562 q 763 753 812 701 q 646 838 713 806 q 500 869 579 869 q 354 838 422 869 q 238 753 287 806 q 160 631 189 701 q 132 485 132 562 q 145 386 132 434 q 181 295 158 337 q 238 217 205 252 q 312 156 271 181 q 400 116 353 130 q 500 102 448 102 m 359 180 q 300 199 326 180 q 279 228 288 208 q 267 272 271 247 q 259 325 262 296 q 256 379 257 353 q 256 429 256 406 q 256 467 256 452 q 258 600 256 532 q 273 732 261 668 q 311 777 279 764 q 359 788 334 786 q 410 789 385 789 q 474 786 439 789 q 545 775 509 783 q 614 754 581 768 q 673 720 647 741 q 714 671 699 699 q 730 604 730 642 q 720 552 730 576 q 694 508 710 528 q 656 472 677 488 q 612 443 635 456 q 659 415 635 431 q 701 378 682 399 q 732 332 720 357 q 745 279 745 307 q 733 235 745 254 q 704 205 722 217 q 663 188 686 193 q 619 182 641 182 q 600 183 610 182 q 579 188 589 184 q 562 198 570 192 q 552 214 555 204 q 542 261 546 237 q 532 308 537 285 q 518 354 526 332 q 495 397 509 376 q 476 392 486 394 q 456 389 466 391 q 466 320 460 355 q 472 251 472 284 q 459 220 472 234 q 429 198 447 207 q 392 184 412 189 q 359 180 373 180 z "},"¯":{"ha":661,"x_min":34,"x_max":627,"o":"m 531 688 q 416 691 473 688 q 300 695 359 695 q 203 692 252 695 q 105 688 154 688 q 74 699 87 688 q 52 726 61 710 q 38 760 43 741 q 34 792 34 778 q 38 820 34 806 q 50 846 42 834 q 79 868 59 859 q 124 883 98 877 q 179 892 150 889 q 237 897 209 896 q 290 899 265 899 q 332 899 315 899 q 436 898 384 899 q 540 886 488 896 q 575 872 559 882 q 603 848 591 862 q 620 815 614 833 q 627 778 627 798 q 600 711 627 735 q 531 688 572 688 z "},"°":{"ha":506,"x_min":34,"x_max":472,"o":"m 252 529 q 165 544 205 529 q 96 587 125 559 q 51 654 67 615 q 34 741 34 693 q 50 831 34 789 q 95 904 66 873 q 166 953 125 935 q 256 971 207 971 q 346 954 307 971 q 414 905 386 936 q 457 832 442 874 q 472 743 472 791 q 455 655 472 695 q 409 588 439 616 q 340 545 380 560 q 252 529 300 529 m 260 663 q 282 672 273 663 q 295 693 290 681 q 301 720 300 706 q 303 743 303 734 q 301 769 303 753 q 295 800 300 785 q 281 826 290 815 q 259 837 273 837 q 236 826 245 837 q 222 800 227 815 q 215 769 217 785 q 214 743 214 753 q 216 719 214 732 q 223 692 218 705 q 237 671 228 680 q 260 663 246 663 z "},"±":{"ha":661,"x_min":34,"x_max":627,"o":"m 332 256 q 290 266 307 256 q 261 291 272 275 q 243 327 250 307 q 234 369 237 347 q 230 413 231 391 q 228 453 229 435 q 166 450 197 452 q 105 447 136 447 q 74 458 87 447 q 52 484 61 469 q 38 518 43 500 q 34 551 34 536 q 43 593 34 576 q 68 622 52 610 q 103 639 83 633 q 144 648 123 645 q 188 652 166 651 q 227 654 209 654 q 232 720 229 686 q 247 783 235 754 q 281 830 258 812 q 347 849 304 849 q 413 822 390 849 q 436 753 436 795 q 435 705 436 729 q 432 656 433 680 q 497 651 463 654 q 561 636 532 648 q 608 602 589 625 q 627 536 627 578 q 600 470 627 493 q 531 447 572 447 q 480 449 505 447 q 430 451 456 450 q 433 389 431 420 q 436 328 436 358 q 426 297 436 310 q 399 274 415 283 q 365 261 383 265 q 332 256 347 256 m 531 20 q 416 24 473 20 q 300 27 358 27 q 203 24 252 27 q 105 20 154 20 q 74 31 87 20 q 52 58 61 42 q 38 92 43 73 q 34 124 34 110 q 50 178 34 153 q 78 201 58 192 q 125 216 98 210 q 182 225 152 222 q 242 230 213 229 q 296 232 271 231 q 336 232 321 232 q 438 230 386 232 q 539 218 490 227 q 575 204 559 214 q 602 180 591 195 q 620 148 614 166 q 627 111 627 130 q 600 44 627 67 q 531 20 573 20 z "},"²":{"ha":497,"x_min":34,"x_max":463,"o":"m 262 479 q 235 479 253 479 q 195 481 217 479 q 151 486 174 482 q 110 496 128 490 q 80 513 92 503 q 68 539 68 524 q 82 597 68 570 q 117 647 96 624 q 162 692 138 671 q 207 731 186 713 q 242 766 228 749 q 256 798 256 783 q 255 807 256 802 q 253 816 254 812 l 245 820 q 229 812 233 820 q 222 792 224 804 q 217 769 220 781 q 205 750 214 758 q 168 730 190 736 q 125 724 146 724 q 94 727 111 724 q 65 736 78 730 q 43 755 52 743 q 34 785 34 766 q 53 863 34 829 q 103 921 73 898 q 174 957 134 945 q 253 969 213 969 q 321 959 287 969 q 384 929 356 949 q 429 880 412 909 q 447 813 447 851 q 435 758 447 782 q 405 713 423 733 q 365 675 387 693 q 321 640 342 658 q 336 644 327 641 q 354 650 345 647 q 371 655 363 653 q 384 658 379 658 q 415 647 401 658 q 440 620 430 636 q 457 585 451 604 q 463 551 463 566 q 451 512 463 527 q 419 490 439 498 q 376 480 400 482 q 328 477 351 477 q 292 478 309 477 q 262 479 275 479 z "},"³":{"ha":479,"x_min":34,"x_max":446,"o":"m 243 482 q 204 485 227 482 q 159 494 182 488 q 113 509 136 500 q 73 532 91 519 q 45 564 56 546 q 34 604 34 581 q 42 636 34 621 q 63 665 50 652 q 92 685 76 677 q 125 692 109 692 q 156 686 144 692 q 177 673 168 680 q 194 660 186 666 q 214 654 202 654 q 226 655 220 654 q 237 659 232 656 q 246 666 242 661 q 250 677 250 670 q 241 691 250 686 q 219 698 232 696 q 190 703 205 701 q 161 709 174 705 q 139 722 148 713 q 130 747 130 731 q 142 779 130 769 q 169 797 154 789 q 198 811 184 804 q 216 833 212 819 q 193 830 204 833 q 172 824 182 827 q 150 818 161 821 q 127 815 139 815 q 98 822 112 815 q 74 840 84 829 q 58 865 64 851 q 52 895 52 880 q 62 924 52 911 q 89 945 73 936 q 126 959 106 954 q 168 968 147 964 q 206 972 188 971 q 236 974 224 974 q 269 972 250 974 q 308 967 288 971 q 349 957 329 964 q 386 941 370 951 q 412 918 402 931 q 422 886 422 904 q 413 852 422 871 q 390 815 403 834 q 362 781 376 797 q 340 753 348 764 q 379 732 360 745 q 413 703 398 720 q 437 665 428 686 q 446 621 446 645 q 426 556 446 583 q 376 513 406 530 q 310 490 346 497 q 243 482 275 482 z "},"´":{"ha":360,"x_min":34,"x_max":326,"o":"m 107 970 q 85 971 98 970 q 61 978 73 973 q 42 990 50 983 q 34 1010 34 998 q 39 1027 34 1019 q 50 1041 43 1035 q 110 1106 81 1074 q 168 1176 139 1139 q 204 1212 183 1196 q 253 1227 225 1227 q 282 1221 269 1227 q 306 1205 296 1215 q 321 1180 315 1194 q 326 1151 326 1166 q 315 1108 326 1130 q 287 1066 304 1086 q 247 1029 269 1046 q 199 998 224 1011 q 151 977 175 985 q 107 970 127 970 z "},"µ":{"ha":924,"x_min":34,"x_max":890,"o":"m 251 -255 q 200 -249 225 -255 q 154 -229 175 -242 q 116 -197 132 -216 q 90 -153 99 -178 q 70 -80 79 -124 q 56 16 62 -36 q 45 123 50 67 q 39 232 41 179 q 35 331 36 285 q 34 408 34 376 q 34 507 34 454 q 40 613 35 560 q 60 715 46 666 q 102 802 75 764 q 172 862 129 840 q 278 884 214 884 q 329 877 305 884 q 371 856 353 870 q 400 820 389 842 q 410 769 410 798 q 410 758 410 764 q 409 747 410 752 q 394 612 401 679 q 387 476 387 545 q 387 447 387 467 q 390 402 388 427 q 396 351 392 377 q 407 304 400 326 q 425 269 414 283 q 450 255 435 255 q 484 274 470 255 q 509 322 498 292 q 526 387 519 351 q 536 456 532 422 q 542 518 541 490 q 543 559 543 545 q 541 614 543 587 q 534 669 538 642 q 528 724 531 696 q 526 779 526 751 q 542 826 526 806 q 582 859 558 846 q 634 878 606 872 q 684 884 661 884 q 741 876 713 884 q 791 854 768 869 q 831 817 814 839 q 857 766 848 795 q 883 625 876 698 q 890 481 890 551 q 887 387 890 437 q 878 287 884 337 q 860 187 871 236 q 834 97 850 138 q 808 53 825 72 q 770 21 791 34 q 724 2 749 8 q 672 -5 699 -5 q 624 1 648 -5 q 581 19 600 7 q 547 50 561 31 q 529 96 533 69 q 463 32 500 56 q 377 1 426 7 q 389 -70 381 -34 q 396 -140 396 -106 q 383 -192 396 -170 q 350 -227 370 -213 q 303 -248 329 -241 q 251 -255 277 -255 z "},"¶":{"ha":1119,"x_min":34,"x_max":1085,"o":"m 890 1 q 840 9 864 1 q 797 31 815 16 q 767 67 779 45 q 756 118 756 90 q 757 132 756 125 q 759 146 758 138 q 778 322 772 234 q 784 499 784 410 q 779 665 784 583 q 761 829 773 747 q 759 841 760 836 q 758 853 759 847 l 675 852 q 722 623 709 741 q 734 389 734 505 q 730 257 734 323 q 713 127 726 191 q 691 74 707 97 q 652 34 675 50 q 602 10 629 18 q 545 1 574 1 q 494 9 519 1 q 451 31 470 16 q 422 67 433 45 q 411 118 411 89 q 412 132 411 125 q 414 146 412 138 q 429 263 423 205 q 437 381 434 321 q 378 360 408 368 q 317 353 349 353 q 237 366 275 353 q 169 404 200 380 q 112 459 137 427 q 70 528 87 492 q 43 605 52 565 q 34 684 34 644 q 61 811 34 758 q 133 899 87 864 q 239 950 179 933 q 365 970 299 968 q 524 973 445 972 q 683 973 603 973 q 764 974 716 973 q 861 974 811 974 q 958 970 911 973 q 1036 962 1005 968 q 1072 939 1058 957 q 1085 899 1085 922 q 1080 875 1085 885 q 1066 860 1075 865 q 1046 851 1057 854 q 1022 849 1034 849 q 1067 621 1055 738 q 1079 388 1079 504 q 1075 257 1079 323 q 1058 127 1072 191 q 1036 74 1052 97 q 998 34 1020 50 q 948 10 975 18 q 890 1 920 1 z "},"·":{"ha":345,"x_min":34,"x_max":222,"o":"m 125 404 q 87 411 104 404 q 59 430 71 418 q 40 460 47 443 q 34 498 34 477 q 44 529 34 516 q 70 550 54 542 q 102 563 85 559 q 135 566 120 566 q 165 563 150 566 q 194 552 181 559 q 214 532 206 545 q 222 502 222 519 q 215 463 222 481 q 196 431 208 444 q 165 411 183 418 q 125 404 147 404 z "},"∙":{"ha":345,"x_min":34,"x_max":222,"o":"m 125 404 q 87 411 104 404 q 59 430 71 418 q 40 460 47 443 q 34 498 34 477 q 44 529 34 516 q 70 550 54 542 q 102 563 85 559 q 135 566 120 566 q 165 563 150 566 q 194 552 181 559 q 214 532 206 545 q 222 502 222 519 q 215 463 222 481 q 196 431 208 444 q 165 411 183 418 q 125 404 147 404 z "},"¸":{"ha":385,"x_min":34,"x_max":351,"o":"m 177 -307 q 135 -303 159 -307 q 87 -290 110 -299 q 50 -266 65 -281 q 34 -227 34 -251 q 40 -203 34 -214 q 55 -184 45 -192 q 77 -173 64 -177 q 101 -169 89 -169 q 132 -174 117 -169 q 163 -179 147 -179 q 175 -178 168 -179 q 188 -174 182 -177 q 198 -167 194 -172 q 202 -156 202 -163 q 192 -140 202 -144 q 166 -133 182 -135 q 133 -131 151 -132 q 100 -124 115 -130 q 74 -108 84 -119 q 64 -75 64 -97 q 66 -52 64 -67 q 72 -19 68 -36 q 79 15 75 -1 q 85 39 82 31 q 100 54 88 51 q 123 58 113 58 q 143 56 131 58 q 166 49 155 54 q 186 38 178 45 q 194 21 194 31 q 188 -13 194 5 q 179 -47 182 -32 q 237 -53 207 -47 q 292 -71 267 -58 q 334 -106 317 -84 q 351 -163 351 -128 q 335 -223 351 -197 q 294 -269 319 -250 q 238 -297 269 -287 q 177 -307 208 -307 z "},"¹":{"ha":398,"x_min":34,"x_max":364,"o":"m 250 479 q 221 483 237 479 q 190 494 205 486 q 165 512 175 501 q 155 538 155 524 q 158 610 155 574 q 161 683 161 646 l 161 764 q 114 744 141 744 q 86 749 100 744 q 60 764 72 755 q 41 786 49 773 q 34 813 34 798 q 44 841 34 829 q 68 859 54 852 q 99 876 85 867 q 124 895 113 884 q 146 917 136 905 q 166 945 156 929 q 180 958 172 954 q 198 965 189 963 q 218 968 208 968 q 237 969 229 969 q 264 967 250 969 q 290 959 277 964 q 312 944 302 953 q 328 922 322 935 q 346 867 338 897 q 357 806 353 838 q 362 745 361 775 q 364 686 364 714 q 363 642 364 665 q 360 595 363 618 q 350 551 357 572 q 330 514 343 530 q 298 489 317 498 q 250 479 278 479 z "},"º":{"ha":512,"x_min":34,"x_max":478,"o":"m 255 485 q 165 503 205 485 q 95 552 124 521 q 50 625 66 583 q 34 715 34 667 q 50 809 34 764 q 94 890 65 854 q 164 947 123 926 q 256 969 205 969 q 350 948 309 969 q 419 891 391 926 q 463 810 448 856 q 478 717 478 765 q 462 626 478 668 q 417 552 446 584 q 346 503 387 521 q 255 485 305 485 m 257 653 q 284 660 273 653 q 302 679 295 667 q 311 704 309 690 q 314 731 314 718 q 312 758 314 743 q 303 784 309 772 q 287 804 297 796 q 261 812 277 812 q 233 804 244 812 q 214 782 221 795 q 205 753 208 768 q 202 724 202 737 q 205 698 202 711 q 214 675 208 686 q 232 659 221 665 q 257 653 242 653 z "},"»":{"ha":781,"x_min":34,"x_max":747,"o":"m 160 229 q 121 239 139 229 q 91 263 104 248 q 71 298 78 279 q 64 336 64 317 q 74 377 64 356 q 100 419 85 399 q 133 458 115 439 q 163 490 150 476 q 124 521 146 503 q 82 558 102 538 q 48 601 62 578 q 34 644 34 623 q 43 682 34 665 q 67 713 52 700 q 102 733 83 726 q 140 740 121 740 q 184 727 157 740 q 241 692 211 713 q 302 644 272 671 q 357 590 333 617 q 397 539 382 564 q 413 496 413 514 q 399 447 413 470 q 368 405 386 424 q 302 336 336 370 q 235 268 268 303 q 201 241 220 252 q 160 229 182 229 m 494 229 q 455 239 473 229 q 425 263 438 248 q 405 298 412 279 q 398 336 398 317 q 408 378 398 357 q 434 419 418 399 q 466 458 449 439 q 496 490 483 476 q 458 521 480 503 q 416 558 436 538 q 382 601 396 578 q 368 644 368 623 q 377 682 368 665 q 402 713 387 700 q 436 733 417 726 q 475 740 455 740 q 518 727 492 740 q 575 692 545 713 q 636 644 606 671 q 692 590 667 616 q 732 538 716 563 q 747 496 747 513 q 738 459 747 479 q 712 418 728 439 q 676 376 696 397 q 637 335 656 355 q 599 298 617 315 q 569 268 581 281 q 535 241 553 252 q 494 229 516 229 z "},"¼":{"ha":1055,"x_min":68,"x_max":987,"o":"m 283 479 q 255 483 271 479 q 224 494 239 486 q 199 512 209 501 q 189 538 189 524 q 192 610 189 574 q 195 683 195 646 l 195 764 q 148 744 175 744 q 120 749 134 744 q 94 764 106 755 q 75 786 83 773 q 68 813 68 798 q 78 841 68 829 q 102 859 88 852 q 133 876 119 867 q 158 895 146 884 q 180 917 170 905 q 200 945 190 929 q 214 958 205 954 q 232 965 222 963 q 252 968 242 968 q 271 969 262 969 q 298 967 284 969 q 323 959 311 964 q 346 944 336 953 q 361 922 356 935 q 379 867 372 897 q 391 806 387 838 q 396 745 395 775 q 398 686 398 714 q 397 642 398 665 q 394 595 397 618 q 384 551 391 572 q 364 514 377 530 q 332 489 351 498 q 283 479 312 479 m 339 22 q 305 28 324 22 q 268 46 286 35 q 239 73 251 58 q 227 104 227 87 q 241 143 227 109 q 277 231 254 177 q 329 352 300 284 q 390 490 358 419 q 452 631 421 562 q 509 759 483 701 q 554 858 535 817 q 579 911 572 899 q 605 941 590 932 q 644 951 620 951 q 685 943 662 951 q 727 922 707 935 q 760 890 747 908 q 773 851 773 871 q 764 827 773 848 q 738 769 754 805 q 700 686 722 733 q 652 585 677 639 q 600 475 627 532 q 546 362 573 418 q 495 257 519 307 q 450 165 471 206 q 415 95 430 123 q 394 54 401 66 q 372 30 385 37 q 339 22 359 22 m 760 270 l 797 270 q 796 323 797 297 q 793 377 795 350 q 775 324 783 351 q 760 270 766 298 m 873 0 q 844 4 861 0 q 814 16 828 8 q 791 36 801 24 q 782 64 782 47 q 786 110 782 86 q 791 156 789 134 q 761 155 780 156 q 718 154 741 154 q 662 156 690 154 q 609 166 633 159 q 569 188 585 174 q 553 225 553 202 q 558 260 553 238 q 572 308 564 282 q 591 362 580 334 q 614 413 602 389 q 638 454 626 437 q 662 477 651 471 q 701 487 681 487 q 730 482 715 487 q 757 469 745 477 q 779 448 770 460 q 793 421 789 435 q 806 449 796 437 q 828 471 815 462 q 856 485 840 479 q 886 490 871 490 q 929 477 911 490 q 957 443 946 464 q 975 396 968 422 q 983 344 981 370 q 986 293 986 317 q 987 250 987 268 q 986 203 987 230 q 983 149 986 177 q 974 95 980 121 q 955 47 967 68 q 922 13 942 26 q 873 0 903 0 z "},"½":{"ha":1065,"x_min":68,"x_max":998,"o":"m 283 479 q 255 483 271 479 q 224 494 239 486 q 199 512 209 501 q 189 538 189 524 q 192 610 189 574 q 195 683 195 646 l 195 764 q 148 744 175 744 q 120 749 134 744 q 94 764 106 755 q 75 786 83 773 q 68 813 68 798 q 78 841 68 829 q 102 859 88 852 q 133 876 119 867 q 158 895 146 884 q 180 917 170 905 q 200 945 190 929 q 214 958 205 954 q 232 965 222 963 q 252 968 242 968 q 271 969 262 969 q 298 967 284 969 q 323 959 311 964 q 346 944 336 953 q 361 922 356 935 q 379 867 372 897 q 391 806 387 838 q 396 745 395 775 q 398 686 398 714 q 397 642 398 665 q 394 595 397 618 q 384 551 391 572 q 364 514 377 530 q 332 489 351 498 q 283 479 312 479 m 340 22 q 306 28 326 22 q 270 46 287 35 q 240 73 252 58 q 229 104 229 87 q 242 143 229 109 q 278 231 256 177 q 330 352 301 284 q 391 490 359 419 q 453 631 422 562 q 510 759 484 701 q 555 858 536 817 q 581 911 574 899 q 606 941 591 932 q 645 951 621 951 q 686 943 663 951 q 728 922 709 935 q 761 890 748 908 q 774 851 774 871 q 765 827 774 848 q 739 769 755 805 q 701 686 723 733 q 653 585 679 639 q 601 475 628 532 q 548 362 574 418 q 496 257 521 307 q 452 165 472 206 q 417 95 431 123 q 395 54 402 66 q 373 30 386 37 q 340 22 360 22 m 797 0 q 769 0 787 0 q 730 2 751 1 q 685 7 708 3 q 644 17 663 11 q 614 34 626 24 q 602 60 602 45 q 616 118 602 92 q 651 169 630 145 q 696 213 672 193 q 741 252 720 234 q 776 287 762 271 q 790 319 790 304 q 789 328 790 323 q 787 337 789 333 l 780 341 q 763 333 768 341 q 756 314 759 325 q 751 291 754 302 q 740 271 749 279 q 702 252 724 258 q 660 245 680 245 q 629 248 645 245 q 599 258 612 251 q 577 276 586 264 q 568 306 568 288 q 588 385 568 350 q 638 443 607 419 q 708 478 669 466 q 787 490 747 490 q 856 480 821 490 q 918 450 890 470 q 964 401 946 431 q 981 334 981 372 q 969 279 981 303 q 939 235 958 255 q 899 196 921 214 q 856 161 876 178 q 870 165 861 162 q 888 171 878 168 q 906 177 897 174 q 918 179 914 179 q 950 168 936 179 q 975 141 964 157 q 992 106 986 125 q 998 73 998 88 q 987 36 998 50 q 959 14 977 22 q 920 3 942 6 q 876 -1 899 -1 q 833 -1 854 -1 q 797 0 812 0 z "},"¾":{"ha":1125,"x_min":68,"x_max":1057,"o":"m 277 482 q 238 485 260 482 q 193 494 216 488 q 147 509 170 500 q 107 532 125 519 q 79 564 90 546 q 68 604 68 581 q 76 636 68 621 q 97 665 84 652 q 126 685 110 677 q 159 692 142 692 q 190 686 178 692 q 211 673 202 680 q 228 660 220 666 q 248 654 236 654 q 260 655 254 654 q 271 659 266 656 q 280 666 276 661 q 283 677 283 670 q 275 691 283 686 q 253 698 266 696 q 224 703 239 701 q 195 709 208 705 q 173 722 182 713 q 164 747 164 731 q 176 779 164 769 q 203 797 188 789 q 232 811 218 804 q 250 833 245 819 q 227 830 238 833 q 205 824 216 827 q 184 818 195 821 q 161 815 173 815 q 132 822 146 815 q 108 840 118 829 q 92 865 98 851 q 85 895 85 880 q 96 924 85 911 q 123 945 106 936 q 160 959 140 954 q 201 968 181 964 q 240 972 222 971 q 270 974 258 974 q 302 972 283 974 q 342 967 321 971 q 383 957 363 964 q 420 941 404 951 q 446 918 436 931 q 456 886 456 904 q 447 852 456 871 q 424 815 437 834 q 396 781 410 797 q 374 753 382 764 q 413 732 394 745 q 447 703 432 720 q 471 665 462 686 q 479 621 479 645 q 459 556 479 583 q 410 513 439 530 q 344 490 380 497 q 277 482 309 482 m 413 22 q 379 28 398 22 q 342 46 359 35 q 313 73 325 58 q 301 104 301 87 q 315 143 301 109 q 351 231 328 177 q 403 352 374 284 q 464 490 432 419 q 526 631 495 562 q 583 759 557 701 q 628 858 609 817 q 653 911 646 899 q 679 941 664 932 q 718 951 694 951 q 759 943 736 951 q 801 922 781 935 q 834 890 821 908 q 847 851 847 871 q 838 827 847 848 q 812 769 828 805 q 773 686 795 733 q 726 585 751 639 q 674 475 701 532 q 620 362 647 418 q 569 257 593 307 q 524 165 545 206 q 489 95 504 123 q 468 54 475 66 q 446 30 458 37 q 413 22 433 22 m 831 270 l 867 270 q 867 323 867 297 q 863 377 866 350 q 845 324 854 351 q 831 270 837 298 m 944 0 q 915 4 931 0 q 885 16 899 8 q 862 36 871 24 q 852 64 852 47 q 856 110 852 86 q 862 156 860 134 q 831 155 850 156 q 788 154 812 154 q 732 156 761 154 q 679 166 703 159 q 640 188 655 174 q 624 225 624 202 q 629 260 624 238 q 642 308 634 282 q 661 362 650 334 q 684 413 672 389 q 709 454 696 437 q 732 477 721 471 q 771 487 751 487 q 801 482 786 487 q 828 469 815 477 q 850 448 840 460 q 863 421 859 435 q 876 449 867 437 q 898 471 886 462 q 926 485 911 479 q 956 490 941 490 q 999 477 982 490 q 1028 443 1017 464 q 1045 396 1039 422 q 1054 344 1051 370 q 1057 293 1057 317 q 1057 250 1057 268 q 1057 203 1057 230 q 1054 149 1057 177 q 1044 95 1050 121 q 1025 47 1038 68 q 993 13 1013 26 q 944 0 973 0 z "},"¿":{"ha":788,"x_min":34,"x_max":754,"o":"m 408 455 q 369 458 391 455 q 328 471 347 462 q 296 494 309 479 q 283 532 283 509 q 295 582 283 560 q 326 619 307 604 q 370 642 345 634 q 420 650 395 650 q 470 642 446 650 q 511 621 493 635 q 540 585 529 606 q 551 536 551 564 q 535 498 551 513 q 497 473 519 482 q 450 459 475 463 q 408 455 426 455 m 363 -321 q 289 -315 328 -321 q 214 -297 251 -309 q 145 -265 178 -284 q 87 -219 112 -245 q 48 -157 63 -192 q 34 -81 34 -123 q 45 -9 34 -41 q 76 48 57 22 q 119 97 95 75 q 166 141 142 119 q 212 186 190 163 q 250 236 234 209 q 261 269 258 252 q 267 304 264 287 q 275 336 269 321 q 295 362 281 351 q 328 380 309 372 q 368 393 347 388 q 409 400 388 397 q 447 402 429 402 q 484 399 464 402 q 520 388 503 396 q 548 367 537 380 q 559 332 559 353 q 539 271 559 302 q 490 209 519 240 q 425 146 460 177 q 359 87 389 115 q 310 36 330 60 q 290 -7 290 12 q 296 -42 290 -26 q 313 -72 302 -59 q 341 -92 325 -84 q 376 -99 357 -99 q 427 -86 402 -99 q 463 -54 452 -73 q 478 -13 474 -35 q 485 33 483 9 q 492 80 486 57 q 512 123 498 102 q 556 160 526 144 q 623 177 588 177 q 681 166 656 177 q 722 135 706 155 q 746 89 739 116 q 754 31 754 62 q 723 -119 754 -54 q 638 -230 692 -184 q 514 -298 585 -275 q 363 -321 444 -321 z "},"À":{"ha":925,"x_min":18,"x_max":897,"o":"m 688 7 q 630 15 657 7 q 583 39 603 23 q 550 80 562 56 q 538 137 538 104 q 538 228 538 183 q 539 319 538 273 q 469 320 504 320 q 398 321 433 321 l 396 134 q 376 76 395 100 q 329 37 357 52 q 268 15 300 22 q 207 7 235 7 q 136 16 170 7 q 76 43 102 24 q 34 90 50 61 q 18 159 18 119 q 23 248 18 203 q 34 339 27 294 q 51 429 41 385 q 71 516 60 474 q 103 621 85 568 q 148 725 122 675 q 206 820 173 776 q 281 897 239 864 q 374 950 323 930 q 487 969 425 969 q 596 946 547 969 q 686 882 646 922 q 758 788 726 842 q 812 673 789 734 q 851 547 836 612 q 878 418 867 481 q 892 298 888 355 q 897 195 897 241 q 879 118 897 153 q 833 58 862 83 q 766 20 804 33 q 688 7 728 7 m 541 510 q 541 539 541 519 q 538 585 541 559 q 533 639 536 611 q 523 689 529 667 q 507 727 516 712 q 484 742 497 742 q 459 728 470 742 q 439 691 448 713 q 425 641 431 668 q 414 588 418 614 q 408 542 410 563 q 405 511 406 521 q 473 511 439 511 q 541 510 507 511 m 507 1052 q 463 1059 487 1052 q 414 1080 439 1067 q 367 1111 390 1093 q 327 1148 345 1128 q 298 1190 309 1168 q 288 1233 288 1212 q 293 1262 288 1249 q 308 1287 298 1276 q 332 1303 318 1297 q 361 1310 345 1310 q 410 1294 389 1310 q 446 1258 431 1278 q 564 1123 501 1188 q 575 1109 570 1117 q 580 1093 580 1102 q 572 1073 580 1080 q 552 1060 564 1065 q 529 1054 541 1055 q 507 1052 516 1052 z "},"Á":{"ha":925,"x_min":18,"x_max":897,"o":"m 688 7 q 630 15 657 7 q 583 39 603 23 q 550 80 562 56 q 538 137 538 104 q 538 228 538 183 q 539 319 538 273 q 469 320 504 320 q 398 321 433 321 l 396 134 q 376 76 395 100 q 329 37 357 52 q 268 15 300 22 q 207 7 235 7 q 136 16 170 7 q 76 43 102 24 q 34 90 50 61 q 18 159 18 119 q 23 248 18 203 q 34 339 27 294 q 51 429 41 385 q 71 516 60 474 q 103 621 85 568 q 148 725 122 675 q 206 820 173 776 q 281 897 239 864 q 374 950 323 930 q 487 969 425 969 q 596 946 547 969 q 686 882 646 922 q 758 788 726 842 q 812 673 789 734 q 851 547 836 612 q 878 418 867 481 q 892 298 888 355 q 897 195 897 241 q 879 118 897 153 q 833 58 862 83 q 766 20 804 33 q 688 7 728 7 m 541 510 q 541 539 541 519 q 538 585 541 559 q 533 639 536 611 q 523 689 529 667 q 507 727 516 712 q 484 742 497 742 q 459 728 470 742 q 439 691 448 713 q 425 641 431 668 q 414 588 418 614 q 408 542 410 563 q 405 511 406 521 q 473 511 439 511 q 541 510 507 511 m 458 1052 q 436 1054 449 1052 q 412 1060 423 1055 q 393 1073 401 1065 q 385 1093 385 1080 q 389 1109 385 1101 q 400 1123 394 1117 q 461 1188 432 1156 q 518 1258 490 1221 q 555 1294 534 1278 q 604 1310 576 1310 q 633 1303 619 1310 q 656 1287 646 1297 q 671 1262 666 1276 q 677 1233 677 1249 q 666 1190 677 1212 q 637 1148 655 1168 q 597 1111 620 1128 q 550 1080 574 1093 q 502 1059 526 1067 q 458 1052 477 1052 z "},"Â":{"ha":925,"x_min":18,"x_max":897,"o":"m 688 7 q 630 15 657 7 q 583 39 603 23 q 550 80 562 56 q 538 137 538 104 q 538 228 538 183 q 539 319 538 273 q 469 320 504 320 q 398 321 433 321 l 396 134 q 376 76 395 100 q 329 37 357 52 q 268 15 300 22 q 207 7 235 7 q 136 16 170 7 q 76 43 102 24 q 34 90 50 61 q 18 159 18 119 q 23 248 18 203 q 34 339 27 294 q 51 429 41 385 q 71 516 60 474 q 103 621 85 568 q 148 725 122 675 q 206 820 173 776 q 281 897 239 864 q 374 950 323 930 q 487 969 425 969 q 596 946 547 969 q 686 882 646 922 q 758 788 726 842 q 812 673 789 734 q 851 547 836 612 q 878 418 867 481 q 892 298 888 355 q 897 195 897 241 q 879 118 897 153 q 833 58 862 83 q 766 20 804 33 q 688 7 728 7 m 541 510 q 541 539 541 519 q 538 585 541 559 q 533 639 536 611 q 523 689 529 667 q 507 727 516 712 q 484 742 497 742 q 459 728 470 742 q 439 691 448 713 q 425 641 431 668 q 414 588 418 614 q 408 542 410 563 q 405 511 406 521 q 473 511 439 511 q 541 510 507 511 m 585 1052 q 556 1056 572 1052 q 533 1072 540 1059 q 508 1125 519 1098 q 482 1177 496 1152 q 456 1125 468 1152 q 431 1072 444 1099 q 408 1056 424 1059 q 379 1052 392 1052 q 355 1054 368 1052 q 331 1062 342 1057 q 313 1076 320 1067 q 305 1098 305 1085 q 312 1132 305 1110 q 331 1179 319 1154 q 358 1232 343 1205 q 389 1282 373 1259 q 419 1321 404 1305 q 446 1341 434 1337 q 482 1348 463 1348 q 518 1341 501 1348 q 545 1321 530 1337 q 575 1282 559 1305 q 606 1232 591 1259 q 632 1179 621 1205 q 651 1132 644 1154 q 659 1098 659 1110 q 651 1076 659 1085 q 632 1062 644 1067 q 608 1054 621 1057 q 585 1052 595 1052 z "},"Ã":{"ha":925,"x_min":18,"x_max":897,"o":"m 688 7 q 630 15 657 7 q 583 39 603 23 q 550 80 562 56 q 538 137 538 104 q 538 228 538 183 q 539 319 538 273 q 469 320 504 320 q 398 321 433 321 l 396 134 q 376 76 395 100 q 329 37 357 52 q 268 15 300 22 q 207 7 235 7 q 136 16 170 7 q 76 43 102 24 q 34 90 50 61 q 18 159 18 119 q 23 248 18 203 q 34 339 27 294 q 51 429 41 385 q 71 516 60 474 q 103 621 85 568 q 148 725 122 675 q 206 820 173 776 q 281 897 239 864 q 374 950 323 930 q 487 969 425 969 q 596 946 547 969 q 686 882 646 922 q 758 788 726 842 q 812 673 789 734 q 851 547 836 612 q 878 418 867 481 q 892 298 888 355 q 897 195 897 241 q 879 118 897 153 q 833 58 862 83 q 766 20 804 33 q 688 7 728 7 m 541 510 q 541 539 541 519 q 538 585 541 559 q 533 639 536 611 q 523 689 529 667 q 507 727 516 712 q 484 742 497 742 q 459 728 470 742 q 439 691 448 713 q 425 641 431 668 q 414 588 418 614 q 408 542 410 563 q 405 511 406 521 q 473 511 439 511 q 541 510 507 511 m 356 1051 q 329 1056 343 1051 q 304 1070 315 1061 q 286 1091 293 1079 q 279 1118 279 1103 q 290 1155 279 1134 q 319 1194 302 1175 q 357 1224 336 1212 q 395 1236 378 1236 q 432 1229 414 1236 q 465 1213 449 1221 q 495 1196 480 1204 q 524 1189 510 1189 q 542 1193 535 1189 q 553 1204 548 1198 q 563 1218 558 1210 q 573 1232 567 1225 q 587 1242 578 1238 q 608 1246 595 1246 q 635 1241 621 1246 q 660 1225 649 1235 q 678 1202 671 1215 q 685 1175 685 1190 q 674 1138 685 1159 q 646 1098 663 1117 q 610 1067 629 1080 q 572 1055 590 1055 q 534 1063 552 1055 q 500 1081 517 1071 q 469 1099 484 1090 q 440 1107 454 1107 q 418 1098 426 1107 q 403 1079 410 1089 q 386 1060 396 1069 q 356 1051 376 1051 z "},"Ä":{"ha":925,"x_min":18,"x_max":897,"o":"m 688 7 q 630 15 657 7 q 583 39 603 23 q 550 80 562 56 q 538 137 538 104 q 538 228 538 183 q 539 319 538 273 q 469 320 504 320 q 398 321 433 321 l 396 134 q 376 76 395 100 q 329 37 357 52 q 268 15 300 22 q 207 7 235 7 q 136 16 170 7 q 76 43 102 24 q 34 90 50 61 q 18 159 18 119 q 23 248 18 203 q 34 339 27 294 q 51 429 41 385 q 71 516 60 474 q 103 621 85 568 q 148 725 122 675 q 206 820 173 776 q 281 897 239 864 q 374 950 323 930 q 487 969 425 969 q 596 946 547 969 q 686 882 646 922 q 758 788 726 842 q 812 673 789 734 q 851 547 836 612 q 878 418 867 481 q 892 298 888 355 q 897 195 897 241 q 879 118 897 153 q 833 58 862 83 q 766 20 804 33 q 688 7 728 7 m 541 510 q 541 539 541 519 q 538 585 541 559 q 533 639 536 611 q 523 689 529 667 q 507 727 516 712 q 484 742 497 742 q 459 728 470 742 q 439 691 448 713 q 425 641 431 668 q 414 588 418 614 q 408 542 410 563 q 405 511 406 521 q 473 511 439 511 q 541 510 507 511 m 372 1051 q 333 1059 351 1051 q 303 1079 315 1066 q 284 1110 291 1092 q 277 1149 277 1128 q 288 1181 277 1168 q 314 1203 298 1194 q 348 1215 330 1211 q 381 1219 366 1219 q 413 1216 397 1219 q 443 1205 429 1213 q 464 1184 456 1197 q 472 1153 472 1171 q 465 1113 472 1131 q 445 1080 458 1094 q 413 1059 431 1067 q 372 1051 395 1051 m 587 1051 q 548 1059 566 1051 q 519 1079 531 1066 q 500 1110 507 1092 q 493 1149 493 1128 q 504 1181 493 1168 q 530 1203 514 1195 q 563 1216 545 1212 q 597 1219 581 1219 q 629 1216 612 1219 q 658 1204 645 1213 q 679 1184 671 1196 q 687 1153 687 1171 q 680 1113 687 1131 q 660 1080 673 1094 q 628 1059 646 1067 q 587 1051 610 1051 z "},"Å":{"ha":925,"x_min":18,"x_max":897,"o":"m 688 7 q 630 15 657 7 q 583 39 603 23 q 550 80 562 56 q 538 137 538 104 q 538 228 538 183 q 539 319 538 273 q 469 320 504 320 q 398 321 433 321 l 396 134 q 376 76 395 100 q 329 37 357 52 q 268 15 300 22 q 207 7 235 7 q 136 16 170 7 q 76 43 102 24 q 34 90 50 61 q 18 159 18 119 q 23 248 18 203 q 34 339 27 294 q 51 429 41 385 q 71 516 60 474 q 103 621 85 568 q 148 725 122 675 q 206 820 173 776 q 281 897 239 864 q 374 950 323 930 q 487 969 425 969 q 596 946 547 969 q 686 882 646 922 q 758 788 726 842 q 812 673 789 734 q 851 547 836 612 q 878 418 867 481 q 892 298 888 355 q 897 195 897 241 q 879 118 897 153 q 833 58 862 83 q 766 20 804 33 q 688 7 728 7 m 541 510 q 541 539 541 519 q 538 585 541 559 q 533 639 536 611 q 523 689 529 667 q 507 727 516 712 q 484 742 497 742 q 459 728 470 742 q 439 691 448 713 q 425 641 431 668 q 414 588 418 614 q 408 542 410 563 q 405 511 406 521 q 473 511 439 511 q 541 510 507 511 m 485 1051 q 425 1061 452 1051 q 376 1090 397 1071 q 344 1136 355 1109 q 332 1196 332 1162 q 343 1257 332 1229 q 374 1305 354 1284 q 421 1338 394 1326 q 481 1350 448 1350 q 541 1340 513 1350 q 589 1311 568 1330 q 620 1265 609 1292 q 631 1205 631 1239 q 621 1145 631 1173 q 591 1096 610 1117 q 545 1063 572 1076 q 485 1051 517 1051 m 488 1118 q 508 1125 500 1118 q 520 1143 516 1133 q 527 1164 525 1153 q 528 1185 528 1176 q 527 1205 528 1195 q 520 1224 525 1215 q 508 1239 515 1233 q 489 1244 500 1244 q 468 1238 477 1244 q 454 1222 459 1232 q 446 1201 448 1213 q 443 1179 443 1190 q 446 1159 443 1170 q 454 1139 448 1148 q 468 1124 459 1130 q 488 1118 476 1118 z "},"Æ":{"ha":1267,"x_min":18,"x_max":1416,"o":"m 541 510 q 541 539 541 519 q 538 585 541 559 q 533 639 536 611 q 523 689 529 667 q 507 727 516 712 q 484 742 497 742 q 459 728 470 742 q 439 691 448 713 q 425 641 431 668 q 414 588 418 614 q 408 542 410 563 q 405 511 406 521 q 473 511 439 511 q 541 510 507 511 m 960 -10 q 913 -9 937 -10 q 864 -4 888 -7 q 817 6 840 0 q 774 24 794 13 q 688 7 732 7 q 630 15 657 7 q 583 39 603 23 q 550 80 562 56 q 538 137 538 104 q 538 228 538 183 q 539 319 538 273 q 469 320 504 320 q 398 321 433 321 q 399 228 398 274 q 396 134 399 181 q 375 76 394 100 q 329 36 356 52 q 269 14 301 21 q 207 7 236 7 q 136 16 170 7 q 76 43 102 24 q 34 90 50 61 q 18 159 18 119 q 34 339 18 248 q 71 516 50 431 q 103 621 85 568 q 148 725 122 675 q 206 820 173 776 q 281 897 239 864 q 374 950 323 930 q 487 969 425 969 q 604 943 553 969 q 699 869 654 918 q 703 887 701 877 q 710 907 706 897 q 720 925 714 917 q 732 939 725 934 q 768 952 744 947 q 821 962 791 958 q 884 969 851 966 q 947 972 916 971 q 1003 974 977 973 q 1043 974 1028 974 q 1153 973 1098 974 q 1262 968 1207 972 q 1313 954 1292 966 q 1348 923 1335 942 q 1368 878 1362 903 q 1374 826 1374 853 q 1369 782 1374 807 q 1354 733 1364 756 q 1327 695 1344 711 q 1286 680 1310 680 q 1270 682 1278 680 q 1255 687 1263 684 q 1153 722 1202 709 q 1044 734 1103 734 q 1009 733 1027 734 q 974 730 991 732 l 973 654 l 974 575 q 1022 585 994 578 q 1078 599 1050 592 q 1132 612 1107 606 q 1171 618 1157 618 q 1212 610 1192 618 q 1246 589 1231 602 q 1270 556 1261 575 q 1278 515 1278 538 q 1265 470 1278 488 q 1233 440 1253 452 q 1188 425 1213 429 q 1142 420 1164 420 q 1059 428 1099 420 q 978 444 1019 435 q 984 349 981 396 q 994 254 988 302 q 1124 287 1063 265 q 1249 339 1185 309 q 1261 344 1255 342 q 1275 346 1267 346 q 1331 324 1305 346 q 1376 270 1357 302 q 1406 203 1395 238 q 1416 142 1416 168 q 1389 64 1416 92 q 1314 29 1362 37 q 1137 3 1226 16 q 960 -10 1048 -10 z "},"Ç":{"ha":805,"x_min":16,"x_max":802,"o":"m 486 -307 q 443 -303 468 -307 q 396 -290 418 -299 q 358 -266 374 -281 q 342 -227 342 -250 q 348 -203 342 -214 q 363 -184 354 -192 q 385 -173 373 -177 q 410 -169 397 -169 q 441 -174 426 -169 q 471 -179 456 -179 q 483 -178 476 -179 q 496 -174 490 -177 q 506 -167 502 -172 q 511 -156 511 -163 q 500 -139 511 -144 q 475 -133 490 -135 q 441 -130 459 -131 q 408 -124 424 -129 q 382 -108 393 -119 q 372 -75 372 -97 q 376 -41 372 -59 q 383 -8 380 -24 q 227 35 295 -1 q 111 129 158 71 q 40 262 64 187 q 16 422 16 338 q 33 566 16 497 q 82 696 50 635 q 160 807 114 757 q 263 893 205 857 q 389 949 321 929 q 533 969 456 969 q 616 959 578 969 q 683 927 655 949 q 727 871 711 905 q 743 787 743 836 q 720 707 743 735 q 643 680 697 680 q 600 683 621 680 q 556 687 578 687 q 472 671 509 687 q 409 628 435 656 q 371 561 384 600 q 357 476 357 522 q 365 413 357 448 q 388 347 372 378 q 429 295 404 316 q 489 274 454 274 q 541 288 519 274 q 583 319 563 302 q 626 350 604 336 q 679 363 648 363 q 730 350 707 363 q 769 316 753 337 q 793 269 785 295 q 802 217 802 243 q 788 148 802 178 q 750 93 774 117 q 696 52 727 69 q 631 22 665 34 q 563 3 597 10 q 496 -6 528 -3 q 491 -26 494 -16 q 488 -47 489 -37 q 546 -53 515 -47 q 601 -71 576 -58 q 643 -106 626 -84 q 659 -163 659 -128 q 643 -223 659 -197 q 603 -269 627 -250 q 547 -297 578 -287 q 486 -307 516 -307 z "},"È":{"ha":783,"x_min":43,"x_max":782,"o":"m 326 -10 q 253 -7 292 -10 q 177 8 213 -3 q 112 42 140 20 q 73 104 84 65 q 61 165 66 130 q 52 243 56 201 q 47 329 49 284 q 44 415 45 373 q 43 495 43 457 q 43 561 43 532 q 43 607 43 576 q 45 677 43 638 q 50 759 47 716 q 59 839 53 802 q 75 903 65 876 q 98 939 84 930 q 135 952 111 947 q 189 962 159 958 q 250 969 218 966 q 312 972 282 971 q 368 974 342 973 q 409 974 393 974 q 509 972 460 974 q 609 969 559 971 q 709 930 677 966 q 740 826 740 895 q 735 782 740 807 q 720 733 730 756 q 693 695 710 711 q 652 680 676 680 q 636 682 644 680 q 621 687 629 684 q 518 722 568 709 q 410 734 468 734 q 375 733 393 734 q 340 730 357 732 l 339 654 l 340 575 q 387 585 359 578 q 444 599 415 592 q 497 612 472 606 q 536 618 522 618 q 577 610 558 618 q 612 589 597 602 q 635 556 627 575 q 644 515 644 538 q 631 470 644 488 q 598 440 618 452 q 554 425 578 429 q 508 420 530 420 q 425 428 465 420 q 344 444 385 435 q 350 349 347 396 q 359 254 354 302 q 490 287 429 265 q 614 339 551 309 q 627 344 621 342 q 641 346 633 346 q 697 324 671 346 q 742 270 723 302 q 771 203 761 238 q 782 142 782 168 q 755 64 782 92 q 680 29 728 37 q 504 3 592 16 q 326 -10 415 -10 m 437 1052 q 393 1059 417 1052 q 345 1080 369 1067 q 297 1111 320 1093 q 257 1148 275 1128 q 229 1190 239 1168 q 218 1233 218 1212 q 223 1262 218 1249 q 238 1287 229 1276 q 262 1303 248 1297 q 291 1310 275 1310 q 340 1294 319 1310 q 376 1258 361 1278 q 494 1123 431 1188 q 505 1109 500 1117 q 510 1093 510 1102 q 502 1073 510 1080 q 483 1060 494 1065 q 459 1054 471 1055 q 437 1052 446 1052 z "},"É":{"ha":783,"x_min":43,"x_max":782,"o":"m 326 -10 q 253 -7 292 -10 q 177 8 213 -3 q 112 42 140 20 q 73 104 84 65 q 61 165 66 130 q 52 243 56 201 q 47 329 49 284 q 44 415 45 373 q 43 495 43 457 q 43 561 43 532 q 43 607 43 576 q 45 677 43 638 q 50 759 47 716 q 59 839 53 802 q 75 903 65 876 q 98 939 84 930 q 135 952 111 947 q 189 962 159 958 q 250 969 218 966 q 312 972 282 971 q 368 974 342 973 q 409 974 393 974 q 509 972 460 974 q 609 969 559 971 q 709 930 677 966 q 740 826 740 895 q 735 782 740 807 q 720 733 730 756 q 693 695 710 711 q 652 680 676 680 q 636 682 644 680 q 621 687 629 684 q 518 722 568 709 q 410 734 468 734 q 375 733 393 734 q 340 730 357 732 l 339 654 l 340 575 q 387 585 359 578 q 444 599 415 592 q 497 612 472 606 q 536 618 522 618 q 577 610 558 618 q 612 589 597 602 q 635 556 627 575 q 644 515 644 538 q 631 470 644 488 q 598 440 618 452 q 554 425 578 429 q 508 420 530 420 q 425 428 465 420 q 344 444 385 435 q 350 349 347 396 q 359 254 354 302 q 490 287 429 265 q 614 339 551 309 q 627 344 621 342 q 641 346 633 346 q 697 324 671 346 q 742 270 723 302 q 771 203 761 238 q 782 142 782 168 q 755 64 782 92 q 680 29 728 37 q 504 3 592 16 q 326 -10 415 -10 m 388 1052 q 366 1054 379 1052 q 342 1060 353 1055 q 323 1073 331 1065 q 315 1093 315 1080 q 319 1109 315 1101 q 330 1123 324 1117 q 391 1188 362 1156 q 448 1258 420 1221 q 485 1294 464 1278 q 534 1310 506 1310 q 563 1303 549 1310 q 586 1287 576 1297 q 602 1262 596 1276 q 607 1233 607 1249 q 596 1190 607 1212 q 568 1148 585 1168 q 527 1111 550 1128 q 480 1080 505 1093 q 432 1059 456 1067 q 388 1052 408 1052 z "},"Ê":{"ha":783,"x_min":43,"x_max":782,"o":"m 326 -10 q 253 -7 292 -10 q 177 8 213 -3 q 112 42 140 20 q 73 104 84 65 q 61 165 66 130 q 52 243 56 201 q 47 329 49 284 q 44 415 45 373 q 43 495 43 457 q 43 561 43 532 q 43 607 43 576 q 45 677 43 638 q 50 759 47 716 q 59 839 53 802 q 75 903 65 876 q 98 939 84 930 q 135 952 111 947 q 189 962 159 958 q 250 969 218 966 q 312 972 282 971 q 368 974 342 973 q 409 974 393 974 q 509 972 460 974 q 609 969 559 971 q 709 930 677 966 q 740 826 740 895 q 735 782 740 807 q 720 733 730 756 q 693 695 710 711 q 652 680 676 680 q 636 682 644 680 q 621 687 629 684 q 518 722 568 709 q 410 734 468 734 q 375 733 393 734 q 340 730 357 732 l 339 654 l 340 575 q 387 585 359 578 q 444 599 415 592 q 497 612 472 606 q 536 618 522 618 q 577 610 558 618 q 612 589 597 602 q 635 556 627 575 q 644 515 644 538 q 631 470 644 488 q 598 440 618 452 q 554 425 578 429 q 508 420 530 420 q 425 428 465 420 q 344 444 385 435 q 350 349 347 396 q 359 254 354 302 q 490 287 429 265 q 614 339 551 309 q 627 344 621 342 q 641 346 633 346 q 697 324 671 346 q 742 270 723 302 q 771 203 761 238 q 782 142 782 168 q 755 64 782 92 q 680 29 728 37 q 504 3 592 16 q 326 -10 415 -10 m 515 1052 q 486 1056 502 1052 q 463 1072 470 1059 q 438 1125 450 1098 q 412 1177 427 1152 q 386 1125 398 1152 q 361 1072 374 1099 q 338 1056 354 1059 q 309 1052 322 1052 q 286 1054 298 1052 q 261 1062 273 1057 q 243 1076 250 1067 q 235 1098 235 1085 q 242 1132 235 1110 q 261 1179 250 1154 q 288 1232 273 1205 q 319 1282 303 1259 q 349 1321 334 1305 q 376 1341 364 1337 q 412 1348 393 1348 q 448 1341 431 1348 q 475 1321 460 1337 q 505 1282 490 1305 q 536 1232 521 1259 q 563 1179 551 1205 q 582 1132 574 1154 q 589 1098 589 1110 q 581 1076 589 1085 q 563 1062 574 1067 q 538 1054 551 1057 q 515 1052 526 1052 z "},"Ë":{"ha":783,"x_min":43,"x_max":782,"o":"m 326 -10 q 253 -7 292 -10 q 177 8 213 -3 q 112 42 140 20 q 73 104 84 65 q 61 165 66 130 q 52 243 56 201 q 47 329 49 284 q 44 415 45 373 q 43 495 43 457 q 43 561 43 532 q 43 607 43 576 q 45 677 43 638 q 50 759 47 716 q 59 839 53 802 q 75 903 65 876 q 98 939 84 930 q 135 952 111 947 q 189 962 159 958 q 250 969 218 966 q 312 972 282 971 q 368 974 342 973 q 409 974 393 974 q 509 972 460 974 q 609 969 559 971 q 709 930 677 966 q 740 826 740 895 q 735 782 740 807 q 720 733 730 756 q 693 695 710 711 q 652 680 676 680 q 636 682 644 680 q 621 687 629 684 q 518 722 568 709 q 410 734 468 734 q 375 733 393 734 q 340 730 357 732 l 339 654 l 340 575 q 387 585 359 578 q 444 599 415 592 q 497 612 472 606 q 536 618 522 618 q 577 610 558 618 q 612 589 597 602 q 635 556 627 575 q 644 515 644 538 q 631 470 644 488 q 598 440 618 452 q 554 425 578 429 q 508 420 530 420 q 425 428 465 420 q 344 444 385 435 q 350 349 347 396 q 359 254 354 302 q 490 287 429 265 q 614 339 551 309 q 627 344 621 342 q 641 346 633 346 q 697 324 671 346 q 742 270 723 302 q 771 203 761 238 q 782 142 782 168 q 755 64 782 92 q 680 29 728 37 q 504 3 592 16 q 326 -10 415 -10 m 302 1051 q 263 1059 281 1051 q 233 1079 245 1066 q 214 1110 221 1092 q 208 1149 208 1128 q 218 1181 208 1168 q 244 1203 229 1194 q 278 1215 260 1211 q 311 1219 296 1219 q 343 1216 327 1219 q 373 1205 359 1213 q 394 1184 386 1197 q 402 1153 402 1171 q 395 1113 402 1131 q 375 1080 388 1094 q 343 1059 361 1067 q 302 1051 325 1051 m 517 1051 q 478 1059 496 1051 q 449 1079 461 1066 q 430 1110 437 1092 q 423 1149 423 1128 q 434 1181 423 1168 q 460 1203 444 1195 q 493 1216 475 1212 q 527 1219 511 1219 q 559 1216 543 1219 q 588 1204 575 1213 q 609 1184 601 1196 q 617 1153 617 1171 q 610 1113 617 1131 q 590 1080 603 1094 q 558 1059 576 1067 q 517 1051 540 1051 z "},"Ì":{"ha":535,"x_min":8,"x_max":532,"o":"m 84 21 q 36 53 52 29 q 20 109 20 77 q 24 140 20 122 q 37 174 28 158 q 57 201 45 190 q 87 212 70 212 q 109 211 98 212 q 130 209 119 210 q 113 345 119 277 q 103 483 106 414 q 100 621 100 552 q 99 759 99 690 q 87 758 93 758 q 75 758 81 758 q 45 768 58 758 q 24 795 33 779 q 12 829 16 811 q 8 861 8 847 q 12 889 8 875 q 23 915 16 903 q 49 937 31 928 q 90 952 66 946 q 140 961 113 958 q 192 967 167 965 q 240 969 218 968 q 277 969 262 969 q 325 969 298 969 q 378 967 351 969 q 431 958 406 964 q 476 939 456 951 q 508 905 496 926 q 519 853 519 884 q 494 789 519 812 q 429 766 469 766 q 418 588 421 677 q 415 411 415 500 q 418 307 415 359 q 417 203 421 254 l 442 203 q 507 180 482 203 q 532 117 532 157 q 511 52 532 75 q 457 17 490 28 q 388 3 425 5 q 317 0 350 0 q 200 3 258 0 q 84 21 142 5 m 294 1052 q 251 1059 275 1052 q 202 1080 227 1067 q 155 1111 178 1093 q 115 1148 132 1128 q 86 1190 97 1168 q 75 1233 75 1212 q 81 1262 75 1249 q 96 1287 86 1276 q 119 1303 106 1297 q 149 1310 133 1310 q 197 1294 176 1310 q 234 1258 218 1278 q 352 1123 289 1188 q 363 1109 358 1117 q 368 1093 368 1102 q 359 1073 368 1080 q 340 1060 351 1065 q 316 1054 329 1055 q 294 1052 304 1052 z "},"Í":{"ha":535,"x_min":8,"x_max":532,"o":"m 84 21 q 36 53 52 29 q 20 109 20 77 q 24 140 20 122 q 37 174 28 158 q 57 201 45 190 q 87 212 70 212 q 109 211 98 212 q 130 209 119 210 q 113 345 119 277 q 103 483 106 414 q 100 621 100 552 q 99 759 99 690 q 87 758 93 758 q 75 758 81 758 q 45 768 58 758 q 24 795 33 779 q 12 829 16 811 q 8 861 8 847 q 12 889 8 875 q 23 915 16 903 q 49 937 31 928 q 90 952 66 946 q 140 961 113 958 q 192 967 167 965 q 240 969 218 968 q 277 969 262 969 q 325 969 298 969 q 378 967 351 969 q 431 958 406 964 q 476 939 456 951 q 508 905 496 926 q 519 853 519 884 q 494 789 519 812 q 429 766 469 766 q 418 588 421 677 q 415 411 415 500 q 418 307 415 359 q 417 203 421 254 l 442 203 q 507 180 482 203 q 532 117 532 157 q 511 52 532 75 q 457 17 490 28 q 388 3 425 5 q 317 0 350 0 q 200 3 258 0 q 84 21 142 5 m 245 1052 q 224 1054 237 1052 q 200 1060 211 1055 q 180 1073 189 1065 q 172 1093 172 1080 q 177 1109 172 1101 q 188 1123 182 1117 q 249 1188 220 1156 q 306 1258 277 1221 q 342 1294 321 1278 q 391 1310 363 1310 q 420 1303 407 1310 q 444 1287 434 1297 q 459 1262 454 1276 q 465 1233 465 1249 q 454 1190 465 1212 q 425 1148 443 1168 q 385 1111 408 1128 q 338 1080 362 1093 q 289 1059 313 1067 q 245 1052 265 1052 z "},"Î":{"ha":535,"x_min":8,"x_max":532,"o":"m 84 21 q 36 53 52 29 q 20 109 20 77 q 24 140 20 122 q 37 174 28 158 q 57 201 45 190 q 87 212 70 212 q 109 211 98 212 q 130 209 119 210 q 113 345 119 277 q 103 483 106 414 q 100 621 100 552 q 99 759 99 690 q 87 758 93 758 q 75 758 81 758 q 45 768 58 758 q 24 795 33 779 q 12 829 16 811 q 8 861 8 847 q 12 889 8 875 q 23 915 16 903 q 49 937 31 928 q 90 952 66 946 q 140 961 113 958 q 192 967 167 965 q 240 969 218 968 q 277 969 262 969 q 325 969 298 969 q 378 967 351 969 q 431 958 406 964 q 476 939 456 951 q 508 905 496 926 q 519 853 519 884 q 494 789 519 812 q 429 766 469 766 q 418 588 421 677 q 415 411 415 500 q 418 307 415 359 q 417 203 421 254 l 442 203 q 507 180 482 203 q 532 117 532 157 q 511 52 532 75 q 457 17 490 28 q 388 3 425 5 q 317 0 350 0 q 200 3 258 0 q 84 21 142 5 m 372 1052 q 343 1056 359 1052 q 321 1072 328 1059 q 296 1125 307 1098 q 270 1177 284 1152 q 244 1125 256 1152 q 218 1072 232 1099 q 196 1056 212 1059 q 167 1052 180 1052 q 143 1054 156 1052 q 119 1062 130 1057 q 100 1076 108 1067 q 93 1098 93 1085 q 100 1132 93 1110 q 119 1179 107 1154 q 146 1232 131 1205 q 176 1282 161 1259 q 207 1321 192 1305 q 233 1341 222 1337 q 270 1348 251 1348 q 306 1341 289 1348 q 332 1321 317 1337 q 363 1282 347 1305 q 393 1232 378 1259 q 420 1179 408 1205 q 439 1132 432 1154 q 446 1098 446 1110 q 439 1076 446 1085 q 420 1062 431 1067 q 396 1054 409 1057 q 372 1052 383 1052 z "},"Ï":{"ha":535,"x_min":8,"x_max":532,"o":"m 84 21 q 36 53 52 29 q 20 109 20 77 q 24 140 20 122 q 37 174 28 158 q 57 201 45 190 q 87 212 70 212 q 109 211 98 212 q 130 209 119 210 q 113 345 119 277 q 103 483 106 414 q 100 621 100 552 q 99 759 99 690 q 87 758 93 758 q 75 758 81 758 q 45 768 58 758 q 24 795 33 779 q 12 829 16 811 q 8 861 8 847 q 12 889 8 875 q 23 915 16 903 q 49 937 31 928 q 90 952 66 946 q 140 961 113 958 q 192 967 167 965 q 240 969 218 968 q 277 969 262 969 q 325 969 298 969 q 378 967 351 969 q 431 958 406 964 q 476 939 456 951 q 508 905 496 926 q 519 853 519 884 q 494 789 519 812 q 429 766 469 766 q 418 588 421 677 q 415 411 415 500 q 418 307 415 359 q 417 203 421 254 l 442 203 q 507 180 482 203 q 532 117 532 157 q 511 52 532 75 q 457 17 490 28 q 388 3 425 5 q 317 0 350 0 q 200 3 258 0 q 84 21 142 5 m 160 1051 q 121 1059 138 1051 q 91 1079 103 1066 q 72 1110 79 1092 q 65 1149 65 1128 q 76 1181 65 1168 q 102 1203 86 1194 q 136 1215 117 1211 q 169 1219 154 1219 q 201 1216 184 1219 q 230 1205 217 1213 q 252 1184 243 1197 q 260 1153 260 1171 q 253 1113 260 1131 q 232 1080 245 1094 q 201 1059 219 1067 q 160 1051 182 1051 m 375 1051 q 336 1059 353 1051 q 307 1079 319 1066 q 288 1110 294 1092 q 281 1149 281 1128 q 291 1181 281 1168 q 317 1203 302 1195 q 351 1216 333 1212 q 385 1219 369 1219 q 416 1216 400 1219 q 446 1204 433 1213 q 467 1184 458 1196 q 475 1153 475 1171 q 468 1113 475 1131 q 447 1080 460 1094 q 416 1059 434 1067 q 375 1051 397 1051 z "},"Ð":{"ha":846,"x_min":-132,"x_max":812,"o":"m 340 0 q 297 1 321 0 q 247 6 273 3 q 195 17 221 10 q 148 36 170 24 q 111 63 127 47 q 89 103 95 80 q 61 254 68 176 q 50 408 53 332 q -4 405 23 407 q -58 403 -31 403 q -89 411 -75 403 q -112 433 -102 420 q -127 462 -122 446 q -132 494 -132 478 q -113 543 -132 526 q -67 568 -94 560 q -10 578 -40 576 q 43 583 20 581 q 44 740 43 660 q 54 897 44 820 q 72 933 56 919 q 109 957 87 948 q 159 970 132 966 q 213 975 186 974 q 264 976 239 977 q 304 976 288 976 q 504 946 412 976 q 665 859 597 917 q 773 715 734 801 q 812 515 812 629 q 797 383 812 448 q 753 261 782 319 q 682 156 724 204 q 588 74 640 109 q 473 19 536 39 q 340 0 411 0 m 370 289 q 433 327 405 304 q 480 380 460 350 q 510 445 500 410 q 521 517 521 479 q 510 592 521 557 q 477 656 498 627 q 426 704 456 684 q 356 732 395 724 q 354 655 355 694 q 354 577 354 616 q 394 568 374 574 q 428 550 413 562 q 451 522 442 538 q 460 481 460 505 q 452 444 460 459 q 429 419 443 429 q 396 406 414 410 q 360 402 378 402 q 365 346 362 374 q 370 289 367 317 z "},"Ñ":{"ha":905,"x_min":43,"x_max":847,"o":"m 208 -1 q 141 12 171 -1 q 89 55 111 24 q 70 101 77 71 q 57 168 62 131 q 48 248 52 205 q 44 329 45 290 q 43 402 43 368 q 43 456 43 435 q 47 666 43 559 q 70 875 52 773 q 86 916 74 899 q 116 945 98 933 q 154 962 133 956 q 198 967 176 967 q 270 952 236 967 q 328 906 304 937 q 386 824 359 867 q 439 737 414 781 q 488 647 465 692 q 535 558 512 602 q 520 704 528 632 q 503 850 512 777 l 503 857 q 523 905 503 884 q 571 940 543 926 q 630 962 599 954 q 682 969 661 969 q 749 956 719 969 q 801 913 779 943 q 820 867 812 897 q 833 798 828 836 q 841 717 838 760 q 845 635 844 675 q 847 563 846 596 q 847 511 847 530 q 842 301 847 408 q 819 93 837 195 q 802 52 815 69 q 772 23 789 35 q 732 6 754 12 q 688 0 711 0 q 625 12 656 0 q 572 50 593 24 q 512 139 543 87 q 453 248 481 191 q 398 360 424 304 q 350 460 372 416 q 367 289 357 373 q 387 118 376 204 l 387 111 q 367 63 387 84 q 319 28 347 42 q 260 6 291 14 q 208 -1 229 -1 m 319 1051 q 292 1056 306 1051 q 267 1070 278 1061 q 249 1091 256 1079 q 241 1118 241 1103 q 253 1155 241 1134 q 282 1194 264 1175 q 320 1224 299 1212 q 358 1236 340 1236 q 394 1229 377 1236 q 427 1213 412 1221 q 458 1196 443 1204 q 487 1189 473 1189 q 504 1193 498 1189 q 516 1204 511 1198 q 525 1218 521 1210 q 535 1232 530 1225 q 549 1242 541 1238 q 570 1246 557 1246 q 598 1241 584 1246 q 623 1225 612 1235 q 641 1202 634 1215 q 648 1175 648 1190 q 637 1138 648 1159 q 609 1098 626 1117 q 572 1067 592 1080 q 534 1055 553 1055 q 497 1063 515 1055 q 463 1081 479 1071 q 432 1099 447 1090 q 403 1107 417 1107 q 381 1098 389 1107 q 366 1079 373 1089 q 349 1060 359 1069 q 319 1051 338 1051 z "},"Ò":{"ha":892,"x_min":16,"x_max":859,"o":"m 436 5 q 259 41 337 5 q 127 140 181 78 q 44 287 73 203 q 16 464 16 370 q 28 587 16 526 q 65 704 41 648 q 125 809 90 760 q 208 893 161 857 q 313 949 255 928 q 438 969 370 969 q 565 949 507 969 q 669 894 623 929 q 751 811 716 859 q 811 707 787 763 q 847 589 835 651 q 859 465 859 528 q 830 287 859 371 q 747 141 801 203 q 614 41 692 78 q 436 5 535 5 m 439 311 q 504 328 477 311 q 549 371 532 345 q 575 431 567 397 q 584 496 584 464 q 576 561 584 527 q 553 623 569 595 q 511 670 536 652 q 448 688 485 688 q 379 668 408 688 q 333 617 351 648 q 307 550 315 587 q 299 480 299 513 q 308 419 299 449 q 334 365 317 389 q 377 326 351 340 q 439 311 404 311 m 463 1052 q 419 1059 444 1052 q 371 1080 395 1067 q 324 1111 347 1093 q 283 1148 301 1128 q 255 1190 266 1168 q 244 1233 244 1212 q 250 1262 244 1249 q 265 1287 255 1276 q 288 1303 275 1297 q 317 1310 302 1310 q 366 1294 345 1310 q 403 1258 387 1278 q 521 1123 458 1188 q 532 1109 527 1117 q 536 1093 536 1102 q 528 1073 536 1080 q 509 1060 520 1065 q 485 1054 498 1055 q 463 1052 473 1052 z "},"Ó":{"ha":892,"x_min":16,"x_max":859,"o":"m 436 5 q 259 41 337 5 q 127 140 181 78 q 44 287 73 203 q 16 464 16 370 q 28 587 16 526 q 65 704 41 648 q 125 809 90 760 q 208 893 161 857 q 313 949 255 928 q 438 969 370 969 q 565 949 507 969 q 669 894 623 929 q 751 811 716 859 q 811 707 787 763 q 847 589 835 651 q 859 465 859 528 q 830 287 859 371 q 747 141 801 203 q 614 41 692 78 q 436 5 535 5 m 439 311 q 504 328 477 311 q 549 371 532 345 q 575 431 567 397 q 584 496 584 464 q 576 561 584 527 q 553 623 569 595 q 511 670 536 652 q 448 688 485 688 q 379 668 408 688 q 333 617 351 648 q 307 550 315 587 q 299 480 299 513 q 308 419 299 449 q 334 365 317 389 q 377 326 351 340 q 439 311 404 311 m 414 1052 q 393 1054 406 1052 q 369 1060 380 1055 q 349 1073 357 1065 q 341 1093 341 1080 q 346 1109 341 1101 q 357 1123 351 1117 q 417 1188 389 1156 q 475 1258 446 1221 q 511 1294 490 1278 q 560 1310 532 1310 q 589 1303 576 1310 q 613 1287 603 1297 q 628 1262 623 1276 q 633 1233 633 1249 q 623 1190 633 1212 q 594 1148 612 1168 q 554 1111 576 1128 q 507 1080 531 1093 q 458 1059 482 1067 q 414 1052 434 1052 z "},"Ô":{"ha":892,"x_min":16,"x_max":859,"o":"m 436 5 q 259 41 337 5 q 127 140 181 78 q 44 287 73 203 q 16 464 16 370 q 28 587 16 526 q 65 704 41 648 q 125 809 90 760 q 208 893 161 857 q 313 949 255 928 q 438 969 370 969 q 565 949 507 969 q 669 894 623 929 q 751 811 716 859 q 811 707 787 763 q 847 589 835 651 q 859 465 859 528 q 830 287 859 371 q 747 141 801 203 q 614 41 692 78 q 436 5 535 5 m 439 311 q 504 328 477 311 q 549 371 532 345 q 575 431 567 397 q 584 496 584 464 q 576 561 584 527 q 553 623 569 595 q 511 670 536 652 q 448 688 485 688 q 379 668 408 688 q 333 617 351 648 q 307 550 315 587 q 299 480 299 513 q 308 419 299 449 q 334 365 317 389 q 377 326 351 340 q 439 311 404 311 m 541 1052 q 512 1056 528 1052 q 490 1072 496 1059 q 465 1125 476 1098 q 439 1177 453 1152 q 413 1125 425 1152 q 387 1072 401 1099 q 365 1056 380 1059 q 336 1052 349 1052 q 312 1054 325 1052 q 288 1062 299 1057 q 269 1076 277 1067 q 262 1098 262 1085 q 269 1132 262 1110 q 288 1179 276 1154 q 315 1232 300 1205 q 345 1282 330 1259 q 376 1321 361 1305 q 402 1341 391 1337 q 439 1348 420 1348 q 475 1341 458 1348 q 501 1321 486 1337 q 532 1282 516 1305 q 562 1232 547 1259 q 589 1179 577 1205 q 608 1132 601 1154 q 615 1098 615 1110 q 608 1076 615 1085 q 589 1062 600 1067 q 565 1054 578 1057 q 541 1052 552 1052 z "},"Õ":{"ha":892,"x_min":16,"x_max":859,"o":"m 436 5 q 259 41 337 5 q 127 140 181 78 q 44 287 73 203 q 16 464 16 370 q 28 587 16 526 q 65 704 41 648 q 125 809 90 760 q 208 893 161 857 q 313 949 255 928 q 438 969 370 969 q 565 949 507 969 q 669 894 623 929 q 751 811 716 859 q 811 707 787 763 q 847 589 835 651 q 859 465 859 528 q 830 287 859 371 q 747 141 801 203 q 614 41 692 78 q 436 5 535 5 m 439 311 q 504 328 477 311 q 549 371 532 345 q 575 431 567 397 q 584 496 584 464 q 576 561 584 527 q 553 623 569 595 q 511 670 536 652 q 448 688 485 688 q 379 668 408 688 q 333 617 351 648 q 307 550 315 587 q 299 480 299 513 q 308 419 299 449 q 334 365 317 389 q 377 326 351 340 q 439 311 404 311 m 313 1051 q 286 1056 300 1051 q 261 1070 272 1061 q 242 1091 250 1079 q 235 1118 235 1103 q 247 1155 235 1134 q 276 1194 258 1175 q 314 1224 293 1212 q 352 1236 334 1236 q 388 1229 371 1236 q 421 1213 406 1221 q 452 1196 437 1204 q 481 1189 467 1189 q 498 1193 492 1189 q 510 1204 505 1198 q 519 1218 515 1210 q 529 1232 524 1225 q 543 1242 535 1238 q 564 1246 551 1246 q 592 1241 578 1246 q 617 1225 606 1235 q 635 1202 628 1215 q 642 1175 642 1190 q 631 1138 642 1159 q 603 1098 620 1117 q 566 1067 586 1080 q 528 1055 547 1055 q 491 1063 509 1055 q 457 1081 473 1071 q 426 1099 441 1090 q 397 1107 411 1107 q 375 1098 382 1107 q 360 1079 367 1089 q 342 1060 353 1069 q 313 1051 332 1051 z "},"Ö":{"ha":892,"x_min":16,"x_max":859,"o":"m 436 5 q 259 41 337 5 q 127 140 181 78 q 44 287 73 203 q 16 464 16 370 q 28 587 16 526 q 65 704 41 648 q 125 809 90 760 q 208 893 161 857 q 313 949 255 928 q 438 969 370 969 q 565 949 507 969 q 669 894 623 929 q 751 811 716 859 q 811 707 787 763 q 847 589 835 651 q 859 465 859 528 q 830 287 859 371 q 747 141 801 203 q 614 41 692 78 q 436 5 535 5 m 439 311 q 504 328 477 311 q 549 371 532 345 q 575 431 567 397 q 584 496 584 464 q 576 561 584 527 q 553 623 569 595 q 511 670 536 652 q 448 688 485 688 q 379 668 408 688 q 333 617 351 648 q 307 550 315 587 q 299 480 299 513 q 308 419 299 449 q 334 365 317 389 q 377 326 351 340 q 439 311 404 311 m 329 1051 q 290 1059 307 1051 q 260 1079 272 1066 q 241 1110 248 1092 q 234 1149 234 1128 q 244 1181 234 1168 q 271 1203 255 1194 q 304 1215 286 1211 q 338 1219 323 1219 q 370 1216 353 1219 q 399 1205 386 1213 q 420 1184 412 1197 q 429 1153 429 1171 q 421 1113 429 1131 q 401 1080 414 1094 q 370 1059 388 1067 q 329 1051 351 1051 m 544 1051 q 505 1059 522 1051 q 475 1079 488 1066 q 456 1110 463 1092 q 450 1149 450 1128 q 460 1181 450 1168 q 486 1203 471 1195 q 520 1216 502 1212 q 553 1219 538 1219 q 585 1216 569 1219 q 614 1204 602 1213 q 635 1184 627 1196 q 644 1153 644 1171 q 636 1113 644 1131 q 616 1080 629 1094 q 585 1059 603 1067 q 544 1051 566 1051 z "},"×":{"ha":564,"x_min":34,"x_max":530,"o":"m 418 242 q 378 253 397 242 q 341 281 359 264 q 309 316 324 298 q 281 349 294 334 q 255 319 270 338 q 224 284 241 301 q 191 255 208 267 q 158 242 174 242 q 119 250 139 242 q 83 272 99 258 q 56 303 66 286 q 45 342 45 321 q 56 381 45 360 q 80 422 66 402 q 111 461 95 443 q 139 492 127 479 q 110 518 128 504 q 75 549 92 533 q 46 583 58 566 q 34 615 34 600 q 42 655 34 635 q 63 691 50 675 q 95 717 77 707 q 134 727 113 727 q 172 717 151 727 q 212 693 192 707 q 250 663 232 679 q 281 636 269 648 q 312 663 295 648 q 348 691 329 678 q 386 713 366 705 q 424 722 405 722 q 463 715 444 722 q 497 695 481 708 q 521 665 512 682 q 530 627 530 647 q 519 586 530 605 q 492 550 508 567 q 458 518 476 533 q 427 492 440 504 q 455 460 439 477 q 483 426 470 444 q 505 389 496 408 q 514 349 514 370 q 507 310 514 329 q 486 276 499 291 q 456 251 473 260 q 418 242 438 242 z "},"Ø":{"ha":892,"x_min":16,"x_max":859,"o":"m 439 311 q 504 328 477 311 q 549 371 532 345 q 575 431 567 397 q 584 496 584 464 q 583 513 584 505 q 582 530 583 522 l 432 311 l 439 311 m 299 468 l 441 688 q 372 664 399 686 q 329 609 345 642 q 306 539 313 577 q 299 468 299 502 m 184 -7 q 147 3 166 -7 q 113 30 128 14 q 88 65 98 45 q 79 102 79 84 q 89 135 79 119 q 107 164 99 151 q 66 232 83 196 q 38 306 49 268 q 21 385 26 345 q 16 464 16 425 q 28 587 16 526 q 65 704 41 648 q 125 809 90 760 q 208 893 161 857 q 313 949 255 928 q 438 969 370 969 q 521 961 480 969 q 601 935 562 953 q 614 954 607 945 q 629 971 621 964 q 647 982 637 978 q 669 987 656 987 q 712 975 691 987 q 751 944 734 962 q 779 902 768 925 q 790 859 790 880 q 781 825 790 840 q 762 795 772 810 q 836 638 813 722 q 859 465 859 554 q 830 287 859 371 q 747 141 801 203 q 614 41 692 78 q 436 5 535 5 q 340 16 387 5 q 250 47 294 26 q 238 29 244 39 q 223 12 231 20 q 206 -2 216 3 q 184 -7 197 -7 z "},"Ù":{"ha":868,"x_min":27,"x_max":825,"o":"m 415 -1 q 281 28 339 -1 q 179 106 222 58 q 107 219 136 155 q 60 352 78 283 q 35 490 43 420 q 27 619 27 559 q 29 698 27 657 q 37 777 31 739 q 57 851 43 816 q 93 912 70 886 q 151 954 116 939 q 235 969 186 969 q 285 964 257 969 q 337 946 313 958 q 379 915 362 934 q 396 869 396 896 q 391 822 396 846 q 381 775 385 797 q 357 634 367 704 q 347 491 347 564 q 349 436 347 467 q 361 378 351 406 q 389 332 370 351 q 440 313 408 313 q 475 330 463 313 q 493 370 488 347 q 500 417 499 393 q 502 456 502 441 q 494 585 502 522 q 477 713 486 649 q 468 772 472 742 q 463 832 463 802 q 481 891 463 866 q 527 934 500 917 q 587 960 555 951 q 649 969 620 969 q 692 964 671 969 q 730 949 713 960 q 761 923 748 939 q 781 885 774 907 q 814 726 804 808 q 825 564 825 644 q 816 433 825 500 q 787 303 807 366 q 736 185 768 240 q 659 88 704 130 q 553 23 613 47 q 415 -1 492 -1 m 450 1052 q 407 1059 431 1052 q 358 1080 382 1067 q 311 1111 334 1093 q 271 1148 288 1128 q 242 1190 253 1168 q 231 1233 231 1212 q 237 1262 231 1249 q 252 1287 242 1276 q 275 1303 262 1297 q 304 1310 289 1310 q 353 1294 332 1310 q 390 1258 374 1278 q 508 1123 445 1188 q 519 1109 514 1117 q 524 1093 524 1102 q 515 1073 524 1080 q 496 1060 507 1065 q 472 1054 485 1055 q 450 1052 460 1052 z "},"Ú":{"ha":868,"x_min":27,"x_max":825,"o":"m 415 -1 q 281 28 339 -1 q 179 106 222 58 q 107 219 136 155 q 60 352 78 283 q 35 490 43 420 q 27 619 27 559 q 29 698 27 657 q 37 777 31 739 q 57 851 43 816 q 93 912 70 886 q 151 954 116 939 q 235 969 186 969 q 285 964 257 969 q 337 946 313 958 q 379 915 362 934 q 396 869 396 896 q 391 822 396 846 q 381 775 385 797 q 357 634 367 704 q 347 491 347 564 q 349 436 347 467 q 361 378 351 406 q 389 332 370 351 q 440 313 408 313 q 475 330 463 313 q 493 370 488 347 q 500 417 499 393 q 502 456 502 441 q 494 585 502 522 q 477 713 486 649 q 468 772 472 742 q 463 832 463 802 q 481 891 463 866 q 527 934 500 917 q 587 960 555 951 q 649 969 620 969 q 692 964 671 969 q 730 949 713 960 q 761 923 748 939 q 781 885 774 907 q 814 726 804 808 q 825 564 825 644 q 816 433 825 500 q 787 303 807 366 q 736 185 768 240 q 659 88 704 130 q 553 23 613 47 q 415 -1 492 -1 m 401 1052 q 380 1054 393 1052 q 356 1060 367 1055 q 336 1073 345 1065 q 328 1093 328 1080 q 333 1109 328 1101 q 344 1123 338 1117 q 405 1188 376 1156 q 462 1258 433 1221 q 498 1294 477 1278 q 547 1310 519 1310 q 576 1303 563 1310 q 600 1287 590 1297 q 615 1262 610 1276 q 621 1233 621 1249 q 610 1190 621 1212 q 581 1148 599 1168 q 541 1111 564 1128 q 494 1080 518 1093 q 445 1059 469 1067 q 401 1052 421 1052 z "},"Û":{"ha":868,"x_min":27,"x_max":825,"o":"m 415 -1 q 281 28 339 -1 q 179 106 222 58 q 107 219 136 155 q 60 352 78 283 q 35 490 43 420 q 27 619 27 559 q 29 698 27 657 q 37 777 31 739 q 57 851 43 816 q 93 912 70 886 q 151 954 116 939 q 235 969 186 969 q 285 964 257 969 q 337 946 313 958 q 379 915 362 934 q 396 869 396 896 q 391 822 396 846 q 381 775 385 797 q 357 634 367 704 q 347 491 347 564 q 349 436 347 467 q 361 378 351 406 q 389 332 370 351 q 440 313 408 313 q 475 330 463 313 q 493 370 488 347 q 500 417 499 393 q 502 456 502 441 q 494 585 502 522 q 477 713 486 649 q 468 772 472 742 q 463 832 463 802 q 481 891 463 866 q 527 934 500 917 q 587 960 555 951 q 649 969 620 969 q 692 964 671 969 q 730 949 713 960 q 761 923 748 939 q 781 885 774 907 q 814 726 804 808 q 825 564 825 644 q 816 433 825 500 q 787 303 807 366 q 736 185 768 240 q 659 88 704 130 q 553 23 613 47 q 415 -1 492 -1 m 528 1052 q 499 1056 515 1052 q 477 1072 484 1059 q 452 1125 463 1098 q 426 1177 440 1152 q 400 1125 412 1152 q 374 1072 388 1099 q 352 1056 368 1059 q 323 1052 336 1052 q 299 1054 312 1052 q 275 1062 286 1057 q 256 1076 264 1067 q 249 1098 249 1085 q 256 1132 249 1110 q 275 1179 263 1154 q 302 1232 287 1205 q 332 1282 317 1259 q 363 1321 348 1305 q 389 1341 378 1337 q 426 1348 407 1348 q 462 1341 445 1348 q 488 1321 473 1337 q 519 1282 503 1305 q 549 1232 534 1259 q 576 1179 564 1205 q 595 1132 588 1154 q 602 1098 602 1110 q 595 1076 602 1085 q 576 1062 587 1067 q 552 1054 565 1057 q 528 1052 539 1052 z "},"Ü":{"ha":868,"x_min":27,"x_max":825,"o":"m 415 -1 q 281 28 339 -1 q 179 106 222 58 q 107 219 136 155 q 60 352 78 283 q 35 490 43 420 q 27 619 27 559 q 29 698 27 657 q 37 777 31 739 q 57 851 43 816 q 93 912 70 886 q 151 954 116 939 q 235 969 186 969 q 285 964 257 969 q 337 946 313 958 q 379 915 362 934 q 396 869 396 896 q 391 822 396 846 q 381 775 385 797 q 357 634 367 704 q 347 491 347 564 q 349 436 347 467 q 361 378 351 406 q 389 332 370 351 q 440 313 408 313 q 475 330 463 313 q 493 370 488 347 q 500 417 499 393 q 502 456 502 441 q 494 585 502 522 q 477 713 486 649 q 468 772 472 742 q 463 832 463 802 q 481 891 463 866 q 527 934 500 917 q 587 960 555 951 q 649 969 620 969 q 692 964 671 969 q 730 949 713 960 q 761 923 748 939 q 781 885 774 907 q 814 726 804 808 q 825 564 825 644 q 816 433 825 500 q 787 303 807 366 q 736 185 768 240 q 659 88 704 130 q 553 23 613 47 q 415 -1 492 -1 m 316 1051 q 277 1059 294 1051 q 247 1079 259 1066 q 228 1110 235 1092 q 221 1149 221 1128 q 232 1181 221 1168 q 258 1203 242 1194 q 292 1215 273 1211 q 325 1219 310 1219 q 357 1216 340 1219 q 386 1205 373 1213 q 408 1184 399 1197 q 416 1153 416 1171 q 409 1113 416 1131 q 388 1080 401 1094 q 357 1059 375 1067 q 316 1051 338 1051 m 531 1051 q 492 1059 509 1051 q 463 1079 475 1066 q 444 1110 450 1092 q 437 1149 437 1128 q 447 1181 437 1168 q 473 1203 458 1195 q 507 1216 489 1212 q 541 1219 525 1219 q 572 1216 556 1219 q 602 1204 589 1213 q 623 1184 614 1196 q 631 1153 631 1171 q 624 1113 631 1131 q 603 1080 616 1094 q 572 1059 590 1067 q 531 1051 553 1051 z "},"Ý":{"ha":818,"x_min":2,"x_max":799,"o":"m 412 -1 q 323 21 354 -1 q 277 78 292 43 q 261 156 263 113 q 258 243 258 200 q 260 327 258 286 q 263 411 261 369 q 154 458 202 427 q 72 533 105 490 q 20 632 38 577 q 2 751 2 687 q 11 841 2 801 q 42 910 20 882 q 101 953 64 938 q 193 968 138 968 q 243 963 214 968 q 298 947 272 958 q 342 917 323 936 q 360 871 360 899 q 354 830 360 851 q 339 785 347 808 q 325 738 332 762 q 319 686 319 713 q 323 648 319 668 q 338 610 328 627 q 363 582 348 593 q 400 570 378 570 q 434 580 420 570 q 457 605 448 590 q 470 639 466 621 q 473 673 473 657 q 468 727 473 700 q 456 782 463 755 q 444 834 449 809 q 438 881 438 859 q 448 911 438 898 q 475 934 458 924 q 512 950 492 944 q 553 961 532 957 q 592 967 574 966 q 623 969 611 969 q 660 967 640 969 q 698 959 680 965 q 732 942 717 953 q 755 915 748 932 q 787 818 776 870 q 799 717 799 766 q 784 613 799 660 q 739 530 768 567 q 669 467 710 494 q 574 424 627 441 q 580 263 576 343 q 585 102 585 182 q 565 57 585 76 q 519 25 546 37 q 462 6 492 12 q 412 -1 433 -1 m 376 1052 q 355 1054 368 1052 q 331 1060 342 1055 q 311 1073 319 1065 q 303 1093 303 1080 q 308 1109 303 1101 q 319 1123 313 1117 q 379 1188 351 1156 q 437 1258 408 1221 q 473 1294 452 1278 q 522 1310 494 1310 q 551 1303 538 1310 q 575 1287 565 1297 q 590 1262 585 1276 q 595 1233 595 1249 q 585 1190 595 1212 q 556 1148 574 1168 q 516 1111 538 1128 q 469 1080 493 1093 q 420 1059 444 1067 q 376 1052 396 1052 z "},"Þ":{"ha":770,"x_min":-9,"x_max":756,"o":"m 345 399 q 390 418 366 406 q 434 448 414 431 q 469 487 455 465 q 482 533 482 509 q 470 568 482 555 q 441 589 458 582 q 404 599 424 597 q 367 602 383 602 l 341 601 l 340 549 q 342 474 340 511 q 345 399 343 437 m 207 -137 q 140 -124 170 -137 q 88 -81 110 -111 q 69 -35 77 -65 q 56 33 61 -5 q 48 113 51 71 q 44 194 45 155 q 43 266 43 233 q 43 317 43 298 q 46 476 43 397 q 55 633 50 555 q 66 790 60 711 q 75 948 71 869 q 37 954 53 947 q 11 974 21 961 q -5 1005 0 987 q -9 1044 -9 1023 q 6 1102 -9 1081 q 46 1133 22 1123 q 102 1146 71 1143 q 161 1149 132 1149 q 295 1145 229 1149 q 427 1124 361 1142 q 481 1087 461 1115 q 501 1023 501 1059 q 475 957 501 979 q 406 935 448 935 q 398 879 401 907 q 391 824 394 852 q 473 809 431 819 q 557 783 516 799 q 633 745 597 767 q 697 692 669 722 q 740 623 724 662 q 756 536 756 585 q 738 448 756 489 q 689 373 720 408 q 617 311 658 339 q 533 262 577 283 q 445 226 490 241 q 361 202 400 211 q 373 92 366 147 q 387 -18 379 37 l 387 -24 q 367 -72 387 -51 q 319 -107 347 -93 q 259 -130 290 -122 q 207 -137 229 -137 z "},"ß":{"ha":913,"x_min":46,"x_max":912,"o":"m 205 -1 q 106 35 142 -1 q 63 132 71 71 q 50 280 53 205 q 46 429 46 355 q 49 565 46 497 q 58 701 52 633 q 101 824 66 773 q 187 908 136 876 q 302 955 239 940 q 430 969 366 969 q 497 965 460 969 q 573 950 535 960 q 648 924 612 940 q 714 885 685 908 q 760 832 743 863 q 777 764 777 802 q 769 713 777 737 q 750 668 762 689 q 724 628 738 646 q 699 596 711 610 q 679 572 687 582 q 671 555 671 562 q 689 532 671 544 q 734 506 707 521 q 792 473 760 492 q 850 428 823 454 q 894 364 876 401 q 912 279 912 328 q 884 164 912 216 q 809 77 855 113 q 706 21 764 41 q 589 2 648 2 q 515 13 551 2 q 453 46 480 24 q 410 100 427 68 q 394 174 394 132 q 398 206 394 189 q 410 237 401 223 q 432 261 418 252 q 464 270 445 270 q 499 268 481 270 q 534 267 517 267 q 564 268 544 267 q 603 273 583 269 q 638 286 623 277 q 653 309 653 294 q 644 329 653 321 q 627 342 635 337 q 591 354 612 351 q 547 359 570 357 q 501 366 524 361 q 460 380 478 370 q 431 411 442 391 q 420 466 420 431 q 431 519 420 495 q 457 566 441 544 q 492 607 473 587 q 527 648 511 627 q 553 691 543 669 q 564 741 564 714 q 543 791 564 773 q 490 809 521 809 q 417 786 447 809 q 370 729 388 764 q 344 655 352 695 q 336 581 336 616 q 345 394 336 486 q 368 208 354 301 q 376 158 371 184 q 381 109 381 133 q 362 62 381 83 q 315 27 342 41 q 257 6 288 13 q 205 -1 227 -1 z "},"à":{"ha":872,"x_min":20,"x_max":840,"o":"m 656 -1 q 623 1 641 -1 q 589 9 606 3 q 559 25 573 15 q 538 50 545 35 q 443 13 492 26 q 342 0 393 0 q 221 19 279 0 q 119 74 163 37 q 47 162 74 110 q 20 281 20 214 q 46 389 20 342 q 113 466 71 435 q 207 514 154 498 q 315 530 260 530 q 428 518 372 530 q 538 486 484 506 q 526 535 532 507 q 508 587 519 562 q 479 628 497 611 q 431 645 460 645 q 373 632 400 645 q 320 603 347 618 q 264 574 293 587 q 201 561 235 561 q 148 571 172 561 q 104 598 123 581 q 75 639 85 615 q 64 692 64 663 q 81 756 64 728 q 127 805 99 784 q 193 842 156 827 q 267 866 229 857 q 340 881 304 876 q 403 885 376 885 q 559 861 492 885 q 675 795 627 838 q 755 696 724 753 q 806 572 787 639 q 832 431 825 505 q 840 283 840 357 q 839 190 840 237 q 831 97 838 142 q 808 51 827 70 q 763 21 789 33 q 708 4 736 9 q 656 -1 679 -1 m 429 215 q 488 219 458 215 q 546 229 517 224 q 549 274 547 252 q 551 319 550 297 q 481 348 519 336 q 407 359 443 359 q 350 342 370 359 q 330 287 330 325 q 338 251 330 265 q 361 229 347 237 q 393 218 375 221 q 429 215 411 215 m 427 970 q 384 977 408 970 q 335 998 359 985 q 288 1029 311 1011 q 248 1066 265 1046 q 219 1108 230 1086 q 208 1151 208 1130 q 214 1180 208 1166 q 229 1205 219 1194 q 252 1221 239 1215 q 281 1227 266 1227 q 330 1212 309 1227 q 367 1176 351 1196 q 485 1041 422 1106 q 496 1027 491 1035 q 500 1010 500 1020 q 492 990 500 998 q 473 978 484 983 q 449 971 462 973 q 427 970 437 970 z "},"á":{"ha":872,"x_min":20,"x_max":840,"o":"m 656 -1 q 623 1 641 -1 q 589 9 606 3 q 559 25 573 15 q 538 50 545 35 q 443 13 492 26 q 342 0 393 0 q 221 19 279 0 q 119 74 163 37 q 47 162 74 110 q 20 281 20 214 q 46 389 20 342 q 113 466 71 435 q 207 514 154 498 q 315 530 260 530 q 428 518 372 530 q 538 486 484 506 q 526 535 532 507 q 508 587 519 562 q 479 628 497 611 q 431 645 460 645 q 373 632 400 645 q 320 603 347 618 q 264 574 293 587 q 201 561 235 561 q 148 571 172 561 q 104 598 123 581 q 75 639 85 615 q 64 692 64 663 q 81 756 64 728 q 127 805 99 784 q 193 842 156 827 q 267 866 229 857 q 340 881 304 876 q 403 885 376 885 q 559 861 492 885 q 675 795 627 838 q 755 696 724 753 q 806 572 787 639 q 832 431 825 505 q 840 283 840 357 q 839 190 840 237 q 831 97 838 142 q 808 51 827 70 q 763 21 789 33 q 708 4 736 9 q 656 -1 679 -1 m 429 215 q 488 219 458 215 q 546 229 517 224 q 549 274 547 252 q 551 319 550 297 q 481 348 519 336 q 407 359 443 359 q 350 342 370 359 q 330 287 330 325 q 338 251 330 265 q 361 229 347 237 q 393 218 375 221 q 429 215 411 215 m 378 970 q 357 971 370 970 q 333 978 344 973 q 313 990 321 983 q 305 1010 305 998 q 310 1027 305 1019 q 321 1041 315 1035 q 381 1106 353 1074 q 439 1176 410 1139 q 475 1212 454 1196 q 524 1227 496 1227 q 553 1221 540 1227 q 577 1205 567 1215 q 592 1180 587 1194 q 597 1151 597 1166 q 587 1108 597 1130 q 558 1066 576 1086 q 518 1029 541 1046 q 471 998 495 1011 q 422 977 446 985 q 378 970 398 970 z "},"â":{"ha":872,"x_min":20,"x_max":840,"o":"m 656 -1 q 623 1 641 -1 q 589 9 606 3 q 559 25 573 15 q 538 50 545 35 q 443 13 492 26 q 342 0 393 0 q 221 19 279 0 q 119 74 163 37 q 47 162 74 110 q 20 281 20 214 q 46 389 20 342 q 113 466 71 435 q 207 514 154 498 q 315 530 260 530 q 428 518 372 530 q 538 486 484 506 q 526 535 532 507 q 508 587 519 562 q 479 628 497 611 q 431 645 460 645 q 373 632 400 645 q 320 603 347 618 q 264 574 293 587 q 201 561 235 561 q 148 571 172 561 q 104 598 123 581 q 75 639 85 615 q 64 692 64 663 q 81 756 64 728 q 127 805 99 784 q 193 842 156 827 q 267 866 229 857 q 340 881 304 876 q 403 885 376 885 q 559 861 492 885 q 675 795 627 838 q 755 696 724 753 q 806 572 787 639 q 832 431 825 505 q 840 283 840 357 q 839 190 840 237 q 831 97 838 142 q 808 51 827 70 q 763 21 789 33 q 708 4 736 9 q 656 -1 679 -1 m 429 215 q 488 219 458 215 q 546 229 517 224 q 549 274 547 252 q 551 319 550 297 q 481 348 519 336 q 407 359 443 359 q 350 342 370 359 q 330 287 330 325 q 338 251 330 265 q 361 229 347 237 q 393 218 375 221 q 429 215 411 215 m 505 970 q 476 974 492 970 q 454 990 460 977 q 429 1043 440 1016 q 403 1095 417 1069 q 377 1043 389 1069 q 351 990 365 1017 q 329 974 345 977 q 300 970 313 970 q 276 972 289 970 q 252 980 263 975 q 233 994 241 985 q 226 1016 226 1003 q 233 1050 226 1028 q 252 1097 240 1072 q 279 1150 264 1123 q 309 1200 294 1177 q 340 1239 325 1223 q 366 1259 355 1255 q 403 1265 384 1265 q 439 1259 422 1265 q 465 1239 450 1255 q 496 1200 480 1223 q 526 1150 511 1177 q 553 1097 541 1123 q 572 1050 565 1072 q 579 1016 579 1028 q 572 994 579 1003 q 553 980 564 985 q 529 972 542 975 q 505 970 516 970 z "},"ã":{"ha":872,"x_min":20,"x_max":840,"o":"m 656 -1 q 623 1 641 -1 q 589 9 606 3 q 559 25 573 15 q 538 50 545 35 q 443 13 492 26 q 342 0 393 0 q 221 19 279 0 q 119 74 163 37 q 47 162 74 110 q 20 281 20 214 q 46 389 20 342 q 113 466 71 435 q 207 514 154 498 q 315 530 260 530 q 428 518 372 530 q 538 486 484 506 q 526 535 532 507 q 508 587 519 562 q 479 628 497 611 q 431 645 460 645 q 373 632 400 645 q 320 603 347 618 q 264 574 293 587 q 201 561 235 561 q 148 571 172 561 q 104 598 123 581 q 75 639 85 615 q 64 692 64 663 q 81 756 64 728 q 127 805 99 784 q 193 842 156 827 q 267 866 229 857 q 340 881 304 876 q 403 885 376 885 q 559 861 492 885 q 675 795 627 838 q 755 696 724 753 q 806 572 787 639 q 832 431 825 505 q 840 283 840 357 q 839 190 840 237 q 831 97 838 142 q 808 51 827 70 q 763 21 789 33 q 708 4 736 9 q 656 -1 679 -1 m 429 215 q 488 219 458 215 q 546 229 517 224 q 549 274 547 252 q 551 319 550 297 q 481 348 519 336 q 407 359 443 359 q 350 342 370 359 q 330 287 330 325 q 338 251 330 265 q 361 229 347 237 q 393 218 375 221 q 429 215 411 215 m 277 969 q 250 974 264 969 q 225 988 236 979 q 207 1009 214 997 q 199 1036 199 1021 q 211 1073 199 1052 q 240 1112 222 1093 q 278 1142 257 1130 q 316 1154 298 1154 q 352 1147 335 1154 q 385 1131 370 1139 q 416 1114 401 1122 q 445 1107 431 1107 q 462 1111 456 1107 q 474 1122 469 1116 q 483 1136 479 1128 q 493 1149 488 1143 q 507 1160 499 1156 q 528 1164 515 1164 q 556 1159 542 1164 q 581 1143 570 1153 q 599 1120 592 1133 q 606 1093 606 1107 q 595 1056 606 1077 q 567 1016 584 1035 q 530 985 550 998 q 492 972 511 972 q 455 981 473 972 q 421 999 437 989 q 390 1017 405 1008 q 361 1025 375 1025 q 339 1016 347 1025 q 324 997 331 1007 q 307 978 317 987 q 277 969 296 969 z "},"ä":{"ha":872,"x_min":20,"x_max":840,"o":"m 656 -1 q 623 1 641 -1 q 589 9 606 3 q 559 25 573 15 q 538 50 545 35 q 443 13 492 26 q 342 0 393 0 q 221 19 279 0 q 119 74 163 37 q 47 162 74 110 q 20 281 20 214 q 46 389 20 342 q 113 466 71 435 q 207 514 154 498 q 315 530 260 530 q 428 518 372 530 q 538 486 484 506 q 526 535 532 507 q 508 587 519 562 q 479 628 497 611 q 431 645 460 645 q 373 632 400 645 q 320 603 347 618 q 264 574 293 587 q 201 561 235 561 q 148 571 172 561 q 104 598 123 581 q 75 639 85 615 q 64 692 64 663 q 81 756 64 728 q 127 805 99 784 q 193 842 156 827 q 267 866 229 857 q 340 881 304 876 q 403 885 376 885 q 559 861 492 885 q 675 795 627 838 q 755 696 724 753 q 806 572 787 639 q 832 431 825 505 q 840 283 840 357 q 839 190 840 237 q 831 97 838 142 q 808 51 827 70 q 763 21 789 33 q 708 4 736 9 q 656 -1 679 -1 m 429 215 q 488 219 458 215 q 546 229 517 224 q 549 274 547 252 q 551 319 550 297 q 481 348 519 336 q 407 359 443 359 q 350 342 370 359 q 330 287 330 325 q 338 251 330 265 q 361 229 347 237 q 393 218 375 221 q 429 215 411 215 m 293 969 q 254 977 271 969 q 224 997 236 984 q 205 1028 212 1010 q 198 1067 198 1046 q 209 1099 198 1086 q 235 1121 219 1112 q 269 1133 250 1129 q 302 1137 287 1137 q 334 1134 317 1137 q 363 1123 350 1131 q 385 1102 376 1115 q 393 1071 393 1089 q 386 1030 393 1049 q 365 998 378 1012 q 334 977 352 985 q 293 969 315 969 m 508 969 q 469 977 486 969 q 439 997 452 984 q 420 1028 427 1010 q 414 1067 414 1046 q 424 1099 414 1086 q 450 1121 435 1113 q 484 1134 466 1130 q 517 1137 502 1137 q 549 1134 533 1137 q 578 1122 566 1131 q 600 1102 591 1114 q 608 1071 608 1089 q 601 1030 608 1049 q 580 998 593 1012 q 549 977 567 985 q 508 969 530 969 z "},"å":{"ha":872,"x_min":20,"x_max":840,"o":"m 656 -1 q 623 1 641 -1 q 589 9 606 3 q 559 25 573 15 q 538 50 545 35 q 443 13 492 26 q 342 0 393 0 q 221 19 279 0 q 119 74 163 37 q 47 162 74 110 q 20 281 20 214 q 46 389 20 342 q 113 466 71 435 q 207 514 154 498 q 315 530 260 530 q 428 518 372 530 q 538 486 484 506 q 526 535 532 507 q 508 587 519 562 q 479 628 497 611 q 431 645 460 645 q 373 632 400 645 q 320 603 347 618 q 264 574 293 587 q 201 561 235 561 q 148 571 172 561 q 104 598 123 581 q 75 639 85 615 q 64 692 64 663 q 81 756 64 728 q 127 805 99 784 q 193 842 156 827 q 267 866 229 857 q 340 881 304 876 q 403 885 376 885 q 559 861 492 885 q 675 795 627 838 q 755 696 724 753 q 806 572 787 639 q 832 431 825 505 q 840 283 840 357 q 839 190 840 237 q 831 97 838 142 q 808 51 827 70 q 763 21 789 33 q 708 4 736 9 q 656 -1 679 -1 m 429 215 q 488 219 458 215 q 546 229 517 224 q 549 274 547 252 q 551 319 550 297 q 481 348 519 336 q 407 359 443 359 q 350 342 370 359 q 330 287 330 325 q 338 251 330 265 q 361 229 347 237 q 393 218 375 221 q 429 215 411 215 m 406 969 q 345 979 373 969 q 297 1008 317 989 q 264 1054 276 1027 q 253 1114 253 1080 q 264 1175 253 1147 q 295 1223 275 1202 q 342 1256 315 1244 q 401 1267 369 1267 q 461 1258 434 1267 q 509 1229 489 1248 q 541 1183 530 1210 q 552 1123 552 1157 q 542 1063 552 1091 q 512 1014 531 1035 q 465 981 492 994 q 406 969 438 969 m 408 1036 q 429 1043 420 1036 q 441 1061 437 1050 q 447 1082 446 1071 q 449 1103 449 1094 q 447 1123 449 1113 q 441 1142 446 1133 q 429 1157 436 1151 q 410 1162 421 1162 q 389 1156 397 1162 q 374 1140 380 1149 q 366 1119 369 1131 q 363 1097 363 1107 q 366 1077 363 1088 q 374 1057 369 1066 q 388 1042 380 1048 q 408 1036 397 1036 z "},"æ":{"ha":1341,"x_min":20,"x_max":1423,"o":"m 429 215 q 488 219 459 215 q 546 229 517 224 q 549 274 547 252 q 551 319 550 297 q 481 348 517 337 q 407 359 445 359 q 350 342 370 359 q 330 287 330 325 q 338 251 330 265 q 361 229 347 237 q 393 218 375 221 q 429 215 411 215 m 1017 533 q 1060 536 1036 533 q 1103 547 1083 538 q 1138 570 1124 555 q 1152 610 1152 585 q 1135 644 1152 633 q 1097 654 1118 654 q 1047 644 1071 654 q 1001 618 1023 634 q 962 582 980 602 q 931 542 944 562 q 1017 533 972 533 m 656 -1 q 623 1 641 -1 q 589 9 606 3 q 559 25 573 15 q 538 50 545 35 q 443 13 492 26 q 342 0 393 0 q 221 19 279 0 q 119 74 163 37 q 47 162 74 110 q 20 281 20 214 q 46 389 20 342 q 113 466 71 435 q 207 514 154 498 q 315 530 260 530 q 428 517 372 530 q 538 486 484 505 q 526 535 532 507 q 508 587 519 562 q 478 628 496 611 q 431 645 460 645 q 373 632 400 645 q 319 603 346 618 q 264 574 292 587 q 201 561 235 561 q 148 571 172 561 q 104 598 123 581 q 75 639 85 615 q 64 692 64 663 q 81 756 64 728 q 128 805 99 784 q 193 842 157 827 q 267 867 229 857 q 340 881 304 876 q 403 885 376 885 q 498 877 452 885 q 586 851 545 869 q 665 804 628 833 q 730 734 701 775 q 872 850 790 814 q 1053 886 954 886 q 1166 870 1111 886 q 1264 821 1221 854 q 1333 740 1307 789 q 1358 627 1358 692 q 1331 510 1358 560 q 1260 425 1304 459 q 1158 374 1215 391 q 1040 357 1101 357 q 980 361 1010 357 q 922 370 951 364 q 951 301 928 328 q 1021 275 975 275 q 1097 289 1061 275 q 1165 319 1133 302 q 1229 350 1198 336 q 1291 363 1260 363 q 1345 351 1321 363 q 1387 319 1370 339 q 1414 273 1404 299 q 1423 218 1423 246 q 1407 142 1423 175 q 1365 85 1392 109 q 1304 45 1339 61 q 1232 19 1270 28 q 1156 4 1194 9 q 1084 0 1118 0 q 949 19 1017 0 q 827 79 882 39 q 799 42 819 58 q 754 18 779 27 q 703 4 729 8 q 656 -1 676 -1 z "},"ç":{"ha":814,"x_min":20,"x_max":817,"o":"m 545 -300 q 502 -296 527 -300 q 455 -283 477 -292 q 417 -259 433 -275 q 401 -220 401 -244 q 407 -196 401 -207 q 422 -178 413 -185 q 444 -166 432 -170 q 469 -162 456 -162 q 500 -167 485 -162 q 530 -172 515 -172 q 542 -171 535 -172 q 555 -168 549 -170 q 565 -160 561 -165 q 570 -149 570 -156 q 559 -133 570 -137 q 534 -126 549 -128 q 500 -123 518 -124 q 467 -117 483 -122 q 441 -101 452 -113 q 431 -68 431 -90 q 435 -33 431 -51 q 443 2 439 -15 q 277 39 355 7 q 143 124 200 71 q 53 253 85 178 q 20 420 20 328 q 38 554 20 492 q 90 668 57 616 q 170 760 123 720 q 273 829 216 801 q 393 872 329 857 q 524 887 456 887 q 572 886 546 887 q 626 880 599 884 q 679 867 653 876 q 724 844 705 859 q 756 809 744 830 q 768 758 768 787 q 758 708 768 735 q 731 658 748 682 q 692 618 714 634 q 645 602 669 602 q 623 606 635 602 q 596 615 610 610 q 566 624 582 620 q 534 628 551 628 q 464 611 495 628 q 412 566 433 594 q 380 504 391 538 q 369 432 369 469 q 376 376 369 403 q 399 329 384 349 q 438 296 415 308 q 494 283 462 283 q 544 291 519 283 q 592 307 568 298 q 640 323 616 316 q 691 331 665 331 q 743 321 720 331 q 783 295 766 312 q 808 254 800 277 q 817 201 817 230 q 806 141 817 170 q 777 87 795 113 q 731 46 757 62 q 677 22 706 31 q 617 9 648 13 q 556 3 586 5 q 551 -19 553 -8 q 547 -41 548 -29 q 605 -46 574 -41 q 660 -64 635 -51 q 702 -99 685 -77 q 718 -156 718 -121 q 702 -217 718 -190 q 662 -262 686 -243 q 606 -290 637 -280 q 545 -300 575 -300 z "},"è":{"ha":795,"x_min":21,"x_max":799,"o":"m 393 533 q 436 536 412 533 q 479 547 459 538 q 514 570 500 555 q 528 610 528 585 q 511 644 528 633 q 473 654 494 654 q 423 644 447 654 q 377 618 399 634 q 338 582 356 602 q 307 542 320 562 q 393 533 349 533 m 460 0 q 280 36 361 0 q 141 133 199 71 q 53 279 84 195 q 21 460 21 363 q 50 630 21 552 q 132 765 79 708 q 260 854 184 822 q 429 886 335 886 q 542 870 487 886 q 640 821 597 854 q 709 740 683 789 q 734 627 734 692 q 707 510 734 560 q 636 425 680 459 q 534 374 591 391 q 416 357 477 357 q 356 361 386 357 q 298 370 327 364 q 327 301 304 328 q 397 275 351 275 q 472 289 437 275 q 541 319 508 302 q 605 350 574 336 q 667 363 636 363 q 722 351 697 363 q 763 319 746 339 q 790 273 781 299 q 799 218 799 246 q 783 142 799 175 q 741 86 768 110 q 680 45 715 62 q 608 19 646 28 q 532 4 570 9 q 460 0 494 0 m 448 970 q 405 977 429 970 q 356 998 380 985 q 309 1029 332 1011 q 269 1066 286 1046 q 240 1108 251 1086 q 229 1151 229 1130 q 235 1180 229 1166 q 250 1205 240 1194 q 273 1221 260 1215 q 302 1227 287 1227 q 351 1212 330 1227 q 388 1176 372 1196 q 506 1041 443 1106 q 517 1027 512 1035 q 522 1010 522 1020 q 513 990 522 998 q 494 978 505 983 q 470 971 483 973 q 448 970 458 970 z "},"é":{"ha":795,"x_min":21,"x_max":799,"o":"m 393 533 q 436 536 412 533 q 479 547 459 538 q 514 570 500 555 q 528 610 528 585 q 511 644 528 633 q 473 654 494 654 q 423 644 447 654 q 377 618 399 634 q 338 582 356 602 q 307 542 320 562 q 393 533 349 533 m 460 0 q 280 36 361 0 q 141 133 199 71 q 53 279 84 195 q 21 460 21 363 q 50 630 21 552 q 132 765 79 708 q 260 854 184 822 q 429 886 335 886 q 542 870 487 886 q 640 821 597 854 q 709 740 683 789 q 734 627 734 692 q 707 510 734 560 q 636 425 680 459 q 534 374 591 391 q 416 357 477 357 q 356 361 386 357 q 298 370 327 364 q 327 301 304 328 q 397 275 351 275 q 472 289 437 275 q 541 319 508 302 q 605 350 574 336 q 667 363 636 363 q 722 351 697 363 q 763 319 746 339 q 790 273 781 299 q 799 218 799 246 q 783 142 799 175 q 741 86 768 110 q 680 45 715 62 q 608 19 646 28 q 532 4 570 9 q 460 0 494 0 m 399 970 q 378 971 391 970 q 354 978 365 973 q 334 990 342 983 q 326 1010 326 998 q 331 1027 326 1019 q 342 1041 336 1035 q 402 1106 374 1074 q 460 1176 431 1139 q 496 1212 475 1196 q 545 1227 517 1227 q 574 1221 561 1227 q 598 1205 588 1215 q 613 1180 608 1194 q 618 1151 618 1166 q 608 1108 618 1130 q 579 1066 597 1086 q 539 1029 562 1046 q 492 998 516 1011 q 443 977 467 985 q 399 970 419 970 z "},"ê":{"ha":795,"x_min":21,"x_max":799,"o":"m 393 533 q 436 536 412 533 q 479 547 459 538 q 514 570 500 555 q 528 610 528 585 q 511 644 528 633 q 473 654 494 654 q 423 644 447 654 q 377 618 399 634 q 338 582 356 602 q 307 542 320 562 q 393 533 349 533 m 460 0 q 280 36 361 0 q 141 133 199 71 q 53 279 84 195 q 21 460 21 363 q 50 630 21 552 q 132 765 79 708 q 260 854 184 822 q 429 886 335 886 q 542 870 487 886 q 640 821 597 854 q 709 740 683 789 q 734 627 734 692 q 707 510 734 560 q 636 425 680 459 q 534 374 591 391 q 416 357 477 357 q 356 361 386 357 q 298 370 327 364 q 327 301 304 328 q 397 275 351 275 q 472 289 437 275 q 541 319 508 302 q 605 350 574 336 q 667 363 636 363 q 722 351 697 363 q 763 319 746 339 q 790 273 781 299 q 799 218 799 246 q 783 142 799 175 q 741 86 768 110 q 680 45 715 62 q 608 19 646 28 q 532 4 570 9 q 460 0 494 0 m 526 970 q 497 974 513 970 q 475 990 481 977 q 450 1043 461 1016 q 424 1095 438 1069 q 398 1043 410 1069 q 372 990 386 1017 q 350 974 366 977 q 321 970 334 970 q 297 972 310 970 q 273 980 284 975 q 254 994 262 985 q 247 1016 247 1003 q 254 1050 247 1028 q 273 1097 261 1072 q 300 1150 285 1123 q 330 1200 315 1177 q 361 1239 346 1223 q 387 1259 376 1255 q 424 1265 405 1265 q 460 1259 443 1265 q 486 1239 471 1255 q 517 1200 501 1223 q 547 1150 532 1177 q 574 1097 562 1123 q 593 1050 586 1072 q 600 1016 600 1028 q 593 994 600 1003 q 574 980 585 985 q 550 972 563 975 q 526 970 537 970 z "},"ë":{"ha":795,"x_min":21,"x_max":799,"o":"m 393 533 q 436 536 412 533 q 479 547 459 538 q 514 570 500 555 q 528 610 528 585 q 511 644 528 633 q 473 654 494 654 q 423 644 447 654 q 377 618 399 634 q 338 582 356 602 q 307 542 320 562 q 393 533 349 533 m 460 0 q 280 36 361 0 q 141 133 199 71 q 53 279 84 195 q 21 460 21 363 q 50 630 21 552 q 132 765 79 708 q 260 854 184 822 q 429 886 335 886 q 542 870 487 886 q 640 821 597 854 q 709 740 683 789 q 734 627 734 692 q 707 510 734 560 q 636 425 680 459 q 534 374 591 391 q 416 357 477 357 q 356 361 386 357 q 298 370 327 364 q 327 301 304 328 q 397 275 351 275 q 472 289 437 275 q 541 319 508 302 q 605 350 574 336 q 667 363 636 363 q 722 351 697 363 q 763 319 746 339 q 790 273 781 299 q 799 218 799 246 q 783 142 799 175 q 741 86 768 110 q 680 45 715 62 q 608 19 646 28 q 532 4 570 9 q 460 0 494 0 m 314 969 q 275 977 292 969 q 245 997 257 984 q 226 1028 233 1010 q 219 1067 219 1046 q 230 1099 219 1086 q 256 1121 240 1112 q 290 1133 271 1129 q 323 1137 308 1137 q 355 1134 338 1137 q 384 1123 371 1131 q 406 1102 397 1115 q 414 1071 414 1089 q 407 1030 414 1049 q 386 998 399 1012 q 355 977 373 985 q 314 969 336 969 m 529 969 q 490 977 507 969 q 460 997 473 984 q 441 1028 448 1010 q 435 1067 435 1046 q 445 1099 435 1086 q 471 1121 456 1113 q 505 1134 487 1130 q 538 1137 523 1137 q 570 1134 554 1137 q 600 1122 587 1131 q 621 1102 612 1114 q 629 1071 629 1089 q 622 1030 629 1049 q 601 998 614 1012 q 570 977 588 985 q 529 969 551 969 z "},"ì":{"ha":422,"x_min":9,"x_max":376,"o":"m 191 -7 q 149 -2 170 -7 q 111 18 127 3 q 84 75 95 33 q 66 174 73 117 q 55 297 59 231 q 50 424 52 362 q 49 537 49 486 q 49 619 49 589 q 63 671 49 650 q 100 706 78 692 q 150 726 123 720 q 203 732 178 732 q 260 726 231 732 q 312 706 288 720 q 350 669 335 692 q 366 615 366 647 q 373 366 370 490 q 376 117 376 242 q 358 55 376 79 q 314 17 341 31 q 255 -2 288 3 q 191 -7 222 -7 m 229 814 q 185 822 209 814 q 136 843 161 829 q 89 873 112 856 q 49 911 66 891 q 20 953 31 931 q 9 996 9 975 q 15 1025 9 1011 q 30 1049 20 1039 q 54 1066 40 1060 q 83 1072 67 1072 q 132 1057 111 1072 q 168 1021 153 1041 q 286 886 223 951 q 297 872 292 880 q 302 855 302 865 q 294 835 302 843 q 274 823 286 827 q 251 816 263 818 q 229 814 238 814 z "},"í":{"ha":422,"x_min":49,"x_max":399,"o":"m 191 -7 q 149 -2 170 -7 q 111 18 127 3 q 84 75 95 33 q 66 174 73 117 q 55 297 59 231 q 50 424 52 362 q 49 537 49 486 q 49 619 49 589 q 63 671 49 650 q 100 706 78 692 q 150 726 123 720 q 203 732 178 732 q 260 726 231 732 q 312 706 288 720 q 350 669 335 692 q 366 615 366 647 q 373 366 370 490 q 376 117 376 242 q 358 55 376 79 q 314 17 341 31 q 255 -2 288 3 q 191 -7 222 -7 m 180 814 q 158 816 171 814 q 134 823 145 818 q 115 835 123 827 q 106 855 106 843 q 111 872 106 864 q 122 886 116 880 q 183 951 154 918 q 240 1021 212 984 q 277 1057 256 1041 q 326 1072 298 1072 q 355 1066 341 1072 q 378 1049 368 1060 q 393 1025 388 1039 q 399 996 399 1011 q 388 953 399 975 q 359 911 377 931 q 319 873 342 891 q 272 843 296 856 q 223 822 248 829 q 180 814 199 814 z "},"î":{"ha":422,"x_min":27,"x_max":380,"o":"m 191 -7 q 149 -2 170 -7 q 111 18 127 3 q 84 75 95 33 q 66 174 73 117 q 55 297 59 231 q 50 424 52 362 q 49 537 49 486 q 49 619 49 589 q 63 671 49 650 q 100 706 78 692 q 150 726 123 720 q 203 732 178 732 q 260 726 231 732 q 312 706 288 720 q 350 669 335 692 q 366 615 366 647 q 373 366 370 490 q 376 117 376 242 q 358 55 376 79 q 314 17 341 31 q 255 -2 288 3 q 191 -7 222 -7 m 307 814 q 278 818 294 814 q 255 835 262 822 q 230 887 241 861 q 204 940 218 914 q 178 888 190 914 q 153 835 166 861 q 130 818 146 822 q 101 814 114 814 q 77 817 90 814 q 53 824 64 819 q 35 839 42 829 q 27 861 27 848 q 34 895 27 873 q 53 942 41 916 q 80 995 65 968 q 111 1044 95 1021 q 141 1084 126 1067 q 168 1104 156 1100 q 204 1110 185 1110 q 240 1104 223 1110 q 267 1084 252 1100 q 297 1044 281 1067 q 328 995 313 1021 q 354 942 342 968 q 373 895 366 916 q 380 861 380 873 q 373 839 380 848 q 354 824 366 829 q 330 817 343 819 q 307 814 317 814 z "},"ï":{"ha":422,"x_min":-1,"x_max":409,"o":"m 191 -7 q 149 -2 170 -7 q 111 18 127 3 q 84 75 95 33 q 66 174 73 117 q 55 297 59 231 q 50 424 52 362 q 49 537 49 486 q 49 619 49 589 q 63 671 49 650 q 100 706 78 692 q 150 726 123 720 q 203 732 178 732 q 260 726 231 732 q 312 706 288 720 q 350 669 335 692 q 366 615 366 647 q 373 366 370 490 q 376 117 376 242 q 358 55 376 79 q 314 17 341 31 q 255 -2 288 3 q 191 -7 222 -7 m 94 814 q 55 821 73 814 q 25 842 37 829 q 6 873 13 854 q -1 912 -1 891 q 10 944 -1 930 q 36 965 20 957 q 70 978 52 974 q 103 982 88 982 q 135 979 119 982 q 164 967 151 975 q 186 947 178 960 q 194 916 194 934 q 187 875 194 894 q 166 843 180 857 q 135 822 153 829 q 94 814 117 814 m 309 814 q 270 821 288 814 q 241 842 253 829 q 222 872 229 854 q 215 911 215 890 q 225 944 215 930 q 252 966 236 958 q 285 978 267 975 q 319 982 303 982 q 351 979 334 982 q 380 967 367 975 q 401 946 393 959 q 409 916 409 934 q 402 875 409 894 q 381 843 395 857 q 350 822 368 829 q 309 814 332 814 z "},"ð":{"ha":924,"x_min":13,"x_max":932,"o":"m 452 279 q 497 282 475 279 q 543 290 520 285 q 542 343 543 316 q 540 396 541 370 q 479 424 511 412 q 413 435 447 435 q 379 430 397 435 q 347 417 361 426 q 322 394 332 408 q 313 361 313 380 q 328 321 313 336 q 364 296 342 305 q 409 283 385 287 q 452 279 433 279 m 681 -1 q 637 4 659 -1 q 598 19 616 9 q 566 46 581 30 q 544 83 552 62 q 440 23 496 46 q 323 0 385 0 q 197 30 254 0 q 99 110 140 60 q 36 221 58 159 q 13 349 13 284 q 35 466 13 413 q 97 558 58 519 q 190 618 136 597 q 307 640 243 640 q 419 626 364 640 q 526 590 473 613 l 513 711 q 371 709 441 711 q 229 707 300 707 q 207 712 217 707 q 189 727 197 718 q 177 747 181 736 q 172 770 172 758 q 185 803 172 788 q 216 819 193 812 q 269 828 239 825 q 335 833 300 831 q 402 835 370 835 q 460 835 435 836 q 498 835 486 835 q 497 846 498 840 q 496 857 496 851 q 505 890 496 875 q 529 918 514 905 q 564 940 545 930 q 603 956 583 949 q 642 966 623 962 q 675 969 661 969 q 735 960 710 969 q 778 932 760 950 q 806 889 795 914 q 823 833 817 864 l 823 831 q 862 829 842 831 q 897 821 881 827 q 922 800 912 814 q 932 760 932 786 q 922 727 932 738 q 899 711 913 715 q 867 707 884 707 q 834 707 850 707 q 840 510 840 609 q 836 301 840 407 q 813 93 831 195 q 796 52 809 69 q 765 22 783 34 q 725 4 747 10 q 681 -1 703 -1 z "},"ñ":{"ha":998,"x_min":41,"x_max":965,"o":"m 224 0 q 174 5 199 0 q 129 26 149 11 q 95 67 109 40 q 71 128 81 94 q 55 201 61 162 q 46 276 50 239 q 42 346 43 313 q 41 400 41 378 q 44 495 41 445 q 53 596 47 545 q 70 695 60 646 q 96 785 81 743 q 122 829 106 810 q 161 861 139 848 q 208 881 182 874 q 258 887 233 887 q 310 880 284 887 q 356 860 336 873 q 390 824 377 846 q 403 774 403 803 q 401 758 403 766 q 399 743 399 751 q 447 800 421 773 q 502 846 472 826 q 565 877 531 865 q 638 888 600 888 q 761 857 709 888 q 849 775 813 826 q 908 659 886 724 q 943 525 930 593 q 960 390 956 456 q 964 271 964 324 q 965 208 964 242 q 960 139 965 173 q 941 77 955 106 q 899 32 927 49 q 844 9 873 16 q 785 2 815 2 q 720 10 754 2 q 658 36 686 18 q 611 79 629 53 q 593 142 593 105 q 593 187 593 164 q 594 232 594 210 q 593 282 594 248 q 589 358 592 316 q 579 444 585 399 q 561 524 572 488 q 533 583 549 560 q 492 606 516 606 q 475 602 483 606 q 459 591 467 597 q 447 577 452 585 q 437 562 441 569 q 397 461 410 517 q 379 347 384 406 q 376 229 375 288 q 377 121 377 170 q 364 64 377 87 q 330 27 351 41 q 281 6 309 13 q 224 0 254 0 m 377 969 q 350 974 364 969 q 325 988 336 979 q 307 1009 314 997 q 300 1036 300 1021 q 311 1073 300 1052 q 340 1112 323 1093 q 378 1142 357 1130 q 416 1154 399 1154 q 453 1147 435 1154 q 486 1131 470 1139 q 516 1114 501 1122 q 545 1107 531 1107 q 563 1111 556 1107 q 574 1122 569 1116 q 584 1136 579 1128 q 594 1149 588 1143 q 608 1160 600 1156 q 629 1164 616 1164 q 656 1159 642 1164 q 681 1143 670 1153 q 699 1120 692 1133 q 706 1093 706 1107 q 695 1056 706 1077 q 667 1016 684 1035 q 631 985 650 998 q 593 972 611 972 q 555 981 573 972 q 522 999 538 989 q 490 1017 505 1008 q 461 1025 475 1025 q 439 1016 447 1025 q 424 997 431 1007 q 407 978 417 987 q 377 969 397 969 z "},"ò":{"ha":937,"x_min":20,"x_max":909,"o":"m 460 -1 q 282 35 363 -1 q 142 132 201 71 q 52 277 84 194 q 20 456 20 361 q 54 637 20 557 q 150 772 89 717 q 293 858 210 828 q 473 888 376 888 q 650 852 570 888 q 788 753 730 816 q 877 608 846 691 q 909 430 909 525 q 875 251 909 330 q 782 115 842 171 q 640 29 722 59 q 460 -1 557 -1 m 484 313 q 542 330 519 313 q 578 374 564 347 q 597 431 591 400 q 603 490 603 463 q 597 552 603 517 q 578 618 592 587 q 541 669 565 648 q 481 690 517 690 q 422 672 447 690 q 380 626 397 654 q 356 566 364 599 q 348 505 348 534 q 356 441 348 475 q 380 379 363 408 q 422 332 397 351 q 484 313 448 313 m 488 970 q 445 977 469 970 q 396 998 420 985 q 349 1029 372 1011 q 309 1066 326 1046 q 280 1108 291 1086 q 269 1151 269 1130 q 275 1180 269 1166 q 290 1205 280 1194 q 313 1221 300 1215 q 342 1227 327 1227 q 391 1212 370 1227 q 428 1176 412 1196 q 546 1041 483 1106 q 557 1027 552 1035 q 562 1010 562 1020 q 553 990 562 998 q 534 978 545 983 q 510 971 523 973 q 488 970 498 970 z "},"ó":{"ha":937,"x_min":20,"x_max":909,"o":"m 460 -1 q 282 35 363 -1 q 142 132 201 71 q 52 277 84 194 q 20 456 20 361 q 54 637 20 557 q 150 772 89 717 q 293 858 210 828 q 473 888 376 888 q 650 852 570 888 q 788 753 730 816 q 877 608 846 691 q 909 430 909 525 q 875 251 909 330 q 782 115 842 171 q 640 29 722 59 q 460 -1 557 -1 m 484 313 q 542 330 519 313 q 578 374 564 347 q 597 431 591 400 q 603 490 603 463 q 597 552 603 517 q 578 618 592 587 q 541 669 565 648 q 481 690 517 690 q 422 672 447 690 q 380 626 397 654 q 356 566 364 599 q 348 505 348 534 q 356 441 348 475 q 380 379 363 408 q 422 332 397 351 q 484 313 448 313 m 439 970 q 418 971 431 970 q 394 978 405 973 q 374 990 382 983 q 366 1010 366 998 q 371 1027 366 1019 q 382 1041 376 1035 q 443 1106 414 1074 q 500 1176 471 1139 q 536 1212 515 1196 q 585 1227 557 1227 q 614 1221 601 1227 q 638 1205 628 1215 q 653 1180 648 1194 q 659 1151 659 1166 q 648 1108 659 1130 q 619 1066 637 1086 q 579 1029 602 1046 q 532 998 556 1011 q 483 977 507 985 q 439 970 459 970 z "},"ô":{"ha":937,"x_min":20,"x_max":909,"o":"m 460 -1 q 282 35 363 -1 q 142 132 201 71 q 52 277 84 194 q 20 456 20 361 q 54 637 20 557 q 150 772 89 717 q 293 858 210 828 q 473 888 376 888 q 650 852 570 888 q 788 753 730 816 q 877 608 846 691 q 909 430 909 525 q 875 251 909 330 q 782 115 842 171 q 640 29 722 59 q 460 -1 557 -1 m 484 313 q 542 330 519 313 q 578 374 564 347 q 597 431 591 400 q 603 490 603 463 q 597 552 603 517 q 578 618 592 587 q 541 669 565 648 q 481 690 517 690 q 422 672 447 690 q 380 626 397 654 q 356 566 364 599 q 348 505 348 534 q 356 441 348 475 q 380 379 363 408 q 422 332 397 351 q 484 313 448 313 m 566 970 q 537 974 553 970 q 515 990 522 977 q 490 1043 501 1016 q 464 1095 478 1069 q 438 1043 450 1069 q 412 990 426 1017 q 390 974 406 977 q 361 970 374 970 q 337 972 350 970 q 313 980 324 975 q 294 994 302 985 q 287 1016 287 1003 q 294 1050 287 1028 q 313 1097 301 1072 q 340 1150 325 1123 q 370 1200 355 1177 q 401 1239 386 1223 q 427 1259 416 1255 q 464 1265 445 1265 q 500 1259 483 1265 q 526 1239 511 1255 q 557 1200 541 1223 q 587 1150 572 1177 q 614 1097 602 1123 q 633 1050 626 1072 q 640 1016 640 1028 q 633 994 640 1003 q 614 980 625 985 q 590 972 603 975 q 566 970 577 970 z "}}}
